<?xml version="1.0" encoding="UTF-8" standalone="no"?>
<!-- Created with Inkscape (http://www.inkscape.org/) -->

<svg
   xmlns:dc="http://purl.org/dc/elements/1.1/"
   xmlns:cc="http://creativecommons.org/ns#"
   xmlns:rdf="http://www.w3.org/1999/02/22-rdf-syntax-ns#"
   xmlns:svg="http://www.w3.org/2000/svg"
   xmlns="http://www.w3.org/2000/svg"
   xmlns:sodipodi="http://sodipodi.sourceforge.net/DTD/sodipodi-0.dtd"
   xmlns:inkscape="http://www.inkscape.org/namespaces/inkscape"
   width="31.568096mm"
   height="45.447701mm"
   viewBox="0 0 31.568096 45.447701"
   version="1.1"
   id="svg2529"
   inkscape:version="0.92.2 (5c3e80d, 2017-08-06)"
   sodipodi:docname="meaning.svg">
  <defs
     id="defs2523" />
  <sodipodi:namedview
     id="base"
     pagecolor="#ffffff"
     bordercolor="#666666"
     borderopacity="1.0"
     inkscape:pageopacity="0.0"
     inkscape:pageshadow="2"
     inkscape:zoom="2.8"
     inkscape:cx="-114.8737"
     inkscape:cy="14.171014"
     inkscape:document-units="mm"
     inkscape:current-layer="layer1"
     showgrid="false"
     inkscape:window-width="1920"
     inkscape:window-height="1052"
     inkscape:window-x="1920"
     inkscape:window-y="0"
     inkscape:window-maximized="1"
     fit-margin-top="0"
     fit-margin-left="0"
     fit-margin-right="0"
     fit-margin-bottom="0" />
  <metadata
     id="metadata2526">
    <rdf:RDF>
      <cc:Work
         rdf:about="">
        <dc:format>image/svg+xml</dc:format>
        <dc:type
           rdf:resource="http://purl.org/dc/dcmitype/StillImage" />
        <dc:title></dc:title>
      </cc:Work>
    </rdf:RDF>
  </metadata>
  <g
     inkscape:label="Layer 1"
     inkscape:groupmode="layer"
     id="layer1"
     transform="translate(-47.715952,-32.371383)">
    <path
       style="fill:#f8c719;fill-opacity:1;fill-rule:nonzero;stroke:none;stroke-width:0.35277775"
       d="m 54.411801,67.136523 c -1.642622,1.99816 -2.674775,4.33669 -3.57601,6.72897 -0.30179,0.80064 -0.566374,1.61506 -0.841981,2.42534 -0.363802,-0.80477 -0.789616,-1.5875 -1.270551,-2.34817 -0.0565,-0.0923 -0.117136,-0.1819 -0.176389,-0.27286 0.268715,-0.39274 0.548457,-0.77583 0.840603,-1.15066 1.014236,-1.31051 2.07808,-2.57831 3.157086,-3.83645 0.485069,-0.565 1.054198,-1.05696 1.573716,-1.59164 0.03583,-0.0372 0.06891,-0.073 0.09922,-0.10886 z m 0,0"
       id="path878"
       inkscape:connector-curvature="0" />
    <path
       style="fill:#000000;fill-opacity:1;fill-rule:nonzero;stroke:none;stroke-width:0.35277775"
       d="m 49.078756,73.424758 c 0.02067,0.0303 0.03996,0.062 0.05926,0.0937 0.341754,0.54019 0.654569,1.0914 0.935687,1.64538 0.186037,-0.55122 0.245326,-0.862895 0.452032,-1.414105 0.596692,-1.58061 1.273309,-3.21634 2.191082,-4.75975 -0.94258,1.10105 -2.035362,2.39779 -3.068892,3.73173 -0.239779,0.31006 -0.341789,0.379195 -0.569165,0.703035 m 0.957771,3.765945 -0.344508,-0.76343 c -0.350023,-0.77446 -0.770322,-1.55029 -1.248502,-2.30821 -0.0565,-0.0923 -0.114378,-0.17915 -0.172254,-0.26734 l -0.122647,-0.18604 0.125402,-0.18328 c 0.271473,-0.39687 0.558105,-0.78962 0.851627,-1.16582 1.070737,-1.38217 2.202106,-2.72162 3.16811,-3.84886 0.314191,-0.36656 0.662837,-0.70418 1.000456,-1.02939 0.198438,-0.19017 0.395496,-0.38172 0.587044,-0.5774 0.02893,-0.0317 0.05926,-0.0634 0.08819,-0.0965 l 0.206706,-0.23703 0.704177,0.55949 -0.212217,0.26045 c -1.657781,2.01469 -2.672017,4.3794 -3.522268,6.63525 -0.234265,0.62012 -0.450617,1.26229 -0.660079,1.8824 z"
       id="path880"
       inkscape:connector-curvature="0"
       sodipodi:nodetypes="cccccccccccccccccccccccc" />
    <path
       style="fill:#f8c719;fill-opacity:1;fill-rule:nonzero;stroke:none;stroke-width:0.35277775"
       d="m 55.525256,66.537083 c -0.367937,-0.011 -0.853007,0.2825 -1.102431,0.58429 -0.0041,0.004 -0.0083,0.011 -0.01101,0.0152 l -0.194306,-0.15434 c 0.498853,-0.58016 0.362426,-1.04318 -0.133668,-1.69775 -1.634352,-2.158 -3.362413,-4.30774 -3.542936,-7.16717 -0.124023,-1.9389 0.596692,-3.64491 1.710147,-5.22139 1.503436,-2.13182 3.505729,-3.69727 5.72988,-4.96507 2.776749,-1.58336 5.632044,-3.03168 8.439107,-4.56406 3.057867,-1.66743 6.096441,-3.38033 8.729871,-5.68441 1.138258,-0.99632 2.116666,-2.17868 3.184649,-3.29351 -0.135051,1.25815 -0.267343,2.55351 -0.4079,3.84748 -0.15021,1.36702 -0.311439,2.73403 -0.463021,4.10105 -0.224621,2.02295 -0.451996,4.05005 -0.668351,6.07576 -0.136424,1.28572 -0.169497,2.58658 -0.396875,3.85438 -0.423055,2.36609 -1.047311,4.66741 -2.17592,6.83093 -0.866789,1.66467 -1.920988,3.13917 -3.260439,4.44417 -1.299492,1.26367 -2.880099,2.05604 -4.553038,2.5728 -2.090484,0.64906 -4.27743,0.85576 -6.474022,0.74415 -0.06339,-0.005 -0.128161,-0.007 -0.191548,-0.011 -1.406977,-0.0841 -2.811198,-0.27424 -4.218175,-0.31145"
       id="path882"
       inkscape:connector-curvature="0" />
    <path
       style="fill:#000000;fill-opacity:1;fill-rule:nonzero;stroke:none;stroke-width:0.35277775"
       d="m 55.504583,66.206353 h 0.0303 c 0.839226,0.022 1.686719,0.0992 2.506652,0.17363 0.564994,0.051 1.149283,0.10336 1.721167,0.13781 l 0.194307,0.011 c 0.365177,0.0193 0.737249,0.0289 1.099671,0.0289 1.865867,0 3.633886,-0.25494 5.253083,-0.75792 1.83279,-0.56775 3.278354,-1.38355 4.420747,-2.49425 1.266416,-1.23335 2.312349,-2.65961 3.198424,-4.36012 0.974274,-1.86724 1.655026,-4.00733 2.14423,-6.73585 0.144695,-0.81166 0.210841,-1.65778 0.274228,-2.47633 0.03447,-0.44373 0.07166,-0.90261 0.118512,-1.35461 0.183279,-1.71566 0.374827,-3.42994 0.564994,-5.14284 l 0.103354,-0.93569 c 0.06752,-0.60633 0.136427,-1.21267 0.206706,-1.81901 0.08682,-0.76067 0.173635,-1.51997 0.256315,-2.28065 0.08544,-0.77859 0.166743,-1.55581 0.248049,-2.32613 0.01791,-0.17914 0.03721,-0.35829 0.0565,-0.53881 -0.101973,0.11162 -0.203949,0.22186 -0.304546,0.33211 -0.704176,0.77032 -1.43178,1.56545 -2.229665,2.26411 -2.618274,2.2903 -5.651334,4.01423 -8.790506,5.72437 -1.076247,0.58843 -2.175923,1.17271 -3.241146,1.73771 -1.711522,0.90951 -3.482301,1.84933 -5.191068,2.8236 -2.463934,1.40422 -4.303614,2.99723 -5.623775,4.86861 -1.233343,1.74597 -1.756999,3.33761 -1.650891,5.01054 0.166744,2.62655 1.733575,4.69085 3.249415,6.68762 l 0.227376,0.30042 c 0.301791,0.39963 0.551215,0.82544 0.508498,1.29122 0.209461,-0.10336 0.434082,-0.1695 0.649054,-0.1695 m -0.982542,1.44142 -0.778595,-0.62012 0.223245,-0.26044 c 0.30868,-0.35967 0.356912,-0.61737 -0.147451,-1.28296 l -0.227375,-0.29903 c -1.573721,-2.07533 -3.202563,-4.22093 -3.381707,-7.04729 -0.115757,-1.80523 0.4644,-3.5829 1.770779,-5.43223 1.376658,-1.95268 3.286622,-3.60908 5.835992,-5.06291 1.718412,-0.97841 3.493325,-1.92098 5.208982,-2.83325 1.062468,-0.56361 2.162144,-1.1479 3.235636,-1.73357 3.10334,-1.69223 6.10333,-3.39686 8.671992,-5.64307 0.767567,-0.67248 1.452454,-1.42075 2.175923,-2.21175 0.319707,-0.35001 0.650436,-0.71106 0.985298,-1.06108 l 0.671105,-0.70143 -0.101976,0.96463 c -0.05374,0.50161 -0.107487,1.0101 -0.161229,1.52135 -0.0813,0.77033 -0.16261,1.54892 -0.248049,2.32751 -0.08268,0.76068 -0.169498,1.52273 -0.256313,2.28479 -0.0689,0.60496 -0.139181,1.2113 -0.206708,1.81625 l -0.103352,0.93569 c -0.190169,1.71153 -0.381717,3.4258 -0.563615,5.14008 -0.04685,0.44235 -0.08269,0.89573 -0.117134,1.33532 -0.06477,0.83509 -0.132292,1.69912 -0.283877,2.54111 -0.500229,2.79603 -1.20165,4.99676 -2.208995,6.92601 -0.917773,1.76389 -2.005044,3.24528 -3.322451,4.52824 -1.219563,1.18649 -2.751941,2.05328 -4.686705,2.65272 -2.007803,0.62287 -4.229202,0.87781 -6.587024,0.75654 l -0.198438,-0.011 c -0.578774,-0.0345 -1.168576,-0.0882 -1.737706,-0.13917 -0.810288,-0.073 -1.646756,-0.14883 -2.465309,-0.17088 h -0.0014 c -0.242535,0 -0.615982,0.2067 -0.824068,0.44786 z m 0,0"
       id="path884"
       inkscape:connector-curvature="0" />
    <path
       style="fill:#000000;fill-opacity:1;fill-rule:nonzero;stroke:none;stroke-width:0.35277775"
       d="m 49.387473,72.519143 c -0.290767,0.37483 -0.571888,0.75792 -0.840603,1.15066 -0.133671,-0.2067 -0.272852,-0.41065 -0.414792,-0.61322 1.532378,-1.81901 3.037198,-3.61184 4.551662,-5.39502 0.460266,-0.54019 1.267795,-1.00321 1.34221,-1.57785 0.06201,-0.44786 -0.800643,-0.98806 -1.190625,-1.53101 -1.054202,-1.45796 -2.091863,-2.94762 -2.491493,-4.72942 -0.6904,-3.06752 0.140557,-5.74504 2.152495,-8.14696 1.474501,-1.76113 3.271463,-3.09783 5.23379,-4.21129 2.720245,-1.5434 5.494235,-2.99172 8.250311,-4.47311 3.130903,-1.68534 6.24665,-3.42167 8.90075,-5.79465 1.400085,-1.24988 2.469443,-2.86908 3.689006,-4.31877 0.04823,-0.0579 0.103354,-0.11024 0.352779,-0.13643 -0.06201,0.79926 -0.09646,1.60404 -0.191545,2.40055 -0.150209,1.27882 -0.367937,2.55075 -0.502986,3.82956 -0.205327,1.94304 -0.308681,3.89847 -0.547081,5.83599 -0.522277,4.25125 -0.544325,8.60172 -2.118043,12.65866 -0.888833,2.29443 -2.105642,4.42213 -3.905363,6.19291 -1.214049,1.19475 -2.604491,2.08635 -4.186477,2.56177 -1.624707,0.48783 -3.32245,0.89986 -5.005034,0.98392 -0.847496,0.0413 -1.697743,0.0193 -2.549373,-0.0317 l 0.01792,-0.31419 c 2.195212,0.11162 4.383539,-0.0951 6.472643,-0.74414 1.674318,-0.51677 3.254925,-1.30914 4.553038,-2.5728 1.340831,-1.305 2.395029,-2.7795 3.26182,-4.44417 1.128609,-2.16352 1.752864,-4.46484 2.175917,-6.83094 0.227381,-1.26779 0.260453,-2.56866 0.396875,-3.85437 0.216355,-2.02571 0.443733,-4.05281 0.668354,-6.07577 0.151579,-1.36701 0.312811,-2.73403 0.46302,-4.10104 0.140558,-1.29398 0.272849,-2.58934 0.407898,-3.84748 -1.06798,1.11483 -2.046388,2.29719 -3.184647,3.29351 -2.63481,2.30408 -5.672004,4.01698 -8.731251,5.68441 -2.805684,1.53237 -5.660979,2.98069 -8.437728,4.56406 -2.224151,1.26779 -4.226444,2.83324 -5.72988,4.96507 -1.113455,1.57648 -1.834169,3.28248 -1.710147,5.22139 0.180524,2.85943 1.908584,5.00917 3.542937,7.16717 0.496093,0.65457 0.632519,1.11759 0.133667,1.69774 -0.0303,0.0358 -0.06339,0.0717 -0.09922,0.10887 -0.519518,0.53468 -1.088648,1.02664 -1.573717,1.59164 -1.077627,1.25814 -2.14285,2.52594 -3.157086,3.83645"
       id="path886"
       inkscape:connector-curvature="0" />
    <path
       style="fill:#000000;fill-opacity:1;fill-rule:nonzero;stroke:none;stroke-width:0.35277775"
       d="m 78.542625,33.431093 c -0.28112,0.34589 -0.556728,0.69867 -0.825442,1.04318 -0.148831,0.19154 -0.299037,0.38447 -0.451998,0.57602 0.271473,-0.2949 0.548457,-0.59669 0.82958,-0.89022 l 0.428567,-0.44786 c 0.0069,-0.0854 0.01241,-0.1695 0.01791,-0.25356 0,-0.01 0.0013,-0.0179 0.0013,-0.0276 m -30.002526,40.83403 -0.270094,-0.41479 c -0.132291,-0.20533 -0.270097,-0.40514 -0.409278,-0.60496 l -0.144692,-0.20808 1.351855,-1.60542 c 1.125855,-1.33807 2.242068,-2.66375 3.363789,-3.9839 0.169499,-0.19844 0.37345,-0.38172 0.570508,-0.55811 0.325219,-0.28939 0.662838,-0.5898 0.695911,-0.85025 0.01654,-0.12127 -0.363802,-0.48645 -0.545705,-0.66146 -0.209462,-0.20119 -0.425813,-0.41065 -0.585664,-0.63252 -1.156176,-1.5999 -2.146984,-3.06889 -2.545239,-4.85069 -0.680748,-3.02204 0.06615,-5.85804 2.2214,-8.43084 1.357365,-1.62195 3.099205,-3.02342 5.324739,-4.28708 2.024338,-1.1479 4.112066,-2.26136 6.13089,-3.33899 0.708314,-0.37895 1.418004,-0.75654 2.126315,-1.13825 3.18189,-1.71153 6.253536,-3.43959 8.835979,-5.74918 0.941199,-0.83922 1.751488,-1.87826 2.535589,-2.88423 0.361048,-0.46302 0.735875,-0.94258 1.120346,-1.40147 0.130916,-0.15296 0.285256,-0.22186 0.571887,-0.25218 l 0.395496,-0.0413 -0.03168,0.3955 c -0.01929,0.24529 -0.03447,0.49058 -0.05099,0.73587 -0.03721,0.54984 -0.07579,1.11897 -0.141941,1.67845 -0.06752,0.57878 -0.150204,1.16444 -0.230129,1.73082 -0.09784,0.68626 -0.198438,1.39733 -0.271474,2.09461 -0.0882,0.83096 -0.158474,1.68121 -0.226001,2.50115 -0.09095,1.09691 -0.186034,2.22966 -0.322459,3.34174 -0.126777,1.03215 -0.225996,2.09048 -0.321085,3.11436 -0.30041,3.20119 -0.610468,6.51261 -1.816251,9.62284 -1.007348,2.59898 -2.309594,4.66328 -3.981154,6.30866 -1.305002,1.28295 -2.760211,2.17179 -4.324283,2.64308 -1.384928,0.41479 -3.214962,0.90399 -5.083584,0.9977 -0.764811,0.0372 -1.588876,0.0275 -2.585198,-0.0317 l -0.329353,-0.0193 0.05512,-0.97289 0.327974,0.0165 c 2.282031,0.11575 4.42488,-0.12816 6.358269,-0.72899 1.832789,-0.56775 3.278353,-1.38354 4.420746,-2.49424 1.266416,-1.23335 2.312349,-2.65962 3.198424,-4.36012 0.974274,-1.86724 1.656404,-4.00733 2.144229,-6.73585 0.144696,-0.81166 0.210841,-1.65778 0.274228,-2.47633 0.03447,-0.44373 0.07166,-0.90262 0.118512,-1.35461 0.183279,-1.71428 0.373449,-3.42856 0.564996,-5.14146 l 0.103356,-0.93707 c 0.06753,-0.60633 0.137806,-1.21267 0.206708,-1.81901 0.08682,-0.76068 0.173633,-1.52135 0.256313,-2.28203 0.08544,-0.77721 0.166745,-1.55443 0.248049,-2.32475 0.01791,-0.18052 0.03721,-0.35967 0.0565,-0.53881 -0.101973,0.11162 -0.203946,0.22324 -0.304546,0.3321 -0.704176,0.77033 -1.433158,1.56683 -2.229665,2.26412 -2.618273,2.2903 -5.651333,4.01422 -8.790505,5.72575 -1.074868,0.58704 -2.175923,1.17133 -3.241146,1.73633 -1.711522,0.9095 -3.482301,1.84933 -5.191068,2.8236 -2.463934,1.40422 -4.303614,2.99723 -5.623775,4.86861 -1.233343,1.74597 -1.756999,3.33761 -1.650891,5.01054 0.166744,2.62655 1.733575,4.69085 3.249415,6.68762 l 0.227376,0.30042 c 0.47129,0.62287 0.813043,1.30913 0.121267,2.1139 -0.03443,0.04 -0.07028,0.0786 -0.108864,0.11851 -0.199816,0.20533 -0.402389,0.40239 -0.604961,0.5967 -0.326594,0.31557 -0.664213,0.64078 -0.959114,0.98392 -0.96049,1.12172 -2.08497,2.4529 -3.146058,3.82405 -0.286632,0.36794 -0.564998,0.74965 -0.829582,1.1355 z m 0,0"
       id="path888"
       inkscape:connector-curvature="0" />
    <path
       style="fill:#000000;fill-opacity:1;fill-rule:nonzero;stroke:none;stroke-width:0.35277775"
       d="m 50.835791,73.865493 c 0.901235,-2.39228 1.933388,-4.73081 3.57601,-6.72897 0.0028,-0.004 0.0069,-0.011 0.01101,-0.0152 0.249424,-0.30178 0.734494,-0.59531 1.10243,-0.58428 1.406977,0.0372 2.811198,0.22737 4.218175,0.31144 0.06339,0.004 0.128157,0.006 0.191547,0.011 l -0.01792,0.31557 c -1.192001,-0.0717 -2.386761,-0.19431 -3.580141,-0.26735 -0.686265,-0.0413 -1.276064,-0.0262 -1.663294,0.72347 -0.915017,1.78043 -1.930629,3.51124 -2.831867,5.29994 -0.536056,1.05971 -0.997701,2.17178 -1.367014,3.29902 -0.07166,0.21497 -0.14883,0.43408 -0.220486,0.65181 -0.08406,-0.19844 -0.170879,-0.39411 -0.260449,-0.59118 0.275608,-0.81028 0.540191,-1.6247 0.841982,-2.42534"
       id="path890"
       inkscape:connector-curvature="0" />
    <path
       style="fill:#000000;fill-opacity:1;fill-rule:nonzero;stroke:none;stroke-width:0.35277775"
       d="m 53.963935,68.276163 c -0.846113,1.20992 -1.504816,2.51217 -2.065676,3.81993 0.377582,-0.7221 0.770322,-1.43868 1.153418,-2.13734 0.30179,-0.55122 0.610471,-1.11621 0.912258,-1.68259 m -3.673849,9.54292 -0.341753,-0.80891 c -0.08131,-0.1943 -0.16674,-0.38723 -0.254935,-0.58016 l -0.05512,-0.11988 0.220486,-0.65595 c 0.210837,-0.62563 0.429948,-1.27331 0.666968,-1.90445 0.866786,-2.29857 1.903071,-4.71289 3.607704,-6.7951 l 0.0083,-0.0152 0.02755,-0.0303 c 0.289382,-0.35002 0.840597,-0.7028 1.335311,-0.7028 h 0.0303 c 0.839226,0.022 1.686719,0.0992 2.506652,0.17363 0.564995,0.051 1.149283,0.10336 1.721167,0.13781 l 0.520901,0.0331 -0.05512,0.97289 -0.330729,-0.0193 c -0.613227,-0.0358 -1.234722,-0.0868 -1.836925,-0.13642 -0.571888,-0.0468 -1.164445,-0.0951 -1.744599,-0.13091 -0.114377,-0.007 -0.227376,-0.0124 -0.33624,-0.0124 -0.458886,0 -0.771701,0.0923 -1.01148,0.55672 -0.431328,0.84061 -0.89159,1.68121 -1.336697,2.49425 -0.501607,0.91502 -1.01975,1.86035 -1.49517,2.80431 -0.529167,1.04731 -0.983922,2.14147 -1.347724,3.25217 -0.04134,0.1254 -0.08406,0.25081 -0.128158,0.37758 -0.0303,0.0923 -0.06201,0.18466 -0.0937,0.27699 z m 0,0"
       id="path892"
       inkscape:connector-curvature="0" />
    <path
       style="fill:#f8c719;fill-opacity:1;fill-rule:nonzero;stroke:none;stroke-width:0.35277775"
       d="m 54.411801,67.136523 c -1.642622,1.99816 -2.674775,4.33669 -3.57601,6.72897 -0.30179,0.80064 -0.330139,1.01266 -0.605746,1.82294 -0.363802,-0.80477 -0.789616,-1.5875 -1.270551,-2.34817 -0.0565,-0.0923 -0.117136,-0.1819 -0.176389,-0.27286 0.268715,-0.39274 0.312222,-0.17343 0.604368,-0.54826 1.014236,-1.31051 2.07808,-2.57831 3.157086,-3.83645 0.485069,-0.565 1.054198,-1.05696 1.573716,-1.59164 0.03583,-0.0372 0.06891,-0.073 0.09922,-0.10886 z"
       id="path894"
       inkscape:connector-curvature="0"
       sodipodi:nodetypes="cccccccccc" />
    <path
       style="fill:#f8c81a;fill-opacity:1;fill-rule:nonzero;stroke:none;stroke-width:0.35277775"
       d="m 55.525256,66.537083 c -0.367937,-0.011 -0.853007,0.2825 -1.102431,0.58429 -0.0041,0.004 -0.0083,0.011 -0.01101,0.0152 l -0.194306,-0.15434 c 0.498853,-0.58016 0.362426,-1.04318 -0.133668,-1.69775 -1.634352,-2.158 -3.362413,-4.30774 -3.542936,-7.16717 -0.124023,-1.9389 0.596692,-3.64491 1.710147,-5.22139 1.503436,-2.13182 3.505729,-3.69727 5.72988,-4.96507 2.776749,-1.58336 5.632044,-3.03168 8.439107,-4.56406 3.057867,-1.66743 6.096441,-3.38033 8.729871,-5.68441 1.138258,-0.99632 2.116666,-2.17868 3.184649,-3.29351 -0.135051,1.25815 -0.267343,2.55351 -0.4079,3.84748 -0.15021,1.36702 -0.311439,2.73403 -0.463021,4.10105 -0.224621,2.02295 -0.451996,4.05005 -0.668351,6.07576 -0.136424,1.28572 -0.169497,2.58658 -0.396875,3.85438 -0.423055,2.36609 -1.047311,4.66741 -2.17592,6.83093 -0.866789,1.66467 -1.920988,3.13917 -3.260439,4.44417 -1.299492,1.26367 -2.880099,2.05604 -4.553038,2.5728 -2.090484,0.64906 -4.27743,0.85576 -6.474022,0.74415 -0.06339,-0.005 -0.128161,-0.007 -0.191548,-0.011 -1.406977,-0.0841 -2.811198,-0.27424 -4.218175,-0.31145"
       id="path896"
       inkscape:connector-curvature="0" />
    <path
       style="fill:#000000;fill-opacity:1;fill-rule:nonzero;stroke:none;stroke-width:0.35277775"
       d="m 49.387473,72.519143 c -0.290767,0.37483 -0.571888,0.75792 -0.840603,1.15066 -0.133671,-0.2067 -0.272852,-0.41065 -0.414792,-0.61322 1.532378,-1.81901 3.037198,-3.61184 4.551662,-5.39502 0.460266,-0.54019 1.267795,-1.00321 1.34221,-1.57785 0.06201,-0.44786 -0.800643,-0.98806 -1.190625,-1.53101 -1.054202,-1.45796 -2.091863,-2.94762 -2.491493,-4.72942 -0.6904,-3.06752 0.140557,-5.74504 2.152495,-8.14696 1.474501,-1.76113 3.271463,-3.09783 5.23379,-4.21129 2.720245,-1.5434 5.494235,-2.99172 8.250311,-4.47311 3.130903,-1.68534 6.24665,-3.42167 8.90075,-5.79465 1.400085,-1.24988 2.469443,-2.86908 3.689006,-4.31877 0.04823,-0.0579 0.103354,-0.11024 0.352779,-0.13643 -0.06201,0.79926 -0.09646,1.60404 -0.191545,2.40055 -0.150209,1.27882 -0.367937,2.55075 -0.502986,3.82956 -0.205327,1.94304 -0.308681,3.89847 -0.547081,5.83599 -0.522277,4.25125 -0.544325,8.60172 -2.118043,12.65866 -0.888833,2.29443 -2.105642,4.42213 -3.905363,6.19291 -1.214049,1.19475 -2.604491,2.08635 -4.186477,2.56177 -1.624707,0.48783 -3.32245,0.89986 -5.005034,0.98392 -0.847496,0.0413 -1.697743,0.0193 -2.549373,-0.0317 l 0.01792,-0.31419 c 2.195212,0.11162 4.383539,-0.0951 6.472643,-0.74414 1.674318,-0.51677 3.254925,-1.30914 4.553038,-2.5728 1.340831,-1.305 2.395029,-2.7795 3.26182,-4.44417 1.128609,-2.16352 1.752864,-4.46484 2.175917,-6.83094 0.227381,-1.26779 0.260453,-2.56866 0.396875,-3.85437 0.216355,-2.02571 0.443733,-4.05281 0.668354,-6.07577 0.151579,-1.36701 0.312811,-2.73403 0.46302,-4.10104 0.140558,-1.29398 0.272849,-2.58934 0.407898,-3.84748 -1.06798,1.11483 -2.046388,2.29719 -3.184647,3.29351 -2.63481,2.30408 -5.672004,4.01698 -8.731251,5.68441 -2.805684,1.53237 -5.660979,2.98069 -8.437728,4.56406 -2.224151,1.26779 -4.226444,2.83324 -5.72988,4.96507 -1.113455,1.57648 -1.834169,3.28248 -1.710147,5.22139 0.180524,2.85943 1.908584,5.00917 3.542937,7.16717 0.496093,0.65457 0.632519,1.11759 0.133667,1.69774 -0.0303,0.0358 -0.06339,0.0717 -0.09922,0.10887 -0.519518,0.53468 -1.088648,1.02664 -1.573717,1.59164 -1.077627,1.25814 -2.14285,2.52594 -3.157086,3.83645"
       id="path898"
       inkscape:connector-curvature="0" />
    <path
       style="fill:#000000;fill-opacity:1;fill-rule:nonzero;stroke:none;stroke-width:0.35277775"
       d="m 50.835791,73.865493 c 0.901235,-2.39228 1.933388,-4.73081 3.57601,-6.72897 0.0028,-0.004 0.0069,-0.011 0.01101,-0.0152 0.249424,-0.30178 0.734494,-0.59531 1.10243,-0.58428 1.406977,0.0372 2.811198,0.22737 4.218175,0.31144 0.06339,0.004 0.128157,0.006 0.191547,0.011 l -0.01792,0.31557 c -1.192001,-0.0717 -2.386761,-0.19431 -3.580141,-0.26735 -0.686265,-0.0413 -1.276064,-0.0262 -1.663294,0.72347 -0.915017,1.78043 -1.930629,3.51124 -2.831867,5.29994 -0.536056,1.05971 -0.997701,2.17178 -1.367014,3.29902 -0.07166,0.21497 -0.14883,0.43408 -0.220486,0.65181 -0.08406,-0.19844 -0.170879,-0.39411 -0.260449,-0.59118 0.275608,-0.81028 0.540191,-1.6247 0.841982,-2.42534"
       id="path900"
       inkscape:connector-curvature="0" />
    <path
       style="fill:#000000;fill-opacity:1;fill-rule:nonzero;stroke:none;stroke-width:0.35277775"
       d="m 70.821478,61.704303 h -2.550749 v -10.93198 h -0.03583 l -2.441884,10.93198 h -2.678906 l -2.38676,-10.93198 h -0.03583 v 10.93198 h -2.55075 v -13.08172 h 3.98942 l 2.368849,10.31186 h 0.0372 l 2.331643,-10.31186 h 3.953591 z m 0,0"
       id="path902"
       inkscape:connector-curvature="0" />
  </g>
</svg>
