<?xml version="1.0" encoding="UTF-8" standalone="no"?>
<!-- Created with Inkscape (http://www.inkscape.org/) -->

<svg
   xmlns:dc="http://purl.org/dc/elements/1.1/"
   xmlns:cc="http://creativecommons.org/ns#"
   xmlns:rdf="http://www.w3.org/1999/02/22-rdf-syntax-ns#"
   xmlns:svg="http://www.w3.org/2000/svg"
   xmlns="http://www.w3.org/2000/svg"
   xmlns:sodipodi="http://sodipodi.sourceforge.net/DTD/sodipodi-0.dtd"
   xmlns:inkscape="http://www.inkscape.org/namespaces/inkscape"
   width="35.502857mm"
   height="38.149899mm"
   viewBox="0 0 35.502857 38.149899"
   version="1.1"
   id="svg1013"
   inkscape:version="0.92.2 (5c3e80d, 2017-08-06)"
   sodipodi:docname="play.svg">
  <defs
     id="defs1007" />
  <sodipodi:namedview
     id="base"
     pagecolor="#ffffff"
     bordercolor="#666666"
     borderopacity="1.0"
     inkscape:pageopacity="0.0"
     inkscape:pageshadow="2"
     inkscape:zoom="1.979899"
     inkscape:cx="117.99591"
     inkscape:cy="41.887794"
     inkscape:document-units="mm"
     inkscape:current-layer="layer1"
     showgrid="false"
     fit-margin-top="0"
     fit-margin-left="0"
     fit-margin-right="0"
     fit-margin-bottom="0"
     inkscape:window-width="1920"
     inkscape:window-height="1052"
     inkscape:window-x="1920"
     inkscape:window-y="0"
     inkscape:window-maximized="1" />
  <metadata
     id="metadata1010">
    <rdf:RDF>
      <cc:Work
         rdf:about="">
        <dc:format>image/svg+xml</dc:format>
        <dc:type
           rdf:resource="http://purl.org/dc/dcmitype/StillImage" />
        <dc:title></dc:title>
      </cc:Work>
    </rdf:RDF>
  </metadata>
  <g
     inkscape:label="Layer 1"
     inkscape:groupmode="layer"
     id="layer1"
     transform="translate(-13.98881,-23.578405)">
    <path
       id="path906"
       transform="scale(0.26458333)"
       style="fill:#a8d157;fill-opacity:1;fill-rule:nonzero;stroke:none;stroke-width:1.33333325"
       d="m 165.24414,208.52148 -0.65625,0.67774 c 6.24889,6.06964 10.97242,13.24638 15.33594,20.66406 0.27488,-0.36356 0.21834,-0.33856 0.6914,-0.64453 0.01,-0.006 -0.0201,0.0408 -0.01,0.0352 0.0576,-0.0302 0.0978,-0.13163 0.16015,-0.11329 0.0227,0.007 0.003,0.0268 -0.0176,0.0469 0.0893,-0.0841 0.17634,-0.16983 0.26562,-0.25391 0.053,-0.0591 0.10828,-0.12346 0.1543,-0.16797 0.0118,-0.0373 0.0245,-0.0743 0.0371,-0.11132 0.61789,-0.42378 0.50199,-0.38087 0.60937,-0.39453 l 0.10157,-0.16797 c 0.0306,-0.0314 0.35943,-0.3639 0.38867,-0.34375 0.0117,0.008 -0.0333,0.0457 -0.0234,0.0351 0.0506,-0.054 0.0978,-0.1103 0.14648,-0.16601 0.0234,-0.017 0.0421,-0.0443 0.0703,-0.0508 0.011,-0.003 -0.005,0.0424 0.002,0.0332 0.0454,-0.0637 0.0727,-0.13884 0.11719,-0.20313 0.0859,-0.12427 0.21914,-0.21797 0.31836,-0.33007 0.0449,-0.0351 0.0885,-0.0722 0.13476,-0.10547 0.0283,-0.0204 0.0581,-0.0397 0.0898,-0.0547 0.004,-0.002 2.6e-4,0.0116 0.004,0.01 0.11978,-0.10107 0.22354,-0.22435 0.37696,-0.2793 -0.005,0.0669 -0.007,0.0281 0.0976,-0.0742 0.0726,-0.0712 0.1379,-0.14634 0.19922,-0.22656 0.1346,-0.36523 0.28708,-0.68975 0.32422,-0.47071 0.004,-0.003 0.002,-6.7e-4 0.006,-0.004 9e-4,-0.001 9.5e-4,-0.003 0.002,-0.004 0.0344,-0.0446 0.0824,-0.0765 0.11719,-0.12109 0.056,-0.0841 0.072,-0.1093 0.16016,-0.21289 0.0159,-0.0185 -0.0559,0.0819 -0.041,0.0625 0.0754,-0.0983 0.12281,-0.18721 0.2207,-0.25782 0.0532,-0.0859 0.10421,-0.17587 0.15821,-0.26367 -0.52996,-0.53065 -1.06792,-1.05096 -1.62305,-1.54687 -5.80728,-5.17187 -12.10026,-9.81901 -17.91797,-14.9961 z m 15.82813,20.51954 c -0.0278,0.0292 -0.0627,0.057 -0.0781,0.0898 -0.0253,0.0536 -0.0359,0.2299 -0.0117,0.17578 0.0377,-0.0855 0.0608,-0.17678 0.0899,-0.26562 z"
       inkscape:connector-curvature="0" />
    <path
       id="path908"
       transform="scale(0.26458333)"
       style="fill:#000000;fill-opacity:1;fill-rule:nonzero;stroke:none;stroke-width:1.33333325"
       d="m 165.18164,206.79883 -2.35937,2.42578 0.89648,0.87109 c 6.34473,6.16521 11.17074,13.62231 15.5918,21.19532 0.0573,-0.0619 0.099,-0.10061 0.14453,-0.13477 0.0569,-0.19813 0.12668,-0.39765 0.25,-0.56055 0.0129,-0.017 0.0463,-0.0364 0.0664,-0.0547 -2e-4,-0.008 -0.004,-0.0155 -0.004,-0.0234 0.006,-0.18989 0.0574,-0.37665 0.0859,-0.56446 0.41545,-0.53072 0.23434,-0.39328 0.76171,-0.73437 0.01,-0.006 -0.0201,0.0408 -0.01,0.0352 0.0576,-0.0302 0.0978,-0.13163 0.16015,-0.11329 0.0227,0.007 0.003,0.0268 -0.0176,0.0469 0.047,-0.0443 0.0942,-0.0881 0.14062,-0.13281 -2.60329,-4.4173 -5.3492,-8.78977 -8.49805,-12.89649 0.33336,0.271 0.66604,0.54102 0.99415,0.80664 2.97395,2.41146 6.05279,4.91147 8.94335,7.48438 0.5579,0.50065 1.10435,1.0228 1.63672,1.55859 0.0914,-0.18817 0.17204,-0.29136 0.19727,-0.14258 0.004,-0.003 0.002,-6.7e-4 0.006,-0.004 8.9e-4,-0.001 9.5e-4,-0.003 0.002,-0.004 0.0344,-0.0446 0.0824,-0.0765 0.11719,-0.12109 0.056,-0.0841 0.072,-0.1093 0.16016,-0.21289 0.0159,-0.0185 -0.0559,0.0819 -0.041,0.0625 0.0754,-0.0983 0.12281,-0.18721 0.2207,-0.25782 0.1245,-0.20105 0.23363,-0.4261 0.41016,-0.58789 0.0764,-0.0604 0.11876,-0.19906 0.16211,-0.27148 0,0 0.002,-0.002 0.002,-0.002 0.0812,-0.16871 0.17383,-0.32612 0.29688,-0.45508 -0.49226,-0.48617 -0.99048,-0.96728 -1.50391,-1.42774 -2.93752,-2.61456 -6.03711,-5.13022 -9.03711,-7.5625 -2.95309,-2.39584 -6.00458,-4.86915 -8.88476,-7.43164 z m 15.80664,22.42187 c -0.002,0.0424 -0.0176,0.11244 -0.006,0.0859 0.009,-0.0196 0.0141,-0.0404 0.0215,-0.0605 -0.005,-0.009 -0.0106,-0.0168 -0.0156,-0.0254 z"
       inkscape:connector-curvature="0" />
    <path
       style="fill:#a9d259;fill-opacity:1;fill-rule:nonzero;stroke:none;stroke-width:0.35277775"
       d="m 43.335142,53.826554 c -0.14193,0.34865 0.0799,1.07487 0.38585,1.34497 l -0.17363,0.17914 c -0.0537,-0.0524 -0.10886,-0.10748 -0.16399,-0.15985 -0.74,-0.70004 -1.63159,-0.20257 -2.39227,-0.003 -2.91455,0.76206 -5.82083,1.24575 -8.8663,0.93431 -3.6394,-0.37209 -6.44921,-2.17043 -8.64581,-4.90308 -1.79558,-2.2338 -3.0744,-4.82176 -3.81716,-7.61366 -0.74828,-2.80293 -1.37391,-5.63894 -2.09049,-8.45014 -0.72209,-2.83048 -1.49103,-5.65271 -2.23517,-8.47906 -0.0372,-0.13918 -0.0427,-0.28526 -0.0565,-0.3831 1.23058,0.95774 2.39503,2.03674 3.71794,2.86081 2.7175,1.69223 5.60724,3.03168 8.672,4.02249 2.69682,0.87506 5.32887,1.95682 7.97608,2.98346 2.60449,1.0101 5.14284,2.13871 7.2471,4.06107 1.63849,1.49656 2.92971,3.18878 3.19567,5.44739 0.23703,2.02434 -0.38447,3.90398 -1.30913,5.67476 -0.44373,0.84887 -1.08176,1.60541 -1.44419,2.48322"
       id="path910"
       inkscape:connector-curvature="0" />
    <path
       style="fill:#000000;fill-opacity:1;fill-rule:nonzero;stroke:none;stroke-width:0.35277775"
       d="m 15.797812,27.132584 c 0.20808,0.78685 0.41892,1.57371 0.62838,2.3592 0.48645,1.82865 0.99081,3.71794 1.46624,5.58105 0.30454,1.19614 0.59669,2.41432 0.87919,3.59117 0.38309,1.59577 0.77996,3.24528 1.20853,4.8562 0.74552,2.79604 2.00918,5.31647 3.75654,7.4924 2.30959,2.87321 5.06428,4.43728 8.42257,4.78179 1.55166,0.15848 3.15295,0.11713 4.89203,-0.12816 1.16858,-0.16398 2.42948,-0.42443 3.85713,-0.79788 0.13091,-0.0345 0.26734,-0.0786 0.40514,-0.12402 0.27561,-0.0896 0.55949,-0.18053 0.85714,-0.22325 0.31833,-0.0441 0.60358,-0.022 0.86128,0.0689 -0.0868,-0.31281 -0.10336,-0.64079 -0.003,-0.88883 0.22324,-0.54157 0.54156,-1.03216 0.85024,-1.50896 0.21084,-0.32521 0.42857,-0.66283 0.60634,-1.00183 1.06798,-2.04639 1.47312,-3.78823 1.27331,-5.48321 -0.22049,-1.87552 -1.17409,-3.49195 -3.08819,-5.24068 -2.1539,-1.96784 -4.81765,-3.09508 -7.14516,-3.9977 -0.55121,-0.21497 -1.10243,-0.43132 -1.65364,-0.64768 -2.05465,-0.80615 -4.17959,-1.63986 -6.30453,-2.32888 -3.07716,-0.99632 -6.01927,-2.36058 -8.74502,-4.05694 -0.9288,-0.57878 -1.78457,-1.28296 -2.61277,-1.96509 -0.13504,-0.11162 -0.27285,-0.22462 -0.41203,-0.33761 m 27.75646,28.68524 -0.28526,-0.27699 c -0.0358,-0.0358 -0.073,-0.073 -0.11024,-0.10749 -0.24529,-0.23151 -0.51952,-0.31005 -0.89573,-0.25631 -0.23978,0.0331 -0.49747,0.11713 -0.74551,0.19706 -0.15021,0.0482 -0.29904,0.0965 -0.44236,0.13367 -1.45107,0.38034 -2.73816,0.6463 -3.93154,0.81304 -1.79283,0.25218 -3.44509,0.2949 -5.05189,0.13091 -3.49332,-0.35691 -6.47815,-2.04776 -8.87043,-5.02432 -1.80523,-2.24758 -3.11023,-4.8507 -3.87918,-7.73769 -0.4327,-1.61781 -0.82957,-3.27146 -1.21405,-4.86998 -0.28112,-1.17685 -0.57326,-2.39228 -0.87643,-3.5829 -0.47542,-1.86036 -0.9784,-3.74827 -1.46485,-5.57417 -0.2577,-0.96738 -0.51539,-1.93476 -0.77032,-2.90215 -0.0331,-0.12264 -0.0455,-0.24253 -0.0551,-0.33761 -0.003,-0.0303 -0.006,-0.0593 -0.01,-0.0841 l -0.113,-0.80891 0.64492,0.5016 c 0.38723,0.30179 0.77308,0.62012 1.14653,0.92742 0.81166,0.66835 1.65089,1.35875 2.54248,1.91548 2.67891,1.66742 5.57278,3.00825 8.59896,3.98804 2.14422,0.69591 4.2788,1.53375 6.34173,2.34404 0.54983,0.21497 1.10105,0.43133 1.65089,0.64492 2.384,0.92466 5.11528,2.08222 7.35183,4.12723 2.04088,1.8631 3.05924,3.60632 3.3004,5.65133 0.21498,1.83417 -0.21221,3.69728 -1.34358,5.86631 -0.19293,0.36793 -0.41893,0.71658 -0.63804,1.05558 -0.30592,0.47129 -0.59393,0.91639 -0.79375,1.40008 -0.0772,0.19155 0.0786,0.77722 0.29904,0.9729 l 0.25907,0.23013 z m 0,0"
       id="path912"
       inkscape:connector-curvature="0" />
    <path
       id="path914"
       transform="scale(0.26458333)"
       style="fill:#000000;fill-opacity:1;fill-rule:nonzero;stroke:none;stroke-width:1.33333325"
       d="m 54.615234,92.578125 c 0.312567,2.203124 0.354153,3.406917 0.65625,4.537109 2.744807,10.369816 5.629586,20.708966 8.291016,31.099606 2.744806,10.71353 5.353503,21.45705 7.884766,32.22266 2.734374,11.68229 7.338533,22.43817 14.40625,32.22461 8.520831,11.79689 19.324224,19.33333 34.105464,21.03125 12.59898,1.44272 24.64454,-0.72982 36.69141,-3.91211 1.88542,-0.50003 5.08855,-0.56243 5.98438,0.54687 5.63513,6.9643 11.14892,14.08515 16.11914,21.53126 0.10718,-0.18387 0.21363,-0.31821 0.39843,-0.42774 0.0204,-0.0117 0.0396,-0.0401 0.0625,-0.0352 0.0121,0.002 -0.006,0.0263 -0.0117,0.0352 l 0.004,-0.004 c 0.0214,-0.0312 0.0349,-0.0676 0.0606,-0.0957 0.0855,-0.0936 0.13765,-0.14986 0.19336,-0.18945 0.0562,-0.19342 0.12378,-0.38788 0.24414,-0.54688 0.0129,-0.017 0.0463,-0.0364 0.0664,-0.0547 -2e-4,-0.008 -0.004,-0.0155 -0.004,-0.0234 0.006,-0.18989 0.0574,-0.37665 0.0859,-0.56446 0.0428,-0.0546 0.0388,-0.0481 0.0703,-0.0898 -4.36352,-7.41768 -9.08705,-14.59442 -15.33594,-20.66406 -0.20296,-0.19805 -0.41077,-0.40558 -0.61914,-0.60352 -2.79685,-2.64582 -6.166,-0.76612 -9.04102,-0.0117 -11.01562,2.88023 -22.00069,4.70835 -33.50585,3.53125 -13.7556,-1.4062 -24.379535,-8.20312 -32.681646,-18.53125 C 81.95379,185.14128 77.119782,175.36066 74.3125,164.80859 71.484355,154.21484 69.120443,143.4961 66.412109,132.87109 63.68295,122.17322 60.775388,111.50649 57.962891,100.82422 57.822292,100.29818 57.802157,99.744789 57.75,99.375 c 4.651011,3.6198 9.05276,7.69855 14.052734,10.81836 10.270867,6.39061 21.192076,11.45253 32.775386,15.19726 10.19271,3.30732 20.14129,7.39713 30.14649,11.27735 9.84374,3.8177 19.43752,8.07747 27.39062,15.35351 6.18751,5.65108 11.06775,12.05273 12.07813,20.58399 0.89586,7.65105 -1.45444,14.75455 -4.94922,21.44726 -1.67709,3.20833 -4.08722,6.06706 -5.45703,9.38477 -0.53643,1.31773 0.30598,4.06382 1.45703,5.08984 5.81771,5.17187 12.11065,9.81648 17.91797,14.98828 0.5551,0.49592 1.09308,1.0176 1.62305,1.54883 0.0725,-0.11783 0.15079,-0.23151 0.25195,-0.32422 0.0764,-0.0604 0.11876,-0.19906 0.16211,-0.27148 0,0 0.002,-0.002 0.002,-0.002 0.10379,-0.21556 0.22711,-0.42009 0.40039,-0.56055 0.005,-0.002 0.0103,-0.005 0.0156,-0.008 0.012,-0.0259 0.0367,-0.0798 0.041,-0.0879 0.0177,-0.0221 0.0352,-0.0443 0.0527,-0.0664 0.0267,-0.17711 0.0486,-0.35172 0.0762,-0.5293 -0.86978,-0.81773 -1.73956,-1.61981 -2.65625,-2.375 -5.63543,-4.71352 -11.3646,-9.30728 -16.95313,-14.0625 -0.52603,-0.44791 -0.82421,-1.96874 -0.48046,-2.53125 5.20312,-8.45831 10.06249,-16.88019 10.17187,-27.375 0.0884,-8.39062 -2.56639,-15.48438 -7.83203,-21.71875 -8.55209,-10.12497 -20.10482,-15.55274 -32.13086,-20.16211 -9.97398,-3.82291 -20.01044,-7.48435 -29.95313,-11.375 C 98.276095,120.62588 90.599606,117.6198 83.115234,114.21875 75.771499,110.89583 68.921888,106.64713 63.125,100.91797 60.536477,98.355481 57.92251,95.817709 54.615234,92.578125 Z"
       inkscape:connector-curvature="0" />
    <path
       id="path916"
       transform="scale(0.26458333)"
       style="fill:#000000;fill-opacity:1;fill-rule:nonzero;stroke:none;stroke-width:1.33333325"
       d="m 52.871094,89.115234 0.509765,3.636719 c 0.109229,0.786482 0.182347,1.436827 0.25,2.009766 0.119811,1.041638 0.212882,1.864605 0.431641,2.671875 1.062501,4.010416 2.141283,8.016276 3.224609,12.021486 1.687522,6.2448 3.432958,12.70183 5.06836,19.0664 2.54691,9.96356 5.124978,20.49611 7.875,32.19922 2.90623,12.40105 7.686201,23.08855 14.613281,32.67188 9.281272,12.85935 20.7194,19.90626 34.97461,21.54687 6.4323,0.7344 13.09897,0.59312 20.39062,-0.42773 5.02084,-0.70832 10.34894,-1.82879 16.76563,-3.52149 0.29178,-0.0782 0.63474,-0.1451 0.99414,-0.19726 2.03127,-0.2812 3.46485,0.0516 3.69922,0.32226 4.73475,5.85272 10.55107,13.51722 15.98409,21.68639 0.0204,-0.0134 0.30776,0.0277 0.32846,0.0148 0.0156,-0.01 0.0333,-0.014 0.0488,-0.0254 0.0788,-0.10894 0.15531,-0.21847 0.24414,-0.32032 0.12567,-0.14411 0.27312,-0.25992 0.35937,-0.4375 0.0797,-0.0629 0.0478,-0.0495 0.11133,-0.16015 0.11029,-0.19212 0.21815,-0.32877 0.4082,-0.44141 0.0204,-0.0117 0.0396,-0.0401 0.0625,-0.0352 0.0121,0.002 -0.006,0.0263 -0.0117,0.0352 l 0.004,-0.004 c 0.0214,-0.0312 0.0349,-0.0676 0.0606,-0.0957 0.0855,-0.0936 0.13765,-0.14986 0.19336,-0.18945 0.0562,-0.19342 0.12378,-0.38788 0.24414,-0.54688 0.0129,-0.017 0.0463,-0.0364 0.0664,-0.0547 -2e-4,-0.008 -0.004,-0.0155 -0.004,-0.0234 0.006,-0.18989 0.0574,-0.37665 0.0859,-0.56446 0.41545,-0.53072 0.23434,-0.39328 0.76171,-0.73437 0.01,-0.006 -0.0201,0.0408 -0.01,0.0352 0.0576,-0.0302 0.0978,-0.13163 0.16015,-0.11329 0.0227,0.007 0.003,0.0268 -0.0176,0.0469 0.046,-0.0433 0.0913,-0.0871 0.13672,-0.13086 -2.60243,-4.41791 -5.34615,-8.7908 -8.49415,-12.89844 0.33336,0.271 0.66604,0.54102 0.99415,0.80664 2.97395,2.41146 6.05279,4.91147 8.94335,7.48438 0.56108,0.49954 1.10311,1.02759 1.63477,1.5625 0.0921,-0.1904 0.17384,-0.29614 0.19922,-0.14649 0.004,-0.003 0.002,-6.7e-4 0.006,-0.004 8.9e-4,-0.001 9.5e-4,-0.003 0.002,-0.004 0.0344,-0.0446 0.0824,-0.0765 0.11719,-0.12109 0.056,-0.0841 0.072,-0.1093 0.16016,-0.21289 0.0159,-0.0185 -0.0559,0.0819 -0.041,0.0625 0.0754,-0.0983 0.12281,-0.18721 0.2207,-0.25782 0.1245,-0.20105 0.23363,-0.4261 0.41016,-0.58789 0.0764,-0.0604 0.11876,-0.19906 0.16211,-0.27148 l 0.002,-0.002 c 0.10379,-0.21556 0.22711,-0.42009 0.40039,-0.56055 0.005,-0.002 0.0103,-0.005 0.0156,-0.008 0.012,-0.0259 0.0367,-0.0798 0.041,-0.0879 0.0445,-0.0557 0.0878,-0.11235 0.13477,-0.16602 0.017,-0.0193 -0.0607,0.0849 -0.0449,0.0644 0.0426,-0.0551 0.0805,-0.11632 0.125,-0.16992 0.0246,-0.0295 0.0643,-0.0421 0.0879,-0.0723 0.0129,-0.0166 0.0207,-0.0363 0.0312,-0.0547 0.0189,-0.0383 0.17923,-0.3675 0.25195,-0.39063 0.0359,-0.0113 -0.0604,0.13875 -0.0469,0.10352 0.0499,-0.13004 0.0609,-0.13744 0.0684,-0.11133 0.002,-0.0265 -0.005,-0.0542 0.002,-0.0801 0.0394,-0.14078 0.18246,-0.20897 0.32617,-0.24804 -0.0314,-0.0476 -0.0704,-0.0903 -0.0937,-0.14258 -0.0261,-0.0586 0.0638,-0.11136 0.10547,-0.16016 0.0158,-0.0184 0.042,-0.0356 0.0606,-0.0547 l -0.0195,-0.0195 c -0.98437,-0.92708 -1.82419,-1.69337 -2.71484,-2.42773 -2.34894,-1.96876 -4.71223,-3.91144 -7.08203,-5.85938 -3.25002,-2.67186 -6.61003,-5.43166 -9.81836,-8.15039 -0.1406,-0.18217 -0.26518,-0.7806 -0.22852,-1.04101 5.58331,-9.07291 10.2083,-17.44334 10.3125,-27.94336 0.0937,-8.58852 -2.56251,-15.95768 -8.125,-22.54102 -8.79685,-10.42186 -20.88615,-16.0215 -32.63085,-20.52148 -4.1198,-1.57293 -8.25005,-3.12563 -12.375,-4.67774 -5.77081,-2.16665 -11.73959,-4.41015 -17.57813,-6.6914 -7.479156,-2.9167 -15.20768,-5.93883 -22.775391,-9.3711 -7.979149,-3.61458 -14.40105,-7.88473 -19.625,-13.05664 -1.7969,-1.781226 -3.609409,-3.546859 -5.65625,-5.546871 z m 3.435547,6.867188 0.296875,0.285156 c 1.135445,1.114583 2.199186,2.151691 3.230468,3.16211 -0.437518,-0.348851 -0.874982,-0.697268 -1.3125,-1.041016 l -2.042968,-1.589844 v -0.0039 c -0.06765,-0.255118 -0.119718,-0.520834 -0.171875,-0.8125 z m 3.402343,6.566408 c 0.526035,0.42705 1.048169,0.85352 1.558594,1.27539 3.130205,2.57813 6.369791,5.24022 9.875,7.42773 10.302085,6.41144 21.42057,11.56642 33.050782,15.33203 8.03127,2.60417 16.06252,5.75587 23.82812,8.80274 2.08336,0.81774 4.16665,1.63478 6.25,2.44726 8.79689,3.41148 18.87043,7.67191 27.00586,15.10938 7.23436,6.60937 10.83857,12.72005 11.67188,19.80859 0.75522,6.40626 -0.776,12.98827 -4.8125,20.72266 -0.67185,1.28644 -1.49414,2.55793 -2.29102,3.78711 -1.16666,1.79686 -2.3711,3.66146 -3.21484,5.70312 -0.38022,0.93752 -0.31736,2.18228 0.0117,3.35938 -0.97395,-0.34394 -2.05272,-0.42644 -3.25586,-0.25977 h -0.002 c -1.12498,0.1561 -2.19661,0.50518 -3.23829,0.84375 -0.52603,0.17197 -1.03717,0.33866 -1.5371,0.46875 -5.39063,1.40625 -10.1569,2.39586 -14.56836,3.01563 h -0.004 c -6.5729,0.92708 -12.61852,1.08335 -18.48828,0.48437 -12.69279,-1.30208 -23.104827,-7.21484 -31.833986,-18.07422 -6.604196,-8.21877 -11.379552,-17.74869 -14.197266,-28.3164 -1.619792,-6.08852 -3.120422,-12.32421 -4.568359,-18.35547 -1.067679,-4.45315 -2.171211,-9.05142 -3.322266,-13.57227 -1.796863,-7.04167 -3.704417,-14.18163 -5.542969,-21.08789 -0.796875,-2.97396 -1.588556,-5.94795 -2.375,-8.92187 z M 165.53711,211.93945 c 3.70836,3.91665 6.88933,8.28127 9.80078,12.8125 -3.37497,-4.67705 -6.77992,-9.04166 -9.80078,-12.8125 z m 21.27148,10.51953 c -0.0229,0.005 -0.0489,0.0118 -0.0645,0.0137 -0.0515,0.006 -0.0868,0.0669 -0.10547,0.11523 -0.0113,0.0293 -0.0142,0.0607 -0.0195,0.0918 0.0404,-0.009 0.0794,-0.0198 0.11719,-0.0273 0.0456,-0.0432 0.091,-0.097 0.13672,-0.13281 z m -0.0781,0.19922 c -0.0236,0.009 -0.0527,0.0186 -0.11328,0.0371 -9.6e-4,0.006 -0.003,0.0116 -0.004,0.0176 0.008,0.0121 0.0159,0.0246 0.0234,0.0371 0.031,-0.0333 0.0626,-0.062 0.0937,-0.0918 z m -0.11719,0.0547 c -0.003,-0.004 -0.007,-0.008 -0.01,-0.0117 -0.0182,0.006 -0.0265,0.004 -0.0371,0.0117 -0.12475,0.0872 -0.13595,0.16634 -0.13282,0.26172 0.0345,-0.0405 0.09,-0.10685 0.11329,-0.13477 0.0171,-0.0206 0.0355,-0.0314 0.0527,-0.0508 l -0.002,-0.002 c 0.005,-0.0249 0.0118,-0.049 0.0156,-0.0742 z m -5.625,6.51563 c -0.001,0.036 -0.0165,0.10221 -0.006,0.0781 0.008,-0.0177 0.0128,-0.0366 0.0195,-0.0547 -0.005,-0.008 -0.009,-0.0156 -0.0137,-0.0234 z"
       inkscape:connector-curvature="0"
       sodipodi:nodetypes="cccccccccccccccccccccccccccccccccccccccccccccccccccccccccccccccccccccccccccccccccccccccccccccccccccccccccccccccccccccccccccccccccccccccccccccc" />
    <path
       id="path918"
       transform="scale(0.26458333)"
       style="fill:#a8d157;fill-opacity:1;fill-rule:nonzero;stroke:none;stroke-width:1.33333325"
       d="m 165.24414,208.52148 -0.65625,0.67774 c 6.24889,6.06964 10.97242,13.24638 15.33594,20.66406 0.27488,-0.36356 0.21834,-0.33856 0.6914,-0.64453 0.01,-0.006 -0.0201,0.0408 -0.01,0.0352 0.0576,-0.0302 0.0978,-0.13163 0.16015,-0.11329 0.0227,0.007 0.003,0.0268 -0.0176,0.0469 0.0893,-0.0841 0.17634,-0.16983 0.26562,-0.25391 0.053,-0.0591 0.10828,-0.12346 0.1543,-0.16797 0.0118,-0.0373 0.0245,-0.0743 0.0371,-0.11132 0.61789,-0.42378 0.50199,-0.38087 0.60937,-0.39453 l 0.10157,-0.16797 c 0.0306,-0.0314 0.35943,-0.3639 0.38867,-0.34375 0.0117,0.008 -0.0333,0.0457 -0.0234,0.0351 0.0506,-0.054 0.0978,-0.1103 0.14648,-0.16601 0.0234,-0.017 0.0421,-0.0443 0.0703,-0.0508 0.011,-0.003 -0.005,0.0424 0.002,0.0332 0.0454,-0.0637 0.0727,-0.13884 0.11719,-0.20313 0.0859,-0.12427 0.21914,-0.21797 0.31836,-0.33007 0.0449,-0.0351 0.0885,-0.0722 0.13476,-0.10547 0.0283,-0.0204 0.0581,-0.0397 0.0898,-0.0547 0.004,-0.002 2.6e-4,0.0116 0.004,0.01 0.11978,-0.10107 0.22354,-0.22435 0.37696,-0.2793 -0.005,0.0669 -0.007,0.0281 0.0976,-0.0742 0.0726,-0.0712 0.1379,-0.14634 0.19922,-0.22656 0.1346,-0.36523 0.28708,-0.68975 0.32422,-0.47071 0.004,-0.003 0.002,-6.7e-4 0.006,-0.004 9e-4,-0.001 9.5e-4,-0.003 0.002,-0.004 0.0344,-0.0446 0.0824,-0.0765 0.11719,-0.12109 0.056,-0.0841 0.072,-0.1093 0.16016,-0.21289 0.0159,-0.0185 -0.0559,0.0819 -0.041,0.0625 0.0754,-0.0983 0.12281,-0.18721 0.2207,-0.25782 0.0532,-0.0859 0.10421,-0.17587 0.15821,-0.26367 -0.52996,-0.53065 -1.06792,-1.05096 -1.62305,-1.54687 -5.80728,-5.17187 -12.10026,-9.81901 -17.91797,-14.9961 z m 15.82813,20.51954 c -0.0278,0.0292 -0.0627,0.057 -0.0781,0.0898 -0.0253,0.0536 -0.0359,0.2299 -0.0117,0.17578 0.0377,-0.0855 0.0608,-0.17678 0.0899,-0.26562 z"
       inkscape:connector-curvature="0" />
    <path
       style="fill:#a9d259;fill-opacity:1;fill-rule:nonzero;stroke:none;stroke-width:0.35277775"
       d="m 43.335142,53.826554 c -0.14193,0.34865 0.0799,1.07487 0.38585,1.34497 l -0.17363,0.17914 c -0.0537,-0.0524 -0.10886,-0.10748 -0.16399,-0.15985 -0.74,-0.70004 -1.63159,-0.20257 -2.39227,-0.003 -2.91455,0.76206 -5.82083,1.24575 -8.8663,0.93431 -3.6394,-0.37209 -6.44921,-2.17043 -8.64581,-4.90308 -1.79558,-2.2338 -3.0744,-4.82176 -3.81716,-7.61366 -0.74828,-2.80293 -1.37391,-5.63894 -2.09049,-8.45014 -0.72209,-2.83048 -1.49103,-5.65271 -2.23517,-8.47906 -0.0372,-0.13918 -0.0427,-0.28526 -0.0565,-0.3831 1.23058,0.95774 2.39503,2.03674 3.71794,2.86081 2.7175,1.69223 5.60724,3.03168 8.672,4.02249 2.69682,0.87506 5.32887,1.95682 7.97608,2.98346 2.60449,1.0101 5.14284,2.13871 7.2471,4.06107 1.63849,1.49656 2.92971,3.18878 3.19567,5.44739 0.23703,2.02434 -0.38447,3.90398 -1.30913,5.67476 -0.44373,0.84887 -1.08176,1.60541 -1.44419,2.48322"
       id="path920"
       inkscape:connector-curvature="0" />
    <path
       id="path922"
       transform="scale(0.26458333)"
       style="fill:#000000;fill-opacity:1;fill-rule:nonzero;stroke:none;stroke-width:1.33333325"
       d="m 54.615234,92.578125 c 0.312567,2.203124 0.354153,3.406917 0.65625,4.537109 2.744807,10.369816 5.629586,20.708966 8.291016,31.099606 2.744806,10.71353 5.353503,21.45705 7.884766,32.22266 2.734374,11.68229 7.338533,22.43817 14.40625,32.22461 8.520831,11.79689 19.324224,19.33333 34.105464,21.03125 12.59898,1.44272 24.64454,-0.72982 36.69141,-3.91211 1.88542,-0.50003 5.08855,-0.56243 5.98438,0.54687 5.63513,6.9643 11.14892,14.08515 16.11914,21.53126 0.10718,-0.18387 0.21363,-0.31821 0.39843,-0.42774 0.0204,-0.0117 0.0396,-0.0401 0.0625,-0.0352 0.0121,0.002 -0.006,0.0263 -0.0117,0.0352 l 0.004,-0.004 c 0.0214,-0.0312 0.0349,-0.0676 0.0606,-0.0957 0.0855,-0.0936 0.13765,-0.14986 0.19336,-0.18945 0.0562,-0.19342 0.12378,-0.38788 0.24414,-0.54688 0.0129,-0.017 0.0463,-0.0364 0.0664,-0.0547 -2e-4,-0.008 -0.004,-0.0155 -0.004,-0.0234 0.006,-0.18989 0.0574,-0.37665 0.0859,-0.56446 0.0428,-0.0546 0.0388,-0.0481 0.0703,-0.0898 -4.36352,-7.41768 -9.08705,-14.59442 -15.33594,-20.66406 -0.20296,-0.19805 -0.41077,-0.40558 -0.61914,-0.60352 -2.79685,-2.64582 -6.166,-0.76612 -9.04102,-0.0117 -11.01562,2.88023 -22.00069,4.70835 -33.50585,3.53125 -13.7556,-1.4062 -24.379535,-8.20312 -32.681646,-18.53125 C 81.95379,185.14128 77.119782,175.36066 74.3125,164.80859 71.484355,154.21484 69.120443,143.4961 66.412109,132.87109 63.68295,122.17322 60.775388,111.50649 57.962891,100.82422 57.822292,100.29818 57.802157,99.744789 57.75,99.375 c 4.651011,3.6198 9.05276,7.69855 14.052734,10.81836 10.270867,6.39061 21.192076,11.45253 32.775386,15.19726 10.19271,3.30732 20.14129,7.39713 30.14649,11.27735 9.84374,3.8177 19.43752,8.07747 27.39062,15.35351 6.18751,5.65108 11.06775,12.05273 12.07813,20.58399 0.89586,7.65105 -1.45444,14.75455 -4.94922,21.44726 -1.67709,3.20833 -4.08722,6.06706 -5.45703,9.38477 -0.53643,1.31773 0.30598,4.06382 1.45703,5.08984 5.81771,5.17187 12.11065,9.81648 17.91797,14.98828 0.5551,0.49592 1.09308,1.0176 1.62305,1.54883 0.0725,-0.11783 0.15079,-0.23151 0.25195,-0.32422 0.0764,-0.0604 0.11876,-0.19906 0.16211,-0.27148 0,0 0.002,-0.002 0.002,-0.002 0.10379,-0.21556 0.22711,-0.42009 0.40039,-0.56055 0.005,-0.002 0.0103,-0.005 0.0156,-0.008 0.012,-0.0259 0.0367,-0.0798 0.041,-0.0879 0.0177,-0.0221 0.0352,-0.0443 0.0527,-0.0664 0.0267,-0.17711 0.0486,-0.35172 0.0762,-0.5293 -0.86978,-0.81773 -1.73956,-1.61981 -2.65625,-2.375 -5.63543,-4.71352 -11.3646,-9.30728 -16.95313,-14.0625 -0.52603,-0.44791 -0.82421,-1.96874 -0.48046,-2.53125 5.20312,-8.45831 10.06249,-16.88019 10.17187,-27.375 0.0884,-8.39062 -2.56639,-15.48438 -7.83203,-21.71875 -8.55209,-10.12497 -20.10482,-15.55274 -32.13086,-20.16211 -9.97398,-3.82291 -20.01044,-7.48435 -29.95313,-11.375 C 98.276095,120.62588 90.599606,117.6198 83.115234,114.21875 75.771499,110.89583 68.921888,106.64713 63.125,100.91797 60.536477,98.355481 57.92251,95.817709 54.615234,92.578125 Z"
       inkscape:connector-curvature="0" />
    <path
       style="fill:#000000;fill-opacity:1;fill-rule:nonzero;stroke:none;stroke-width:0.35277775"
       d="m 31.770632,44.223194 c 2.02158,-0.28387 1.81763,-1.72806 1.73632,-2.30408 -0.17639,-1.26366 -0.9536,-1.6881 -2.63205,-1.45245 l -2.14698,0.30179 0.53467,3.80752 z m -1.53652,7.26226 -2.70647,0.38034 -1.82038,-12.95356 5.91729,-0.83234 c 2.50803,-0.35277 4.24987,1.04042 4.60679,3.58428 0.16536,1.17271 -0.0689,4.22369 -3.55121,4.71289 l -3.10334,0.43546 z m 0,0"
       id="path924"
       inkscape:connector-curvature="0" />
    <path
       style="fill:none;stroke:#000000;stroke-width:0.66500002;stroke-linecap:round;stroke-linejoin:miter;stroke-miterlimit:4;stroke-dasharray:none;stroke-opacity:1"
       d="m 49.156172,59.058862 -1.892903,2.333255"
       id="path1812"
       inkscape:connector-curvature="0"
       sodipodi:nodetypes="cc" />
  </g>
</svg>
