<?xml version="1.0" encoding="UTF-8" standalone="no"?>
<!-- Created with Inkscape (http://www.inkscape.org/) -->

<svg
   xmlns:dc="http://purl.org/dc/elements/1.1/"
   xmlns:cc="http://creativecommons.org/ns#"
   xmlns:rdf="http://www.w3.org/1999/02/22-rdf-syntax-ns#"
   xmlns:svg="http://www.w3.org/2000/svg"
   xmlns="http://www.w3.org/2000/svg"
   xmlns:sodipodi="http://sodipodi.sourceforge.net/DTD/sodipodi-0.dtd"
   xmlns:inkscape="http://www.inkscape.org/namespaces/inkscape"
   width="33.131821mm"
   height="45.777122mm"
   viewBox="0 0 33.131821 45.777122"
   version="1.1"
   id="svg1895"
   inkscape:version="0.92.2 (5c3e80d, 2017-08-06)"
   sodipodi:docname="reality.svg">
  <defs
     id="defs1889" />
  <sodipodi:namedview
     id="base"
     pagecolor="#ffffff"
     bordercolor="#666666"
     borderopacity="1.0"
     inkscape:pageopacity="0.0"
     inkscape:pageshadow="2"
     inkscape:zoom="0.98994949"
     inkscape:cx="477.65273"
     inkscape:cy="-31.729912"
     inkscape:document-units="mm"
     inkscape:current-layer="layer1"
     showgrid="false"
     fit-margin-top="0"
     fit-margin-left="0"
     fit-margin-right="0"
     fit-margin-bottom="0"
     inkscape:window-width="1920"
     inkscape:window-height="1052"
     inkscape:window-x="1920"
     inkscape:window-y="0"
     inkscape:window-maximized="1" />
  <metadata
     id="metadata1892">
    <rdf:RDF>
      <cc:Work
         rdf:about="">
        <dc:format>image/svg+xml</dc:format>
        <dc:type
           rdf:resource="http://purl.org/dc/dcmitype/StillImage" />
        <dc:title></dc:title>
      </cc:Work>
    </rdf:RDF>
  </metadata>
  <g
     inkscape:label="Layer 1"
     inkscape:groupmode="layer"
     id="layer1"
     transform="translate(-41.358308,-56.199103)">
    <path
       style="fill:#b5def0;fill-opacity:1;fill-rule:nonzero;stroke:none;stroke-width:0.35277775"
       d="m 72.670978,99.199427 c 0.132291,0.19568 0.264583,0.39274 0.392739,0.59118 -0.954979,-0.48507 -2.054653,0.0896 -2.506652,0.970143 -0.297656,-0.844743 -0.602202,-1.685343 -0.923284,-2.517683 -0.862653,-2.23655 -1.858972,-4.41523 -3.323832,-6.32106 l 0.24805,-0.21497 c 1.22508,1.43867 2.583821,2.76572 3.797874,4.21128 0.859896,1.02113 1.568207,2.17042 2.315105,3.28111"
       id="path938"
       inkscape:connector-curvature="0" />
    <path
       style="fill:#000000;fill-opacity:1;fill-rule:nonzero;stroke:none;stroke-width:0.35277775"
       d="m 70.656284,100.05106 c -0.259072,-0.722093 -0.489204,-1.344963 -0.715203,-1.927883 -0.537432,-1.39595 -1.189247,-2.949 -2.073945,-4.46622 0.09233,0.0992 0.184658,0.19844 0.275606,0.29628 0.655945,0.70418 1.333942,1.43316 1.960949,2.17868 0.662837,0.78686 1.2485,1.67432 1.814875,2.53283 0.136427,0.20671 0.272852,0.41204 0.410657,0.61874 -0.614606,0 -1.23059,0.29353 -1.672939,0.767573 m 2.685796,-0.439593 c -0.129535,-0.19982 -0.263202,-0.39826 -0.396875,-0.59669 -0.158475,-0.23703 -0.31695,-0.47543 -0.474043,-0.71521 -0.577401,-0.87367 -1.174092,-1.77767 -1.86173,-2.59347 -0.636654,-0.75792 -1.321541,-1.49241 -1.983,-2.20348 -0.606335,-0.65181 -1.233343,-1.32429 -1.817633,-2.00918 l -0.21635,-0.25356 -0.73449,0.63528 0.19017,0.24805 c 1.54202,2.0078 2.521807,4.28018 3.27697,6.23837 0.282498,0.73037 0.574643,1.52825 0.92053,2.509413 l 0.166741,0.47405 c 0.03721,0.0689 0.07442,0.13642 0.110244,0.20533 l 0.327975,-0.63804 c 0.293521,-0.5705 0.901237,-0.967383 1.478634,-0.967383 0.203949,0 0.401008,0.0469 0.58429,0.140563 l 1.091406,0.55397 z m 0,0"
       id="path940"
       inkscape:connector-curvature="0" />
    <path
       style="fill:#b5def0;fill-opacity:1;fill-rule:nonzero;stroke:none;stroke-width:0.35277775"
       d="m 66.309949,91.922007 c -0.0965,-0.12678 -0.19568,-0.25218 -0.29765,-0.37758 -0.59669,-0.73174 -1.53651,-0.38861 -2.29306,-0.29766 -3.01515,0.36381 -5.99171,0.46716 -8.9793,-0.3197 -1.67569,-0.43822 -3.20393,-1.1424 -4.53099,-2.18281 -1.46898,-1.15066 -2.58657,-2.63895 -3.50572,-4.28984 -1.1672,-2.09048 -1.89894,-4.32152 -2.37299,-6.64352 -0.23977,-1.1796 -0.38309,-2.37987 -0.51952,-3.57739 -0.25218,-2.22139 -0.47266,-4.448301 -0.69453,-6.673835 -0.18603,-1.830035 -0.34864,-3.661446 -0.53605,-5.488725 -0.11025,-1.052819 -0.24943,-2.100128 -0.40101,-3.367923 0.65594,0.78548 1.16168,1.413866 1.69498,2.020203 1.52549,1.73495 3.35415,3.117123 5.32061,4.288454 2.41984,1.437295 4.90306,2.771236 7.37664,4.116201 1.63022,0.886079 3.36241,1.595765 4.92097,2.586575 2.88699,1.83417 5.83462,3.66834 7.555783,6.79235 1.267796,2.3027 1.58337,4.74734 0.249428,7.12446 -0.881943,1.57234 -2.047761,2.9807 -2.987591,4.5241 -0.19981,0.33073 -0.15572,1.08038 0.091,1.37114 0.051,0.062 0.10336,0.12127 0.1571,0.18053 z m 0,0"
       id="path942"
       inkscape:connector-curvature="0" />
    <path
       style="fill:#000000;fill-opacity:1;fill-rule:nonzero;stroke:none;stroke-width:0.35277775"
       d="m 42.643529,59.780647 c 0.003,0.01792 0.004,0.03583 0.007,0.05375 0.0937,0.764811 0.18327,1.488281 0.25769,2.202102 0.0992,0.960494 0.19017,1.922364 0.2825,2.884237 0.0827,0.868162 0.16674,1.737705 0.25356,2.605867 l 0.0468,0.469914 c 0.20395,2.033983 0.41479,4.136874 0.64768,6.201174 0.14469,1.26366 0.28249,2.40329 0.51538,3.54707 0.51126,2.50389 1.27606,4.64536 2.33716,6.54843 1.00458,1.80248 2.12355,3.17363 3.42167,4.19061 1.23058,0.96463 2.71473,1.67846 4.40972,2.12357 1.49379,0.39274 3.07302,0.58428 4.82864,0.58428 1.20303,0 2.48323,-0.0868 4.02939,-0.27285 0.12953,-0.0165 0.26596,-0.04 0.40376,-0.0634 0.28388,-0.0482 0.5774,-0.0992 0.87506,-0.0992 0.35277,0 0.65318,0.0744 0.90674,0.226 -0.0413,-0.36104 0.008,-0.7469 0.16123,-0.9977 0.42444,-0.69866 0.89987,-1.37666 1.36013,-2.03123 0.560861,-0.80064 1.141015,-1.62746 1.621948,-2.4846 1.171332,-2.08635 1.087274,-4.37389 -0.250804,-6.802 -1.648134,-2.99172 -4.511694,-4.81073 -7.281554,-6.57048 l -0.16123,-0.10335 c -0.94671,-0.60083 -1.983,-1.10795 -2.98621,-1.601284 -0.63114,-0.30868 -1.28571,-0.629764 -1.91547,-0.972894 l -0.76894,-0.417548 c -2.18557,-1.186491 -4.44418,-2.412944 -6.6201,-3.705543 -2.21864,-1.320161 -3.98391,-2.745052 -5.39916,-4.3546 -0.32659,-0.369316 -0.63527,-0.741388 -0.98253,-1.160311 m 23.61819,32.61954 -0.21359,-0.27698 c -0.0951,-0.12403 -0.19293,-0.24667 -0.29215,-0.3707 -0.18879,-0.23151 -0.43546,-0.33486 -0.7965,-0.33486 -0.24116,0 -0.50712,0.0455 -0.76206,0.0896 -0.15021,0.0262 -0.29766,0.051 -0.43822,0.0675 -1.57234,0.19017 -2.87734,0.27837 -4.10793,0.27837 -1.8135,0 -3.44785,-0.19844 -4.99539,-0.60634 -1.78455,-0.46715 -3.35001,-1.22094 -4.65087,-2.24206 -1.36978,-1.0735 -2.54386,-2.50941 -3.59117,-4.39044 -1.09554,-1.96232 -1.8824,-4.1658 -2.40744,-6.73722 -0.2384,-1.16996 -0.37896,-2.32475 -0.52503,-3.60495 -0.23426,-2.06981 -0.44372,-4.174076 -0.64768,-6.209438 l -0.0468,-0.469914 c -0.0882,-0.869541 -0.17088,-1.739082 -0.25494,-2.610002 -0.0909,-0.959115 -0.18328,-1.919609 -0.28111,-2.878723 -0.0744,-0.706935 -0.16261,-1.42627 -0.2577,-2.188323 -0.0455,-0.37345 -0.0937,-0.760677 -0.14331,-1.172711 l -0.1323,-1.105189 0.7152,0.853006 c 0.2136,0.256318 0.41066,0.494718 0.59945,0.720714 0.39274,0.476801 0.73312,0.887459 1.09003,1.292599 1.36977,1.557186 3.08405,2.937979 5.24206,4.223689 2.16352,1.284333 4.41661,2.508031 6.59667,3.691763 l 0.76894,0.417547 c 0.61874,0.33624 1.26504,0.654569 1.89205,0.96187 1.01837,0.498849 2.07119,1.015612 3.04822,1.635732 l 0.16123,0.10335 c 2.84013,1.80385 5.77673,3.66972 7.507549,6.80889 1.453833,2.6417 1.537893,5.14697 0.24805,7.44554 -0.497475,0.88608 -1.087274,1.72668 -1.657782,2.5411 -0.453377,0.6463 -0.923287,1.31465 -1.336697,1.99402 -0.12953,0.2136 -0.0937,0.8034 0.0606,0.9853 0.0496,0.0606 0.0992,0.11576 0.14745,0.17088 l 0.22187,0.24942 z m 0,0"
       id="path944"
       inkscape:connector-curvature="0" />
    <path
       style="fill:#000000;fill-opacity:1;fill-rule:nonzero;stroke:none;stroke-width:0.35277775"
       d="m 73.889162,100.07173 c -0.25907,-0.394123 -0.566375,-0.777213 -0.825445,-1.156173 -0.853006,-1.24575 -1.697741,-2.50665 -2.658237,-3.66972 -1.145148,-1.38217 -2.417077,-2.66099 -3.607701,-4.00596 -0.15159,-0.17225 -0.28939,-0.57739 -0.19844,-0.70555 0.50436,-0.71245 1.09968,-1.35737 1.635732,-2.04777 2.957269,-3.80752 3.124015,-8.42532 -0.173632,-12.22457 -1.88516,-2.17041 -4.2292,-3.67661 -6.67659,-5.06429 -2.45842,-1.393198 -4.97197,-2.688556 -7.43866,-4.072104 -1.92511,-1.077627 -3.86126,-2.146984 -5.70921,-3.351389 -1.73219,-1.129993 -3.34587,-2.440506 -4.59851,-4.135494 -0.57327,-0.778591 -1.18925,-1.528244 -1.93339,-2.480469 0,0.607717 -0.0386,0.977029 0.005,1.338076 0.3955,3.359658 0.82131,6.715178 1.20027,10.076215 0.31971,2.823595 0.53331,5.659605 0.89022,8.477695 0.40101,3.17224 1.42627,6.15293 3.17913,8.84286 1.76665,2.71061 4.15616,4.54478 7.35735,5.37298 3.25079,0.8406 6.48505,0.72346 9.75651,0.32935 0.48093,-0.0579 1.1355,-0.0482 1.45383,0.22737 0.54432,0.46716 0.94533,1.13551 1.29535,1.78043 0.82131,1.51584 1.670185,3.02755 2.324753,4.61781 0.249426,0.60633 0.416169,1.2485 0.567751,1.897553 0.220485,0.38723 0.436838,0.77722 0.6463,1.16996 0.03306,-0.18328 0.08957,-0.36105 0.175012,-0.52779 -0.297657,-0.844743 -0.602203,-1.685343 -0.924666,-2.517683 -0.861272,-2.23655 -1.85759,-4.41523 -3.32245,-6.32106 -0.0965,-0.12678 -0.19568,-0.25218 -0.29765,-0.37758 -0.59669,-0.73174 -1.53652,-0.38861 -2.29306,-0.29766 -3.01515,0.36381 -5.99171,0.46716 -8.9793,-0.3197 -1.67569,-0.43822 -3.20393,-1.1424 -4.53099,-2.18281 -1.46898,-1.15066 -2.58657,-2.63895 -3.50572,-4.28984 -1.1672,-2.09048 -1.89894,-4.32152 -2.37299,-6.64352 -0.23978,-1.1796 -0.38309,-2.37987 -0.51952,-3.57739 -0.25218,-2.22139 -0.47266,-4.448301 -0.69453,-6.673835 -0.18603,-1.828656 -0.34864,-3.661446 -0.53606,-5.488725 -0.11024,-1.052819 -0.24942,-2.100128 -0.401,-3.367923 0.65594,0.78548 1.16168,1.413866 1.69498,2.020203 1.52549,1.73495 3.35415,3.117123 5.32061,4.288454 2.41984,1.437295 4.90306,2.771236 7.37664,4.116201 1.63022,0.886079 3.36241,1.595765 4.92097,2.586575 2.88699,1.83417 5.83462,3.66834 7.555783,6.79235 1.269174,2.3027 1.583369,4.74734 0.249428,7.12446 -0.881944,1.57234 -2.047761,2.9807 -2.987591,4.5241 -0.19981,0.33073 -0.15572,1.08038 0.0909,1.37114 0.051,0.062 0.10336,0.12127 0.1571,0.18053 1.22508,1.43867 2.583821,2.76572 3.797875,4.21128 0.859896,1.02113 1.568206,2.17042 2.315104,3.28111 0.132292,0.19568 0.264583,0.39274 0.39274,0.59118 0.191547,0.0965 0.378962,0.238403 0.553971,0.427193 0.248044,0.27147 0.249425,0.0128 0.498851,0.28427 -0.07304,-0.25907 0.04961,0.0189 -0.100598,-0.22915 -0.0441,-0.0661 -0.08544,-0.13366 -0.12678,-0.20119"
       id="path946"
       inkscape:connector-curvature="0"
       sodipodi:nodetypes="cccccccccccccccccccccccccccccccccccccccccccccccccccc" />
    <path
       style="fill:#000000;fill-opacity:1;fill-rule:nonzero;stroke:none;stroke-width:0.35277775"
       d="m 66.027449,89.983107 c -0.15296,0.25218 -0.20256,0.63804 -0.16123,0.99908 -0.25356,-0.15158 -0.55397,-0.226 -0.90674,-0.226 -0.29766,0 -0.59118,0.0496 -0.87506,0.0992 -0.1378,0.0234 -0.27423,0.0469 -0.40376,0.0634 -1.54616,0.18604 -2.82636,0.27285 -4.02939,0.27285 -1.75562,0 -3.33485,-0.19154 -4.82864,-0.58428 -1.69637,-0.44374 -3.17914,-1.15894 -4.40972,-2.12357 -1.29812,-1.01698 -2.41709,-2.38813 -3.42167,-4.19198 -1.0611,-1.9017 -1.8259,-4.04317 -2.33716,-6.54706 -0.23289,-1.14378 -0.37069,-2.28341 -0.51538,-3.54845 -0.23289,-2.0643 -0.44373,-4.167191 -0.64768,-6.202553 l -0.0469,-0.467151 c -0.0868,-0.86541 -0.1695,-1.732196 -0.25218,-2.598982 -0.0923,-0.964628 -0.18466,-1.927877 -0.28388,-2.892502 -0.0744,-0.712445 -0.16399,-1.435915 -0.25769,-2.200727 -0.003,-0.01792 -0.004,-0.03583 -0.007,-0.05375 0.34726,0.418924 0.65594,0.789616 0.98253,1.161687 1.41525,1.608173 3.18052,3.033063 5.39916,4.353225 2.17592,1.292599 4.4359,2.519052 6.6201,3.705543 l 0.76894,0.417547 c 0.62976,0.34313 1.28433,0.662834 1.91547,0.97427 1.00321,0.490579 2.0395,1.000459 2.98621,1.599899 l 0.16123,0.10336 c 2.76986,1.75975 5.63342,3.57876 7.281555,6.57048 1.338077,2.42811 1.422135,4.71565 0.250803,6.802 -0.480933,0.85714 -1.061087,1.68396 -1.621948,2.4846 -0.46026,0.65457 -0.93431,1.33257 -1.36013,2.02985 m 1.945796,-1.69912 c -0.03168,0.0413 -0.06477,0.0827 -0.09784,0.1254 0.01791,-0.0248 0.03583,-0.051 0.05374,-0.0758 0.308682,-0.44097 0.622872,-0.88883 0.926042,-1.34909 -0.256315,0.43821 -0.549836,0.87229 -0.881943,1.29948 m 6.300388,12.468487 c 0.40179,-0.10413 0.129084,-0.821035 0.09016,-0.896112 -0.76481,-1.11896 -2.824191,-3.757515 -3.704756,-4.821365 -0.704178,-0.85025 -1.466234,-1.67293 -2.203482,-2.46806 -0.465781,-0.50436 -0.949469,-1.02526 -1.409739,-1.54616 -0.0689,-0.0772 -0.13366,-0.25632 -0.14331,-0.34176 0.28801,-0.401 0.61322,-0.79236 0.927418,-1.17133 0.221866,-0.26458 0.449241,-0.53881 0.666969,-0.81855 3.190158,-4.10793 3.119877,-8.8346 -0.186034,-12.6435 -1.956813,-2.2531 -4.406963,-3.79925 -6.763413,-5.13457 -1.31327,-0.745522 -2.66375,-1.473126 -3.96875,-2.177302 -1.14101,-0.615982 -2.32199,-1.252636 -3.47128,-1.89618 l -0.43683,-0.24529 c -1.74735,-0.977032 -3.55396,-1.988513 -5.25171,-3.095078 -2.00091,-1.305003 -3.43545,-2.593467 -4.51445,-4.055565 -0.39136,-0.531926 -0.79375,-1.037664 -1.25815,-1.623332 -0.21497,-0.272849 -0.44097,-0.558105 -0.68075,-0.86403 l -0.59118,-0.755163 v 0.959114 c 0,0.208083 -0.005,0.388606 -0.01,0.549836 -0.007,0.31695 -0.0138,0.567754 0.0179,0.826823 0.15848,1.347724 0.32109,2.695445 0.48507,4.043165 0.23978,1.976106 0.48783,4.019737 0.71383,6.031675 0.13642,1.196135 0.25356,2.415697 0.36931,3.593927 0.15572,1.60403 0.31557,3.26181 0.52228,4.8879 0.41892,3.31418 1.50619,6.33621 3.23012,8.98205 1.87688,2.8801 4.34771,4.68257 7.55165,5.51353 1.67018,0.43133 3.42994,0.64079 5.38124,0.64079 1.34634,0 2.77536,-0.0965 4.49791,-0.30455 0.14194,-0.0165 0.28939,-0.0262 0.42444,-0.0262 0.36242,0 0.64492,0.0634 0.77308,0.17639 0.50298,0.42995 0.8847,1.06523 1.22094,1.6881 l 0.27836,0.51263 c 0.71658,1.31603 1.456588,2.67891 2.031231,4.0721 0.09646,0.23427 1.319283,3.292167 1.395076,3.538827 0.205457,0.486 4.016464,-1.13267 4.016846,-1.13276 0,0 -2.354057,-2.086347 -2.661786,-2.623435 0,0 -2.860381,-2.956242 -3.745082,-4.472082 0.09233,0.0992 0.18328,0.19844 0.275609,0.29628 0.655944,0.70418 1.333939,1.43316 1.960946,2.17868 0.662837,0.78824 1.249881,1.67569 1.816256,2.53421 0.158475,0.23978 0.31695,0.47956 0.4768,0.71796 1.562069,0.613976 0.142006,1.921327 1.876875,1.368477"
       id="path948"
       inkscape:connector-curvature="0"
       sodipodi:nodetypes="ccsccscccccccccccccccccccccccccccccccccccccccccccccsccccccccscsccccccccccccc" />
    <path
       style="fill:#b5d8f1;fill-opacity:1;fill-rule:nonzero;stroke:none;stroke-width:0.36463502"
       d="m 72.861626,99.478617 c 0.136258,0.20298 0.272513,0.40738 0.404513,0.613213 -1.01701,0.36547 -1.498177,0.57733 -2.58178,1.00629 -0.306578,-0.87622 -0.62025,-1.748143 -0.950958,-2.611493 -0.888507,-2.3199 -1.914692,-4.57976 -3.423452,-6.55661 l 0.25548,-0.22298 c 1.261798,1.49228 2.661266,2.86878 3.911706,4.36821 0.885669,1.05918 1.615209,2.25128 2.384491,3.40337"
       id="path950"
       inkscape:connector-curvature="0"
       sodipodi:nodetypes="cccccccc" />
    <path
       style="fill:#b5d8f1;fill-opacity:1;fill-rule:nonzero;stroke:none;stroke-width:0.35277775"
       d="m 66.309949,91.922007 c -0.0965,-0.12678 -0.19568,-0.25218 -0.29765,-0.37758 -0.59669,-0.73174 -1.53651,-0.38861 -2.29306,-0.29766 -3.01515,0.36381 -5.99171,0.46716 -8.9793,-0.3197 -1.67569,-0.43822 -3.20393,-1.1424 -4.53099,-2.18281 -1.46898,-1.15066 -2.58657,-2.63895 -3.50572,-4.28984 -1.1672,-2.09048 -1.89894,-4.32152 -2.37299,-6.64352 -0.23977,-1.1796 -0.38309,-2.37987 -0.51952,-3.57739 -0.25218,-2.22139 -0.47266,-4.448301 -0.69453,-6.673835 -0.18603,-1.830035 -0.34864,-3.661446 -0.53605,-5.488725 -0.11025,-1.052819 -0.24943,-2.100128 -0.40101,-3.367923 0.65594,0.78548 1.16168,1.413866 1.69498,2.020203 1.52549,1.73495 3.35415,3.117123 5.32061,4.288454 2.41984,1.437295 4.90306,2.771236 7.37664,4.116201 1.63022,0.886079 3.36241,1.595765 4.92097,2.586575 2.88699,1.83417 5.83462,3.66834 7.555783,6.79235 1.267796,2.3027 1.58337,4.74734 0.249428,7.12446 -0.881943,1.57234 -2.047761,2.9807 -2.987591,4.5241 -0.19981,0.33073 -0.15572,1.08038 0.091,1.37114 0.051,0.062 0.10336,0.12127 0.1571,0.18053 z m 0,0"
       id="path952"
       inkscape:connector-curvature="0" />
    <path
       style="fill:#000000;fill-opacity:1;fill-rule:nonzero;stroke:none;stroke-width:0.35277775"
       d="m 73.889162,100.07173 c -0.25907,-0.394123 -0.566375,-0.777213 -0.825445,-1.156173 -0.853006,-1.24575 -1.697741,-2.50665 -2.658237,-3.66972 -1.145148,-1.38217 -2.417077,-2.66099 -3.607701,-4.00596 -0.15159,-0.17225 -0.28939,-0.57739 -0.19844,-0.70555 0.50436,-0.71245 1.09968,-1.35737 1.635732,-2.04777 2.957269,-3.80752 3.124015,-8.42532 -0.173632,-12.22457 -1.88516,-2.17041 -4.2292,-3.67661 -6.67659,-5.06429 -2.45842,-1.393198 -4.97197,-2.688556 -7.43866,-4.072104 -1.92511,-1.077627 -3.86126,-2.146984 -5.70921,-3.351389 -1.73219,-1.129993 -3.34587,-2.440506 -4.59851,-4.135494 -0.57327,-0.778591 -1.18925,-1.528244 -1.93339,-2.480469 0,0.607717 -0.0386,0.977029 0.005,1.338076 0.3955,3.359658 0.82131,6.715178 1.20027,10.076215 0.31971,2.823595 0.53331,5.659605 0.89022,8.477695 0.40101,3.17224 1.42627,6.15293 3.17913,8.84286 1.76665,2.71061 4.15616,4.54478 7.35735,5.37298 3.25079,0.8406 6.48505,0.72346 9.75651,0.32935 0.48093,-0.0579 1.1355,-0.0482 1.45383,0.22737 0.54432,0.46716 0.94533,1.13551 1.29535,1.78043 0.82131,1.51584 1.670185,3.02755 2.324753,4.61781 0.249426,0.60633 0.416169,1.2485 0.567751,1.897553 0.220485,0.38723 0.436838,0.77722 0.6463,1.16996 0.03306,-0.18328 0.08957,-0.36105 0.175012,-0.52779 -0.297657,-0.844743 -0.602203,-1.685343 -0.924666,-2.517683 -0.861272,-2.23655 -1.85759,-4.41523 -3.32245,-6.32106 -0.0965,-0.12678 -0.19568,-0.25218 -0.29765,-0.37758 -0.59669,-0.73174 -1.53652,-0.38861 -2.29306,-0.29766 -3.01515,0.36381 -5.99171,0.46716 -8.9793,-0.3197 -1.67569,-0.43822 -3.20393,-1.1424 -4.53099,-2.18281 -1.46898,-1.15066 -2.58657,-2.63895 -3.50572,-4.28984 -1.1672,-2.09048 -1.89894,-4.32152 -2.37299,-6.64352 -0.23978,-1.1796 -0.38309,-2.37987 -0.51952,-3.57739 -0.25218,-2.22139 -0.47266,-4.448301 -0.69453,-6.673835 -0.18603,-1.828656 -0.34864,-3.661446 -0.53606,-5.488725 -0.11024,-1.052819 -0.24942,-2.100128 -0.401,-3.367923 0.65594,0.78548 1.16168,1.413866 1.69498,2.020203 1.52549,1.73495 3.35415,3.117123 5.32061,4.288454 2.41984,1.437295 4.90306,2.771236 7.37664,4.116201 1.63022,0.886079 3.36241,1.595765 4.92097,2.586575 2.88699,1.83417 5.83462,3.66834 7.555783,6.79235 1.269174,2.3027 1.583369,4.74734 0.249428,7.12446 -0.881944,1.57234 -2.047761,2.9807 -2.987591,4.5241 -0.19981,0.33073 -0.15572,1.08038 0.0909,1.37114 0.051,0.062 0.10336,0.12127 0.1571,0.18053 1.22508,1.43867 2.583821,2.76572 3.797875,4.21128 0.859896,1.02113 1.568206,2.17042 2.315104,3.28111 0.132292,0.19568 0.264583,0.39274 0.39274,0.59118 0.191547,0.0965 0.378962,0.238403 0.553971,0.427193 0.248044,0.27147 0.06202,0.68217 0.06202,0.68217 -0.07304,-0.25907 -0.348645,-0.76068 -0.348645,-0.76068 -0.0441,-0.0661 0.599438,-3e-5 0.558098,-0.0676"
       id="path954"
       inkscape:connector-curvature="0"
       sodipodi:nodetypes="cccccccccccccccccccccccccccccccccccccccccccccccccccc" />
    <path
       style="fill:#000000;fill-opacity:1;fill-rule:nonzero;stroke:none;stroke-width:0.35277775"
       d="m 56.579619,78.614297 c 1.42076,0 2.11392,-0.49196 2.11392,-1.78594 0,-0.69178 -0.31006,-1.7129 -1.9141,-1.7129 h -3.40651 v 3.49884 z m -5.8856,-5.75745 h 6.61459 c 3.47954,0 4.11758,2.56867 4.11758,3.69866 0,1.43867 -0.72899,2.67753 -2.02296,3.11437 1.07487,0.47404 1.65778,0.87505 1.65778,3.31693 0,1.91272 0,2.38676 0.5829,2.60587 v 0.34589 h -3.02341 c -0.18328,-0.62012 -0.29214,-1.29398 -0.29214,-2.6417 0,-1.78594 -0.10887,-2.47909 -2.13183,-2.47909 h -2.8236 v 5.12079 h -2.67891 z m 0,0"
       id="path956"
       inkscape:connector-curvature="0" />
  </g>
</svg>
