<?xml version="1.0" encoding="UTF-8" standalone="no"?>
<svg
   xmlns:dc="http://purl.org/dc/elements/1.1/"
   xmlns:cc="http://creativecommons.org/ns#"
   xmlns:rdf="http://www.w3.org/1999/02/22-rdf-syntax-ns#"
   xmlns:svg="http://www.w3.org/2000/svg"
   xmlns="http://www.w3.org/2000/svg"
   xmlns:sodipodi="http://sodipodi.sourceforge.net/DTD/sodipodi-0.dtd"
   xmlns:inkscape="http://www.inkscape.org/namespaces/inkscape"
   width="566.35822pt"
   height="355.60547pt"
   viewBox="0 0 566.35822 355.60547"
   version="1.2"
   id="svg967"
   sodipodi:docname="sprig_logo.svg"
   inkscape:version="0.92.2 (5c3e80d, 2017-08-06)">
  <metadata
     id="metadata971">
    <rdf:RDF>
      <cc:Work
         rdf:about="">
        <dc:format>image/svg+xml</dc:format>
        <dc:type
           rdf:resource="http://purl.org/dc/dcmitype/StillImage" />
        <dc:title></dc:title>
      </cc:Work>
    </rdf:RDF>
  </metadata>
  <sodipodi:namedview
     pagecolor="#ffffff"
     bordercolor="#666666"
     borderopacity="1"
     objecttolerance="10"
     gridtolerance="10"
     guidetolerance="10"
     inkscape:pageopacity="0"
     inkscape:pageshadow="2"
     inkscape:window-width="3066"
     inkscape:window-height="1689"
     id="namedview969"
     showgrid="false"
     inkscape:zoom="1.9062643"
     inkscape:cx="175.76016"
     inkscape:cy="183.84073"
     inkscape:window-x="134"
     inkscape:window-y="55"
     inkscape:window-maximized="1"
     inkscape:current-layer="surface5855"
     fit-margin-top="10"
     fit-margin-left="10"
     fit-margin-right="10"
     fit-margin-bottom="10" />
  <defs
     id="defs854" />
  <g
     id="surface5855"
     transform="translate(-253.30779,-200.375)">
    <g
       id="g991">
      <path
         inkscape:connector-curvature="0"
         id="path856"
         d="m 409.41016,463.65234 c -4.76172,6.14454 -7.77344,13.21094 -10.61329,20.34766 -1.26171,-1.64844 -2.53515,-3.29687 -3.8164,-4.9375 0.66797,-0.98047 1.375,-1.9375 2.13672,-2.83594 3.77343,-4.45703 7.96093,-8.5625 11.74218,-13.00781 z m 0,0"
         style="fill:#f05742;fill-opacity:1;fill-rule:nonzero;stroke:none" />
      <path
         inkscape:connector-curvature="0"
         id="path858"
         d="m 396.14453,479.03125 c 0.80078,1.02734 1.59766,2.05859 2.39453,3.09375 1.72656,-4.28906 3.53516,-8.48437 5.78516,-12.46875 -0.19141,0.20703 -0.38672,0.41406 -0.57813,0.62109 -1.97656,2.1211 -4.01562,4.31641 -5.91406,6.55469 -0.55469,0.65625 -1.11328,1.37891 -1.6875,2.19922 m 2.91406,6.85156 -1.0039,-1.3125 c -1.26172,-1.64843 -2.53516,-3.29297 -3.8125,-4.92968 l -0.42188,-0.53907 0.38281,-0.5664 c 0.75782,-1.10938 1.47657,-2.0625 2.19922,-2.91407 1.92578,-2.27343 3.98047,-4.48437 5.97266,-6.62109 1.92578,-2.07031 3.91797,-4.21094 5.76953,-6.38672 l 0.58594,-0.6875 1.99219,1.5625 -0.57032,0.73828 c -4.70703,6.07032 -7.64453,12.98047 -10.48437,20.1211 z m 0,0"
         style="fill:#000000;fill-opacity:1;fill-rule:nonzero;stroke:none" />
      <path
         inkscape:connector-curvature="0"
         id="path860"
         d="m 409.81641,463.13281 c -0.13672,0.17578 -0.27344,0.34375 -0.40625,0.51953 l -0.55079,-0.43359 c 0.75,-0.88672 1.08985,-3.00391 0.55079,-3.92969 -1.35547,-2.32031 -3.44922,-4.19531 -5.02344,-6.40234 -3.30078,-4.60938 -5.78125,-9.64063 -5.92188,-15.41797 -0.14062,-6.44141 2.81641,-11.70312 6.82032,-16.54687 5.14843,-6.22657 11.83203,-10.39454 18.74218,-14.26172 7.02735,-3.92578 13.98828,-8 21.21485,-11.51953 8.21093,-3.99219 15.79297,-8.88672 22.7539,-14.71485 3.38672,-2.82812 6.23047,-6.32422 9.30469,-9.5 0,0.28906 0.0469,0.70313 -0.004,1.10156 -0.97656,8.23047 -2.01953,16.44922 -2.92968,24.6875 -0.90235,8.17579 -1.53907,16.37891 -2.53125,24.54297 -0.98828,8.13282 -3.5586,15.89844 -7.71485,22.875 -5.08593,8.54297 -12.26953,14.69532 -22.33593,17.17578 -8.41797,2.07813 -16.77344,1.86329 -25.25782,0.875 -2.21093,-0.25781 -4.91015,-1.30859 -6.71093,0.94922"
         style="fill:#f05742;fill-opacity:1;fill-rule:nonzero;stroke:none" />
      <path
         inkscape:connector-curvature="0"
         id="path862"
         d="m 412.94922,460.77734 c 0.84765,0 1.67578,0.14454 2.48047,0.28516 0.41406,0.0742 0.8164,0.14453 1.20703,0.1875 4.16406,0.48438 7.8125,0.72266 11.15625,0.72266 4.97656,0 9.48047,-0.51563 13.76562,-1.57422 9.29688,-2.29297 16.41407,-7.76953 21.75782,-16.7461 4.04687,-6.78906 6.59765,-14.35937 7.58593,-22.50781 0.57422,-4.6875 1.03516,-9.47656 1.48047,-14.10547 0.32813,-3.41797 0.66797,-6.95312 1.05078,-10.42578 0.59766,-5.40625 1.26563,-10.89062 1.91016,-16.19531 0.27734,-2.30859 0.55859,-4.62109 0.83594,-6.92969 -0.34766,0.375 -0.6875,0.7461 -1.02735,1.11719 -2.05468,2.23828 -4.17968,4.55469 -6.55468,6.54297 -6.96485,5.82422 -14.6836,10.8164 -22.94532,14.83594 -5.69531,2.77343 -11.33203,5.95312 -16.78125,9.02343 -1.46093,0.82813 -2.92187,1.65235 -4.38672,2.46875 -6.17968,3.46094 -13.21875,7.6836 -18.47656,14.04297 -4.6875,5.66406 -6.72265,10.57813 -6.60547,15.92969 0.11719,4.84375 1.94141,9.57812 5.7461,14.89453 0.63281,0.88672 1.3789,1.74609 2.10156,2.58203 1.05078,1.21094 2.13672,2.46485 2.96875,3.89063 0.38281,0.65234 0.46484,1.58203 0.34375,2.49218 0.6875,-0.35546 1.47656,-0.53125 2.38672,-0.53125 m -3.36328,4.20313 -2.07032,-1.62109 0.62891,-0.7461 c 0.55078,-0.65234 0.75781,-2.33203 0.45703,-2.85156 -0.74609,-1.27344 -1.73047,-2.40625 -2.76953,-3.60938 -0.75,-0.86718 -1.52734,-1.76171 -2.21094,-2.71875 -4.03125,-5.63671 -5.96875,-10.69921 -6.08984,-15.9414 -0.13281,-5.83594 2.03906,-11.12891 7.03125,-17.16797 5.46484,-6.60938 12.67578,-10.94141 19.00781,-14.48438 1.46094,-0.8164 2.92188,-1.64062 4.38281,-2.46484 5.47266,-3.08594 11.12891,-6.28125 16.87891,-9.07812 8.125,-3.95313 15.71484,-8.85938 22.5625,-14.58985 2.28125,-1.90625 4.36328,-4.17578 6.375,-6.37109 0.92969,-1.01172 1.89063,-2.0586 2.85938,-3.0586 l 1.61328,-1.66406 v 2.3125 c 0,0.0742 0,0.15625 0.004,0.2461 0.0117,0.27343 0.0274,0.61328 -0.0195,0.97265 -0.33594,2.83203 -0.67969,5.66797 -1.02344,8.50391 -0.64453,5.29687 -1.30859,10.77344 -1.90625,16.16797 -0.38281,3.46093 -0.71875,6.98828 -1.05078,10.40234 -0.44531,4.64063 -0.90625,9.44141 -1.48047,14.15234 -1.02343,8.40625 -3.66015,16.22657 -7.83984,23.24219 -5.53516,9.29688 -13.24609,15.22266 -22.91797,17.60547 -4.43359,1.09375 -9.08203,1.62891 -14.21484,1.62891 -3.41797,0 -7.13672,-0.23828 -11.3711,-0.73438 -0.42578,-0.0469 -0.86328,-0.125 -1.3125,-0.20312 -0.72656,-0.125 -1.47656,-0.25782 -2.16015,-0.25782 -1.08594,0 -1.80469,0.31641 -2.39844,1.0625 L 410.422,463.875 c -0.0898,0.11328 -0.17578,0.22656 -0.26171,0.33984 z m 0,0"
         style="fill:#000000;fill-opacity:1;fill-rule:nonzero;stroke:none" />
      <path
         inkscape:connector-curvature="0"
         id="path864"
         d="m 398.79687,484 c 2.83985,-7.13672 5.85157,-14.20312 10.61329,-20.34766 0.13281,-0.17578 0.26953,-0.34375 0.40625,-0.51953 1.80078,-2.25781 4.5,-1.20703 6.71093,-0.94922 8.48438,0.98829 16.83985,1.20704 25.25782,-0.875 10.0664,-2.48437 17.25,-8.63281 22.33593,-17.17578 4.15625,-6.97656 6.72657,-14.74218 7.71094,-22.875 0.99609,-8.16015 1.63281,-16.36718 2.53516,-24.54297 0.91015,-8.23828 1.95312,-16.45703 2.92968,-24.6875 0.0508,-0.39843 0.008,-0.8125 0.008,-1.09765 -3.07813,3.17187 -5.92188,6.66797 -9.3086,9.5 -6.96093,5.82422 -14.54297,10.71484 -22.7539,14.71094 -7.22657,3.51953 -14.1875,7.59375 -21.21485,11.51562 -6.91015,3.87109 -13.59375,8.03906 -18.74218,14.26563 -4.00782,4.84375 -6.96094,10.10546 -6.81641,16.54687 0.13672,5.77734 2.61719,10.80859 5.91797,15.42188 1.57422,2.20312 3.66797,4.07812 5.02344,6.39843 0.53906,0.92578 0.19921,3.04297 -0.55079,3.92969 -3.78125,4.44531 -7.96875,8.55078 -11.74218,13.00781 -0.76172,0.89844 -1.46875,1.85547 -2.13672,2.83594 -0.2461,-0.3125 -0.48438,-0.61719 -0.72656,-0.92187 0.10156,-0.36329 0.1875,-0.72657 0.26953,-1.09375 0.76172,-0.97266 1.52343,-1.92188 2.33593,-2.82032 3.69532,-4.08593 7.46875,-8.09375 11.125,-12.21093 0.34375,-0.39063 0.41407,-1.55079 0.0937,-1.9336 -4.75,-5.73047 -9.23437,-11.48047 -10.41015,-19.26172 -0.94531,-6.23047 0.28515,-11.76953 3.55078,-16.95703 5.29297,-8.40625 13.30469,-13.64844 21.75391,-18.32422 7.01171,-3.875 14.08203,-7.64843 21.0625,-11.57422 5.38671,-3.01953 10.77343,-6.05468 15.98046,-9.36328 5.11329,-3.23828 9.75,-7.09765 13.45704,-11.96875 1.65625,-2.16797 3.33593,-4.32812 5.44921,-7.07422 0,1.66797 0.0937,2.5625 -0.0117,3.4375 -0.95704,7.98829 -2.01954,15.96485 -2.91407,23.96485 -0.91797,8.23437 -1.73828,16.49219 -2.49218,24.7539 -0.8125,8.96094 -3.10547,17.42969 -7.33985,25.4375 -5.09375,9.64454 -12.32812,16.36719 -23.1289,19.17188 -9.20704,2.39453 -18.38282,2.03906 -27.66407,0.92578 -1.44922,-0.16797 -3.83593,0.11328 -4.38672,1.03125 -3.61718,6.03125 -7.125,12.16406 -10.1289,18.51563 -0.38672,0.8164 -0.7461,1.64843 -1.07813,2.5 -0.32422,-0.4336 -0.65625,-0.86329 -0.98047,-1.29688"
         style="fill:#000000;fill-opacity:1;fill-rule:nonzero;stroke:none" />
      <path
         inkscape:connector-curvature="0"
         id="path866"
         d="m 478.01953,368.26172 -0.57031,0.74219 c -0.57813,0.75 -1.12891,1.46484 -1.66797,2.16015 0.28125,-0.30078 0.5625,-0.59765 0.84766,-0.89062 l 1.35156,-1.39063 c 0.0234,-0.19531 0.0351,-0.39843 0.0391,-0.62109 m -65.07031,92.51562 c 0.84765,0 1.67578,0.14454 2.48047,0.28516 0.41406,0.0742 0.8164,0.14453 1.20703,0.1875 4.16406,0.48438 7.8125,0.72266 11.15625,0.72266 4.98047,0 9.48047,-0.51563 13.76562,-1.57422 9.29688,-2.29297 16.41407,-7.76953 21.75782,-16.7461 4.04687,-6.78906 6.59765,-14.35937 7.58593,-22.50781 0.57032,-4.6875 1.03516,-9.47656 1.48047,-14.10547 0.32813,-3.41797 0.66797,-6.95312 1.05078,-10.42578 0.59766,-5.40625 1.26563,-10.89062 1.90625,-16.19531 0.28125,-2.30859 0.5625,-4.61719 0.83985,-6.92969 -0.34766,0.3711 -0.6875,0.7461 -1.02735,1.11719 -2.05468,2.23828 -4.17968,4.55469 -6.55468,6.54297 -6.96485,5.82422 -14.6836,10.8164 -22.94532,14.83594 -5.69531,2.77343 -11.33203,5.94921 -16.78125,9.02734 -1.46093,0.82422 -2.92187,1.64844 -4.38672,2.46484 -6.17968,3.46094 -13.21484,7.6836 -18.47656,14.04297 -4.6875,5.66406 -6.72265,10.57813 -6.60547,15.92969 0.11719,4.84375 1.94141,9.57812 5.7461,14.89453 0.63281,0.88672 1.3789,1.75 2.10156,2.58203 1.05078,1.21094 2.13672,2.46485 2.96875,3.89063 0.37891,0.65234 0.46484,1.58203 0.34375,2.49218 0.6875,-0.35546 1.47656,-0.53125 2.38672,-0.53125 m -3.9375,4.98047 c -2.38281,3.34766 -4.29297,6.91797 -5.99219,10.625 2,-3.78906 4.0625,-7.37109 5.99219,-10.625 m -8.96875,21.44141 -2.3125,-3.05469 0.19531,-0.48828 c 1.91797,-4.82031 3.87891,-9.54297 6.40234,-14.00391 -0.19531,0.21094 -0.39062,0.41797 -0.58203,0.625 -1.97656,2.1211 -4.01562,4.31641 -5.91406,6.55469 -0.67969,0.80078 -1.35937,1.70703 -2.07812,2.75781 l -0.72266,1.0625 -0.93359,-1.1914 c -0.19141,-0.25 -0.38282,-0.49219 -0.57422,-0.73828 l -0.30078,-0.3711 0.1289,-0.46093 c 0.0937,-0.34766 0.17969,-0.69532 0.25781,-1.04688 l 0.043,-0.21094 0.13282,-0.16797 c 0.85937,-1.08984 1.58984,-1.99218 2.3789,-2.86718 1.52735,-1.6875 3.06641,-3.36328 4.60547,-5.03907 2.14844,-2.33593 4.37109,-4.7539 6.51563,-7.16796 0.0586,-0.11329 0.0898,-0.57032 0.0351,-0.75391 -5.09765,-6.15234 -9.40234,-11.88281 -10.58203,-19.67578 -0.96094,-6.36719 0.24219,-12.1211 3.68359,-17.59766 5.45704,-8.66015 13.84375,-14.07812 22.09766,-18.64453 2.79297,-1.54297 5.59766,-3.07031 8.39844,-4.59766 4.16015,-2.26953 8.46094,-4.61328 12.65625,-6.97265 5.75,-3.22266 10.91797,-6.14844 15.9375,-9.33594 5.55078,-3.51562 9.87109,-7.35547 13.21484,-11.74609 1.03516,-1.35938 2.08203,-2.71485 3.23828,-4.21094 l 3.89453,-5.05078 v 2.7539 c 0,0.59375 0.0117,1.08594 0.0234,1.51563 0.0195,0.78516 0.0312,1.40625 -0.043,2.03516 -0.37109,3.08593 -0.7539,6.16796 -1.14062,9.2539 -0.60156,4.81641 -1.22266,9.79297 -1.76953,14.69922 -0.85547,7.66406 -1.67188,15.75391 -2.49219,24.73828 -0.86328,9.50781 -3.29688,17.94531 -7.44141,25.78906 -5.55468,10.51172 -13.3164,16.9375 -23.72656,19.64454 -4.69922,1.22265 -9.66797,1.8164 -15.1875,1.8164 -3.80859,0 -7.88281,-0.27734 -12.82031,-0.86719 -0.22266,-0.0273 -0.48047,-0.043 -0.75,-0.043 -1.54688,0 -2.57813,0.40234 -2.72266,0.625 -3.1914,5.3164 -6.88672,11.66796 -10.08594,18.42968 -0.37109,0.78125 -0.72265,1.60547 -1.05078,2.44141 z m 0,0"
         style="fill:#000000;fill-opacity:1;fill-rule:nonzero;stroke:none" />
      <path
         inkscape:connector-curvature="0"
         id="path868"
         d="m 409.41016,463.65234 c -4.76172,6.14454 -7.77344,13.21094 -10.61329,20.34766 -1.26171,-1.64844 -2.53515,-3.29687 -3.8164,-4.9375 0.66797,-0.98047 1.375,-1.9375 2.13672,-2.83594 3.77343,-4.45703 7.96093,-8.5625 11.74218,-13.00781 z m 0,0"
         style="fill:#f25744;fill-opacity:1;fill-rule:nonzero;stroke:none" />
      <path
         inkscape:connector-curvature="0"
         id="path870"
         d="m 409.81641,463.13281 c -0.13672,0.17578 -0.27344,0.34375 -0.40625,0.51953 l -0.55079,-0.43359 c 0.75,-0.88672 1.08985,-3.00391 0.55079,-3.92969 -1.35547,-2.32031 -3.44922,-4.19531 -5.02344,-6.40234 -3.30078,-4.60938 -5.78125,-9.64063 -5.92188,-15.41797 -0.14062,-6.44141 2.81641,-11.70312 6.82032,-16.54687 5.14843,-6.22657 11.83203,-10.39454 18.74218,-14.26172 7.02735,-3.92578 13.98828,-8 21.21485,-11.51953 8.21093,-3.99219 15.79297,-8.88672 22.7539,-14.71485 3.38672,-2.82812 6.23047,-6.32422 9.30469,-9.5 0,0.28906 0.0469,0.70313 -0.004,1.10156 -0.97656,8.23047 -2.01953,16.44922 -2.92968,24.6875 -0.90235,8.17579 -1.53907,16.37891 -2.53125,24.54297 -0.98828,8.13282 -3.5586,15.89844 -7.71485,22.875 -5.08593,8.54297 -12.26953,14.69532 -22.33593,17.17578 -8.41797,2.07813 -16.77344,1.86329 -25.25782,0.875 -2.21093,-0.25781 -4.91015,-1.30859 -6.71093,0.94922"
         style="fill:#f25744;fill-opacity:1;fill-rule:nonzero;stroke:none" />
      <path
         inkscape:connector-curvature="0"
         id="path872"
         d="m 398.79687,484 c 2.83985,-7.13672 5.85157,-14.20312 10.61329,-20.34766 0.13281,-0.17578 0.26953,-0.34375 0.40625,-0.51953 1.80078,-2.25781 4.5,-1.20703 6.71093,-0.94922 8.48438,0.98829 16.83985,1.20704 25.25782,-0.875 10.0664,-2.48437 17.25,-8.63281 22.33593,-17.17578 4.15625,-6.97656 6.72657,-14.74218 7.71094,-22.875 0.99609,-8.16015 1.63281,-16.36718 2.53516,-24.54297 0.91015,-8.23828 1.95312,-16.45703 2.92968,-24.6875 0.0508,-0.39843 0.008,-0.8125 0.008,-1.09765 -3.07813,3.17187 -5.92188,6.66797 -9.3086,9.5 -6.96093,5.82422 -14.54297,10.71484 -22.7539,14.71094 -7.22657,3.51953 -14.1875,7.59375 -21.21485,11.51562 -6.91015,3.87109 -13.59375,8.03906 -18.74218,14.26563 -4.00782,4.84375 -6.96094,10.10546 -6.81641,16.54687 0.13672,5.77734 2.61719,10.80859 5.91797,15.42188 1.57422,2.20312 3.66797,4.07812 5.02344,6.39843 0.53906,0.92578 0.19921,3.04297 -0.55079,3.92969 -3.78125,4.44531 -7.96875,8.55078 -11.74218,13.00781 -0.76172,0.89844 -1.46875,1.85547 -2.13672,2.83594 -0.2461,-0.3125 -0.48438,-0.61719 -0.72656,-0.92187 0.10156,-0.36329 0.1875,-0.72657 0.26953,-1.09375 0.76172,-0.97266 1.52343,-1.92188 2.33593,-2.82032 3.69532,-4.08593 7.46875,-8.09375 11.125,-12.21093 0.34375,-0.39063 0.41407,-1.55079 0.0937,-1.9336 -4.75,-5.73047 -9.23437,-11.48047 -10.41015,-19.26172 -0.94531,-6.23047 0.28515,-11.76953 3.55078,-16.95703 5.29297,-8.40625 13.30469,-13.64844 21.75391,-18.32422 7.01171,-3.875 14.08203,-7.64843 21.0625,-11.57422 5.38671,-3.01953 10.77343,-6.05468 15.98046,-9.36328 5.11329,-3.23828 9.75,-7.09765 13.45704,-11.96875 1.65625,-2.16797 3.33593,-4.32812 5.44921,-7.07422 0,1.66797 0.0937,2.5625 -0.0117,3.4375 -0.95704,7.98829 -2.01954,15.96485 -2.91407,23.96485 -0.91797,8.23437 -1.73828,16.49219 -2.49218,24.7539 -0.8125,8.96094 -3.10547,17.42969 -7.33985,25.4375 -5.09375,9.64454 -12.32812,16.36719 -23.1289,19.17188 -9.20704,2.39453 -18.38282,2.03906 -27.66407,0.92578 -1.44922,-0.16797 -3.83593,0.11328 -4.38672,1.03125 -3.61718,6.03125 -7.125,12.16406 -10.1289,18.51563 -0.38672,0.8164 -0.7461,1.64843 -1.07813,2.5 -0.32422,-0.4336 -0.65625,-0.86329 -0.98047,-1.29688"
         style="fill:#000000;fill-opacity:1;fill-rule:nonzero;stroke:none" />
      <path
         inkscape:connector-curvature="0"
         id="path874"
         d="m 441.76562,448.21484 h -7.74609 V 417.69141 H 422.8125 v -6.5586 h 30.16016 v 6.5586 h -11.20704 z m 0,0"
         style="fill:#000000;fill-opacity:1;fill-rule:nonzero;stroke:none" />
    </g>
    <path
       style="fill:#f8c719;fill-opacity:1;fill-rule:nonzero;stroke:none"
       d="m 397.69141,346.93359 c -4.65625,5.66407 -7.58204,12.29297 -10.13672,19.07422 -0.85547,2.26953 -1.60547,4.57813 -2.38672,6.875 -1.03125,-2.28125 -2.23828,-4.5 -3.60156,-6.65625 -0.16016,-0.26172 -0.33204,-0.51562 -0.5,-0.77344 0.76171,-1.11328 1.55468,-2.19921 2.38281,-3.26171 2.875,-3.71485 5.89062,-7.3086 8.94922,-10.875 1.375,-1.60157 2.98828,-2.9961 4.46093,-4.51172 0.10157,-0.10547 0.19532,-0.20703 0.28125,-0.3086 z m 0,0"
       id="path878"
       inkscape:connector-curvature="0" />
    <path
       style="fill:#000000;fill-opacity:1;fill-rule:nonzero;stroke:none"
       d="m 382.19531,365.46875 c 0.0586,0.0859 0.11328,0.17578 0.16797,0.26562 0.96875,1.53125 1.85547,3.09375 2.65234,4.66407 0.52735,-1.5625 1.07422,-3.15625 1.66016,-4.71875 1.69141,-4.48047 3.60938,-9.11719 6.21094,-13.49219 -2.67188,3.12109 -5.76953,6.79687 -8.69922,10.57812 -0.67969,0.87891 -1.34766,1.78516 -1.99219,2.70313 m 3.09375,9.96484 -0.97656,-2.16406 c -0.99219,-2.19531 -2.18359,-4.39453 -3.53906,-6.54297 -0.16016,-0.26172 -0.32422,-0.50781 -0.48828,-0.75781 l -0.34766,-0.52734 0.35547,-0.51954 c 0.76953,-1.125 1.58203,-2.23828 2.41406,-3.30468 3.03516,-3.91797 6.24219,-7.71485 8.98047,-10.91016 0.89062,-1.03906 1.87891,-1.99609 2.83594,-2.91797 0.5625,-0.53906 1.12109,-1.08203 1.66406,-1.63672 0.082,-0.0898 0.16797,-0.17968 0.25,-0.27343 l 0.58594,-0.67188 1.99609,1.58594 -0.60156,0.73828 c -4.69922,5.71094 -7.57422,12.41406 -9.98438,18.80859 -0.66406,1.75782 -1.27734,3.57813 -1.87109,5.33594 z m 0,0"
       id="path880"
       inkscape:connector-curvature="0" />
    <path
       style="fill:#f8c719;fill-opacity:1;fill-rule:nonzero;stroke:none"
       d="m 400.84766,345.23437 c -1.04297,-0.0312 -2.41797,0.80079 -3.125,1.65625 -0.0117,0.0117 -0.0234,0.0312 -0.0312,0.043 l -0.55079,-0.4375 c 1.41407,-1.64453 1.02735,-2.95703 -0.3789,-4.8125 -4.63281,-6.11718 -9.53125,-12.21093 -10.04297,-20.3164 -0.35156,-5.4961 1.69141,-10.33203 4.84766,-14.80078 4.26171,-6.04297 9.9375,-10.48047 16.24218,-14.07422 7.8711,-4.48828 15.96485,-8.59375 23.92188,-12.9375 8.66797,-4.72657 17.28125,-9.58203 24.74609,-16.11328 3.22656,-2.82422 6,-6.17579 9.02735,-9.33594 -0.38282,3.5664 -0.75782,7.23828 -1.15625,10.90625 -0.42579,3.875 -0.88282,7.75 -1.3125,11.625 -0.63672,5.73437 -1.28125,11.48047 -1.89454,17.22265 -0.38671,3.64454 -0.48046,7.33204 -1.125,10.92579 -1.19921,6.70703 -2.96875,13.23046 -6.16796,19.36328 -2.45704,4.71875 -5.44532,8.89843 -9.24219,12.59765 -3.6836,3.58203 -8.16406,5.82813 -12.90625,7.29297 -5.92578,1.83985 -12.125,2.42578 -18.35156,2.10938 -0.17969,-0.0156 -0.36329,-0.0195 -0.54297,-0.0312 -3.98828,-0.23828 -7.96875,-0.77735 -11.95703,-0.88282"
       id="path882"
       inkscape:connector-curvature="0" />
    <path
       style="fill:#000000;fill-opacity:1;fill-rule:nonzero;stroke:none"
       d="m 400.78906,344.29687 h 0.0859 c 2.37891,0.0625 4.78125,0.28125 7.10547,0.49219 1.60156,0.14453 3.25781,0.29297 4.8789,0.39063 l 0.55079,0.0312 c 1.03515,0.0547 2.08984,0.082 3.11718,0.082 5.28907,0 10.30078,-0.72266 14.89063,-2.14844 5.19531,-1.60937 9.29297,-3.92187 12.53125,-7.07031 3.58984,-3.4961 6.55469,-7.53906 9.0664,-12.35938 2.76172,-5.29297 4.69141,-11.35937 6.07813,-19.09375 0.41016,-2.30078 0.59766,-4.69922 0.77734,-7.01953 0.0977,-1.25781 0.20313,-2.55859 0.33594,-3.83984 0.51953,-4.86328 1.0625,-9.72266 1.60156,-14.57813 l 0.29297,-2.65234 c 0.19141,-1.71875 0.38672,-3.4375 0.58594,-5.15625 0.24609,-2.15625 0.49219,-4.30859 0.72656,-6.46484 0.24219,-2.20704 0.47266,-4.41016 0.70313,-6.59375 0.0508,-0.50782 0.10547,-1.01563 0.16015,-1.52735 -0.28906,0.31641 -0.57812,0.62891 -0.86328,0.94141 -1.99609,2.18359 -4.05859,4.4375 -6.32031,6.41797 -7.42188,6.49218 -16.01953,11.3789 -24.91797,16.22656 -3.05078,1.66797 -6.16797,3.32422 -9.1875,4.92578 -4.85156,2.57813 -9.87109,5.24219 -14.71484,8.00391 -6.98438,3.98047 -12.19922,8.49609 -15.94141,13.80078 -3.49609,4.94922 -4.98047,9.46094 -4.67969,14.20312 0.47266,7.44532 4.91407,13.29688 9.21094,18.95703 l 0.64453,0.85157 c 0.85547,1.13281 1.5625,2.33984 1.44141,3.66015 0.59375,-0.29297 1.23047,-0.48047 1.83984,-0.48047 m -2.78515,4.08594 -2.20704,-1.75781 0.63282,-0.73828 c 0.875,-1.01953 1.01172,-1.75 -0.41797,-3.63672 l -0.64453,-0.84766 c -4.46094,-5.88281 -9.07813,-11.96484 -9.58594,-19.97656 -0.32813,-5.11719 1.31641,-10.15625 5.01953,-15.39844 3.90234,-5.53515 9.31641,-10.23047 16.54297,-14.35156 4.87109,-2.77344 9.90234,-5.44531 14.76562,-8.03125 3.01172,-1.59766 6.12891,-3.25391 9.17188,-4.91406 8.79687,-4.79688 17.30078,-9.62891 24.58203,-15.9961 2.17578,-1.90625 4.11719,-4.02734 6.16797,-6.26953 0.90625,-0.99218 1.84375,-2.01562 2.79297,-3.00781 l 1.90234,-1.98828 -0.28906,2.73437 c -0.15234,1.42188 -0.30469,2.86329 -0.45703,4.3125 -0.23047,2.1836 -0.46094,4.39063 -0.70313,6.59766 -0.23437,2.15625 -0.48047,4.31641 -0.72656,6.47656 -0.19531,1.71485 -0.39453,3.4336 -0.58594,5.14844 l -0.29297,2.65234 c -0.53906,4.85157 -1.08203,9.71094 -1.59765,14.57032 -0.13281,1.2539 -0.23438,2.53906 -0.33203,3.78515 -0.1836,2.36719 -0.375,4.81641 -0.80469,7.20313 -1.41797,7.92578 -3.40625,14.16406 -6.26172,19.63281 -2.60156,5 -5.68359,9.19922 -9.41797,12.83594 -3.45703,3.36328 -7.80078,5.82031 -13.28515,7.51953 -5.69141,1.76562 -11.98829,2.48828 -18.67188,2.14453 l -0.5625,-0.0312 c -1.64062,-0.0977 -3.3125,-0.25 -4.92578,-0.39453 -2.29688,-0.20703 -4.66797,-0.42188 -6.98828,-0.48438 h -0.004 c -0.6875,0 -1.74609,0.58594 -2.33594,1.26954 z m 0,0"
       id="path884"
       inkscape:connector-curvature="0" />
    <path
       style="fill:#000000;fill-opacity:1;fill-rule:nonzero;stroke:none"
       d="m 383.44922,362.19141 c -0.82422,1.0625 -1.6211,2.14843 -2.38281,3.26171 -0.37891,-0.58593 -0.77344,-1.16406 -1.17579,-1.73828 4.34375,-5.15625 8.60938,-10.23828 12.90235,-15.29297 1.30469,-1.53125 3.59375,-2.84375 3.80469,-4.47265 0.17578,-1.26953 -2.26954,-2.80078 -3.375,-4.33985 -2.98829,-4.13281 -5.92969,-8.35546 -7.0625,-13.40625 -1.95704,-8.69531 0.39843,-16.28515 6.10156,-23.09375 4.17969,-4.99218 9.27344,-8.78125 14.83594,-11.9375 7.71093,-4.375 15.57421,-8.48046 23.38671,-12.67968 8.875,-4.77735 17.70704,-9.69922 25.23047,-16.42578 3.96875,-3.54297 7,-8.13282 10.45703,-12.24219 0.13672,-0.16406 0.29297,-0.3125 1,-0.38672 -0.17578,2.26562 -0.27343,4.54687 -0.54296,6.80469 -0.42579,3.625 -1.04297,7.23047 -1.42579,10.85547 -0.58203,5.50781 -0.875,11.05078 -1.55078,16.54296 -1.48047,12.05079 -1.54297,24.38282 -6.0039,35.88282 -2.51953,6.5039 -5.96875,12.53515 -11.07032,17.55468 -3.4414,3.38672 -7.38281,5.91407 -11.86718,7.26172 -4.60547,1.38282 -9.41797,2.55078 -14.1875,2.78907 -2.40235,0.11718 -4.8125,0.0547 -7.22657,-0.0899 l 0.0508,-0.89062 c 6.22265,0.3164 12.42578,-0.26953 18.34765,-2.10938 4.7461,-1.46484 9.22656,-3.71094 12.90625,-7.29297 3.80078,-3.69922 6.78906,-7.8789 9.2461,-12.59765 3.19921,-6.13282 4.96875,-12.65625 6.16796,-19.36328 0.64454,-3.59375 0.73829,-7.28125 1.125,-10.92579 0.61329,-5.74218 1.25782,-11.48828 1.89454,-17.22265 0.42968,-3.875 0.88671,-7.75 1.3125,-11.625 0.39843,-3.66797 0.77343,-7.33985 1.15625,-10.90625 -3.02735,3.16015 -5.80079,6.51172 -9.02735,9.33594 -7.46875,6.53125 -16.07812,11.38671 -24.75,16.11328 -7.95312,4.34375 -16.04687,8.44922 -23.91797,12.9375 -6.30468,3.59375 -11.98047,8.03125 -16.24218,14.07422 -3.15625,4.46875 -5.19922,9.30468 -4.84766,14.80078 0.51172,8.10547 5.41016,14.19922 10.04297,20.3164 1.40625,1.85547 1.79297,3.16797 0.3789,4.8125 -0.0859,0.10157 -0.17968,0.20313 -0.28125,0.3086 -1.47265,1.51562 -3.08593,2.91015 -4.46093,4.51172 -3.05469,3.5664 -6.07422,7.16015 -8.94922,10.875"
       id="path886"
       inkscape:connector-curvature="0" />
    <path
       style="fill:#000000;fill-opacity:1;fill-rule:nonzero;stroke:none"
       d="m 466.09375,251.39062 c -0.79688,0.98047 -1.57813,1.98047 -2.33984,2.95704 -0.42188,0.54296 -0.84766,1.08984 -1.28125,1.63281 0.76953,-0.83594 1.55468,-1.69141 2.35156,-2.52344 l 1.21484,-1.26953 c 0.0195,-0.24219 0.0352,-0.48047 0.0508,-0.71875 0,-0.0273 0.004,-0.0508 0.004,-0.0781 m -85.04688,115.75 -0.76562,-1.17578 c -0.375,-0.58203 -0.76563,-1.14843 -1.16016,-1.71484 l -0.41015,-0.58984 3.83203,-4.55079 c 3.1914,-3.79296 6.35547,-7.55078 9.53515,-11.29296 0.48047,-0.5625 1.0586,-1.08204 1.61719,-1.58204 0.92188,-0.82031 1.87891,-1.67187 1.97266,-2.41015 0.0469,-0.34375 -1.03125,-1.37891 -1.54688,-1.875 -0.59375,-0.57031 -1.20703,-1.16406 -1.66015,-1.79297 -3.27735,-4.53516 -6.08594,-8.69922 -7.21485,-13.75 -1.92968,-8.56641 0.1875,-16.60547 6.29688,-23.89844 3.84765,-4.59765 8.78515,-8.57031 15.09375,-12.15234 5.73828,-3.25391 11.65625,-6.41016 17.3789,-9.46485 2.00782,-1.07421 4.01954,-2.14453 6.02735,-3.22656 9.01953,-4.85156 17.72656,-9.75 25.04687,-16.29687 2.66797,-2.37891 4.96485,-5.32422 7.1875,-8.17578 1.02344,-1.3125 2.08594,-2.67188 3.17578,-3.97266 0.3711,-0.43359 0.8086,-0.62891 1.6211,-0.71484 l 1.12109,-0.11719 -0.0898,1.12109 c -0.0547,0.69531 -0.0977,1.39063 -0.14453,2.08594 -0.10547,1.55859 -0.21485,3.17187 -0.40235,4.75781 -0.1914,1.64063 -0.42578,3.30078 -0.65234,4.90625 -0.27734,1.94531 -0.5625,3.96094 -0.76953,5.9375 -0.25,2.35547 -0.44922,4.76563 -0.64063,7.08985 -0.25781,3.10937 -0.52734,6.32031 -0.91406,9.47265 -0.35937,2.92578 -0.64062,5.92578 -0.91016,8.82813 -0.85156,9.07422 -1.73046,18.46093 -5.14843,27.27734 -2.85547,7.36719 -6.54688,13.21875 -11.28516,17.88281 -3.69922,3.63672 -7.82422,6.15625 -12.25781,7.49219 -3.92578,1.17578 -9.11328,2.5625 -14.41016,2.82813 -2.16797,0.10546 -4.5039,0.0781 -7.32812,-0.0899 l -0.9336,-0.0547 0.15625,-2.75781 0.92969,0.0469 c 6.46875,0.32812 12.54297,-0.36328 18.02344,-2.06641 5.19531,-1.60937 9.29297,-3.92187 12.53125,-7.07031 3.58984,-3.4961 6.55469,-7.53906 9.0664,-12.35938 2.76172,-5.29297 4.69532,-11.35937 6.07813,-19.09375 0.41016,-2.30078 0.59766,-4.69922 0.77734,-7.01953 0.0977,-1.25781 0.20313,-2.55859 0.33594,-3.83984 0.51953,-4.85938 1.05859,-9.71875 1.60156,-14.57422 l 0.29297,-2.65625 c 0.19141,-1.71875 0.39063,-3.4375 0.58594,-5.15625 0.24609,-2.15625 0.49219,-4.3125 0.72656,-6.46875 0.24219,-2.20313 0.47266,-4.40625 0.70313,-6.58984 0.0508,-0.51172 0.10547,-1.01954 0.16015,-1.52735 -0.28906,0.31641 -0.57812,0.63281 -0.86328,0.94141 -1.99609,2.18359 -4.0625,4.4414 -6.32031,6.41797 -7.42188,6.49218 -16.01953,11.3789 -24.91797,16.23047 -3.04687,1.66406 -6.16797,3.32031 -9.1875,4.92187 -4.85156,2.57813 -9.87109,5.24219 -14.71484,8.00391 -6.98438,3.98047 -12.19922,8.49609 -15.94141,13.80078 -3.49609,4.94922 -4.98047,9.46094 -4.67969,14.20312 0.47266,7.44532 4.91407,13.29688 9.21094,18.95703 l 0.64453,0.85157 c 1.33594,1.76562 2.30469,3.71093 0.34375,5.99218 -0.0976,0.11329 -0.19922,0.22266 -0.30859,0.33594 -0.56641,0.58203 -1.14063,1.14063 -1.71485,1.69141 -0.92578,0.89453 -1.88281,1.8164 -2.71875,2.78906 -2.72265,3.17969 -5.91015,6.95313 -8.91796,10.83984 -0.8125,1.04297 -1.60157,2.125 -2.35157,3.21875 z m 0,0"
       id="path888"
       inkscape:connector-curvature="0" />
    <path
       style="fill:#000000;fill-opacity:1;fill-rule:nonzero;stroke:none"
       d="m 387.55469,366.00781 c 2.55468,-6.78125 5.48047,-13.41015 10.13672,-19.07422 0.008,-0.0117 0.0195,-0.0312 0.0312,-0.043 0.70703,-0.85546 2.08203,-1.6875 3.125,-1.65625 3.98828,0.10547 7.96875,0.64454 11.95703,0.88282 0.17968,0.0117 0.36328,0.0156 0.54297,0.0312 l -0.0508,0.89453 c -3.3789,-0.20313 -6.76562,-0.55078 -10.14843,-0.75781 -1.94532,-0.11719 -3.61719,-0.0742 -4.71485,2.05078 -2.59375,5.04687 -5.47265,9.95312 -8.02734,15.02343 -1.51953,3.00391 -2.82813,6.15625 -3.875,9.35157 -0.20313,0.60937 -0.42188,1.23047 -0.625,1.84765 -0.23828,-0.5625 -0.48438,-1.11718 -0.73828,-1.67578 0.78125,-2.29687 1.53125,-4.60547 2.38672,-6.875"
       id="path890"
       inkscape:connector-curvature="0" />
    <path
       style="fill:#000000;fill-opacity:1;fill-rule:nonzero;stroke:none"
       d="m 396.42187,350.16406 c -2.39843,3.42969 -4.26562,7.1211 -5.85546,10.82813 1.07031,-2.04688 2.18359,-4.07813 3.26953,-6.0586 0.85547,-1.5625 1.73047,-3.16406 2.58593,-4.76953 m -10.41406,27.05078 -0.96875,-2.29297 c -0.23047,-0.55078 -0.47265,-1.09765 -0.72265,-1.64453 l -0.15625,-0.33984 0.625,-1.85938 c 0.59765,-1.77343 1.21875,-3.60937 1.89062,-5.39843 2.45703,-6.51563 5.39453,-13.35938 10.22656,-19.26172 l 0.0234,-0.043 0.0781,-0.0859 c 0.82031,-0.99219 2.38281,-1.99219 3.78515,-1.99219 h 0.0859 c 2.37891,0.0625 4.78125,0.28125 7.10547,0.49219 1.60156,0.14453 3.25781,0.29297 4.8789,0.39063 l 1.47657,0.0937 -0.15625,2.75781 -0.9375,-0.0547 c -1.73828,-0.10156 -3.5,-0.24609 -5.20703,-0.38672 -1.6211,-0.13281 -3.30079,-0.26953 -4.94532,-0.37109 -0.32422,-0.0195 -0.64453,-0.0352 -0.95312,-0.0352 -1.30078,0 -2.1875,0.26172 -2.86719,1.57813 -1.22266,2.38281 -2.52734,4.76562 -3.78906,7.07031 -1.42188,2.59375 -2.89063,5.27344 -4.23828,7.94922 -1.5,2.96875 -2.78907,6.07031 -3.82032,9.21875 -0.11718,0.35547 -0.23828,0.71094 -0.36328,1.07031 -0.0859,0.26172 -0.17578,0.52344 -0.26562,0.78516 z m 0,0"
       id="path892"
       inkscape:connector-curvature="0" />
    <path
       style="fill:#f8c719;fill-opacity:1;fill-rule:nonzero;stroke:none"
       d="m 397.69141,346.93359 c -4.65625,5.66407 -7.58204,12.29297 -10.13672,19.07422 -0.85547,2.26953 -1.60547,4.57813 -2.38672,6.875 -1.03125,-2.28125 -2.23828,-4.5 -3.60156,-6.65625 -0.16016,-0.26172 -0.33204,-0.51562 -0.5,-0.77344 0.76171,-1.11328 1.55468,-2.19921 2.38281,-3.26171 2.875,-3.71485 5.89062,-7.3086 8.94922,-10.875 1.375,-1.60157 2.98828,-2.9961 4.46093,-4.51172 0.10157,-0.10547 0.19532,-0.20703 0.28125,-0.3086 z m 0,0"
       id="path894"
       inkscape:connector-curvature="0" />
    <path
       style="fill:#f8c81a;fill-opacity:1;fill-rule:nonzero;stroke:none"
       d="m 400.84766,345.23437 c -1.04297,-0.0312 -2.41797,0.80079 -3.125,1.65625 -0.0117,0.0117 -0.0234,0.0312 -0.0312,0.043 l -0.55079,-0.4375 c 1.41407,-1.64453 1.02735,-2.95703 -0.3789,-4.8125 -4.63281,-6.11718 -9.53125,-12.21093 -10.04297,-20.3164 -0.35156,-5.4961 1.69141,-10.33203 4.84766,-14.80078 4.26171,-6.04297 9.9375,-10.48047 16.24218,-14.07422 7.8711,-4.48828 15.96485,-8.59375 23.92188,-12.9375 8.66797,-4.72657 17.28125,-9.58203 24.74609,-16.11328 3.22656,-2.82422 6,-6.17579 9.02735,-9.33594 -0.38282,3.5664 -0.75782,7.23828 -1.15625,10.90625 -0.42579,3.875 -0.88282,7.75 -1.3125,11.625 -0.63672,5.73437 -1.28125,11.48047 -1.89454,17.22265 -0.38671,3.64454 -0.48046,7.33204 -1.125,10.92579 -1.19921,6.70703 -2.96875,13.23046 -6.16796,19.36328 -2.45704,4.71875 -5.44532,8.89843 -9.24219,12.59765 -3.6836,3.58203 -8.16406,5.82813 -12.90625,7.29297 -5.92578,1.83985 -12.125,2.42578 -18.35156,2.10938 -0.17969,-0.0156 -0.36329,-0.0195 -0.54297,-0.0312 -3.98828,-0.23828 -7.96875,-0.77735 -11.95703,-0.88282"
       id="path896"
       inkscape:connector-curvature="0" />
    <path
       style="fill:#000000;fill-opacity:1;fill-rule:nonzero;stroke:none"
       d="m 383.44922,362.19141 c -0.82422,1.0625 -1.6211,2.14843 -2.38281,3.26171 -0.37891,-0.58593 -0.77344,-1.16406 -1.17579,-1.73828 4.34375,-5.15625 8.60938,-10.23828 12.90235,-15.29297 1.30469,-1.53125 3.59375,-2.84375 3.80469,-4.47265 0.17578,-1.26953 -2.26954,-2.80078 -3.375,-4.33985 -2.98829,-4.13281 -5.92969,-8.35546 -7.0625,-13.40625 -1.95704,-8.69531 0.39843,-16.28515 6.10156,-23.09375 4.17969,-4.99218 9.27344,-8.78125 14.83594,-11.9375 7.71093,-4.375 15.57421,-8.48046 23.38671,-12.67968 8.875,-4.77735 17.70704,-9.69922 25.23047,-16.42578 3.96875,-3.54297 7,-8.13282 10.45703,-12.24219 0.13672,-0.16406 0.29297,-0.3125 1,-0.38672 -0.17578,2.26562 -0.27343,4.54687 -0.54296,6.80469 -0.42579,3.625 -1.04297,7.23047 -1.42579,10.85547 -0.58203,5.50781 -0.875,11.05078 -1.55078,16.54296 -1.48047,12.05079 -1.54297,24.38282 -6.0039,35.88282 -2.51953,6.5039 -5.96875,12.53515 -11.07032,17.55468 -3.4414,3.38672 -7.38281,5.91407 -11.86718,7.26172 -4.60547,1.38282 -9.41797,2.55078 -14.1875,2.78907 -2.40235,0.11718 -4.8125,0.0547 -7.22657,-0.0899 l 0.0508,-0.89062 c 6.22265,0.3164 12.42578,-0.26953 18.34765,-2.10938 4.7461,-1.46484 9.22656,-3.71094 12.90625,-7.29297 3.80078,-3.69922 6.78906,-7.8789 9.2461,-12.59765 3.19921,-6.13282 4.96875,-12.65625 6.16796,-19.36328 0.64454,-3.59375 0.73829,-7.28125 1.125,-10.92579 0.61329,-5.74218 1.25782,-11.48828 1.89454,-17.22265 0.42968,-3.875 0.88671,-7.75 1.3125,-11.625 0.39843,-3.66797 0.77343,-7.33985 1.15625,-10.90625 -3.02735,3.16015 -5.80079,6.51172 -9.02735,9.33594 -7.46875,6.53125 -16.07812,11.38671 -24.75,16.11328 -7.95312,4.34375 -16.04687,8.44922 -23.91797,12.9375 -6.30468,3.59375 -11.98047,8.03125 -16.24218,14.07422 -3.15625,4.46875 -5.19922,9.30468 -4.84766,14.80078 0.51172,8.10547 5.41016,14.19922 10.04297,20.3164 1.40625,1.85547 1.79297,3.16797 0.3789,4.8125 -0.0859,0.10157 -0.17968,0.20313 -0.28125,0.3086 -1.47265,1.51562 -3.08593,2.91015 -4.46093,4.51172 -3.05469,3.5664 -6.07422,7.16015 -8.94922,10.875"
       id="path898"
       inkscape:connector-curvature="0" />
    <path
       style="fill:#000000;fill-opacity:1;fill-rule:nonzero;stroke:none"
       d="m 387.55469,366.00781 c 2.55468,-6.78125 5.48047,-13.41015 10.13672,-19.07422 0.008,-0.0117 0.0195,-0.0312 0.0312,-0.043 0.70703,-0.85546 2.08203,-1.6875 3.125,-1.65625 3.98828,0.10547 7.96875,0.64454 11.95703,0.88282 0.17968,0.0117 0.36328,0.0156 0.54297,0.0312 l -0.0508,0.89453 c -3.3789,-0.20313 -6.76562,-0.55078 -10.14843,-0.75781 -1.94532,-0.11719 -3.61719,-0.0742 -4.71485,2.05078 -2.59375,5.04687 -5.47265,9.95312 -8.02734,15.02343 -1.51953,3.00391 -2.82813,6.15625 -3.875,9.35157 -0.20313,0.60937 -0.42188,1.23047 -0.625,1.84765 -0.23828,-0.5625 -0.48438,-1.11718 -0.73828,-1.67578 0.78125,-2.29687 1.53125,-4.60547 2.38672,-6.875"
       id="path900"
       inkscape:connector-curvature="0" />
    <path
       style="fill:#000000;fill-opacity:1;fill-rule:nonzero;stroke:none"
       d="m 444.20703,331.53516 h -7.23047 V 300.54687 H 436.875 l -6.92188,30.98829 h -7.59375 l -6.76562,-30.98829 h -0.10156 v 30.98829 h -7.23047 v -37.08204 h 11.30859 l 6.71485,29.23047 h 0.10546 L 433,294.45312 h 11.20703 z m 0,0"
       id="path902"
       inkscape:connector-curvature="0" />
    <path
       style="fill:#a8d157;fill-opacity:1;fill-rule:nonzero;stroke:none"
       d="m 373.5,456.93359 c -0.0469,-1.39062 -0.0156,-2.80859 0.11719,-4.26172 0.0859,-0.97656 0.19922,-1.94531 0.33203,-2.91796 -0.54688,-0.57422 -1.11719,-1.125 -1.70313,-1.64844 -4.35547,-3.87891 -9.07422,-7.36328 -13.4375,-11.2461 l -0.49218,0.50782 c 5.85546,5.6875 9.93359,12.66406 13.91796,19.67968 0.42188,-0.043 0.83985,-0.0859 1.26563,-0.11328"
       id="path906"
       inkscape:connector-curvature="0" />
    <path
       style="fill:#000000;fill-opacity:1;fill-rule:nonzero;stroke:none"
       d="m 364.91406,443.19141 c 2.23047,1.80859 4.53906,3.68359 6.70703,5.61328 0.45703,0.41015 0.90625,0.83593 1.33985,1.27734 -0.10938,0.81641 -0.19922,1.64453 -0.28125,2.50781 -0.0899,1.03907 -0.14063,2.07032 -0.14453,3.08203 -2.54297,-4.45703 -5.19532,-8.94921 -8.36719,-13.08593 0.25,0.20312 0.5,0.40625 0.74609,0.60547 m 9.51953,13.6914 c -0.043,-1.34765 -0.0117,-2.72265 0.11719,-4.125 0.0898,-0.99219 0.19922,-1.93359 0.32813,-2.875 l 0.0625,-0.44922 -0.3125,-0.32812 c -0.5625,-0.58594 -1.15235,-1.15625 -1.75782,-1.69922 -2.20312,-1.96094 -4.52734,-3.84766 -6.77734,-5.67188 -2.21484,-1.79687 -4.50391,-3.65234 -6.66406,-5.57421 l -0.66797,-0.59375 -1.76953,1.82031 0.67187,0.65234 c 5.66016,5.5 9.71875,12.3711 13.5586,19.12891 1.05859,-0.14844 2.13671,-0.23828 3.21093,-0.28516"
       id="path908"
       inkscape:connector-curvature="0" />
    <path
       style="fill:#a9d259;fill-opacity:1;fill-rule:nonzero;stroke:none"
       d="m 357.71484,433.04687 c -0.40234,0.98829 0.22657,3.04688 1.09375,3.8125 l -0.49218,0.50782 c -0.15235,-0.14844 -0.3086,-0.30469 -0.46485,-0.45313 -2.09765,-1.98437 -4.625,-0.57422 -6.78125,-0.008 -8.26172,2.16016 -16.5,3.53125 -25.13281,2.64844 -10.31641,-1.05469 -18.28125,-6.15235 -24.50781,-13.89844 -5.08985,-6.33203 -8.71485,-13.66797 -10.82032,-21.58203 -2.12109,-7.94531 -3.89453,-15.98438 -5.92578,-23.95313 -2.04687,-8.02343 -4.22656,-16.02343 -6.33593,-24.03515 -0.10547,-0.39453 -0.1211,-0.8086 -0.16016,-1.08594 3.48828,2.71484 6.78906,5.77344 10.53906,8.10937 7.70313,4.79688 15.89453,8.59375 24.58203,11.40235 7.64453,2.48047 15.10547,5.54687 22.60938,8.45703 7.38281,2.86328 14.57812,6.0625 20.54297,11.51172 4.64453,4.24219 8.30468,9.03906 9.05859,15.4414 0.67188,5.73829 -1.08984,11.06641 -3.71094,16.08594 -1.25781,2.40625 -3.0664,4.55078 -4.09375,7.03906"
       id="path910"
       inkscape:connector-curvature="0" />
    <path
       style="fill:#000000;fill-opacity:1;fill-rule:nonzero;stroke:none"
       d="m 279.65625,357.37891 c 0.58984,2.23046 1.1875,4.46093 1.78125,6.6875 1.37891,5.18359 2.80859,10.53906 4.15625,15.82031 0.86328,3.39062 1.69141,6.84375 2.49219,10.17969 1.08593,4.52343 2.21093,9.19921 3.42578,13.76562 2.11328,7.92578 5.69531,15.07031 10.64844,21.23828 6.54687,8.14453 14.35546,12.57813 23.875,13.55469 4.39843,0.44922 8.9375,0.33203 13.86718,-0.36328 3.3125,-0.46485 6.88672,-1.20313 10.9336,-2.26172 0.37109,-0.0977 0.75781,-0.22266 1.14843,-0.35156 0.78125,-0.25391 1.58594,-0.51172 2.42969,-0.63282 0.90235,-0.125 1.71094,-0.0625 2.44141,0.19532 -0.2461,-0.88672 -0.29297,-1.81641 -0.008,-2.51953 0.63281,-1.53516 1.53515,-2.92579 2.41015,-4.27735 0.59766,-0.92187 1.21485,-1.8789 1.71875,-2.83984 3.02735,-5.80078 4.17578,-10.73828 3.60938,-15.54297 -0.625,-5.31641 -3.32813,-9.89844 -8.75391,-14.85547 -6.10547,-5.57812 -13.65625,-8.77344 -20.25391,-11.33203 -1.5625,-0.60938 -3.125,-1.22266 -4.6875,-1.83594 -5.82421,-2.28515 -11.84765,-4.64844 -17.87109,-6.60156 -8.72266,-2.82422 -17.0625,-6.69141 -24.78906,-11.5 -2.63281,-1.64063 -5.0586,-3.63672 -7.40625,-5.57031 -0.38281,-0.31641 -0.77344,-0.63672 -1.16797,-0.95703 m 78.67969,81.3125 -0.8086,-0.78516 c -0.10156,-0.10156 -0.20703,-0.20703 -0.3125,-0.30469 -0.69531,-0.65625 -1.47265,-0.8789 -2.53906,-0.72656 -0.67969,0.0937 -1.41016,0.33203 -2.11328,0.55859 -0.42578,0.13672 -0.84766,0.27344 -1.25391,0.37891 -4.11328,1.07812 -7.76172,1.83203 -11.14453,2.30469 -5.08203,0.71484 -9.76562,0.83593 -14.32031,0.37109 -9.90234,-1.01172 -18.36328,-5.80469 -25.14453,-14.24219 -5.11719,-6.37109 -8.81641,-13.75 -10.9961,-21.93359 -1.22656,-4.58594 -2.35156,-9.27344 -3.4414,-13.80469 -0.79688,-3.33594 -1.625,-6.78125 -2.48438,-10.15625 -1.34765,-5.27344 -2.77343,-10.625 -4.15234,-15.80078 -0.73047,-2.74219 -1.46094,-5.48437 -2.18359,-8.22656 -0.0937,-0.34766 -0.12891,-0.6875 -0.15625,-0.95703 -0.008,-0.0859 -0.0156,-0.16797 -0.0274,-0.23828 l -0.32031,-2.29297 1.82812,1.42187 c 1.09766,0.85547 2.19141,1.75781 3.25,2.62891 2.30079,1.89453 4.67969,3.85156 7.20704,5.42969 7.59375,4.72656 15.79687,8.52734 24.375,11.30468 6.07812,1.97266 12.1289,4.34766 17.97656,6.64453 1.55859,0.60938 3.12109,1.22266 4.67969,1.82813 6.75781,2.62109 14.5,5.90234 20.83984,11.69922 5.78516,5.28125 8.67187,10.22265 9.35547,16.01953 0.60937,5.19922 -0.60156,10.48047 -3.8086,16.62891 -0.54687,1.04296 -1.1875,2.03125 -1.80859,2.99218 -0.86719,1.33594 -1.68359,2.59766 -2.25,3.96875 -0.21875,0.54297 0.22266,2.20313 0.84766,2.75782 l 0.73437,0.65234 z m 0,0"
       id="path912"
       inkscape:connector-curvature="0" />
    <path
       style="fill:#000000;fill-opacity:1;fill-rule:nonzero;stroke:none"
       d="m 370.73828,457.24609 c 0.49219,-0.0781 0.99219,-0.14843 1.49609,-0.19922 -3.98437,-7.01562 -8.0625,-13.99218 -13.91796,-19.67968 -0.15235,-0.14844 -0.3086,-0.30469 -0.46485,-0.45313 -2.09765,-1.98437 -4.625,-0.57422 -6.78125,-0.008 -8.26172,2.16016 -16.5,3.53125 -25.1289,2.64844 -10.31641,-1.05469 -18.28516,-6.15235 -24.51172,-13.89844 -5.08985,-6.33203 -8.71485,-13.66797 -10.82032,-21.58203 -2.12109,-7.94531 -3.89453,-15.98438 -5.92578,-23.95313 -2.04687,-8.02343 -4.22656,-16.02343 -6.33593,-24.03515 -0.10547,-0.39453 -0.1211,-0.8086 -0.16016,-1.08594 3.48828,2.71484 6.78906,5.77344 10.53906,8.11328 7.70313,4.79297 15.89453,8.58984 24.58203,11.39844 7.64453,2.48047 15.10547,5.54687 22.60938,8.45703 7.38281,2.86328 14.57812,6.05859 20.54297,11.51562 4.64062,4.23829 8.30078,9.03907 9.05859,15.4375 0.67188,5.73829 -1.08984,11.06641 -3.71094,16.08594 -1.25781,2.40625 -3.0664,4.55078 -4.09375,7.03906 -0.40234,0.98829 0.23047,3.04688 1.09375,3.81641 4.36328,3.87891 9.08203,7.36328 13.4375,11.24219 0.58594,0.52344 1.15625,1.07422 1.70313,1.64844 0.0781,-0.6211 0.16797,-1.2461 0.26562,-1.875 -0.65234,-0.61329 -1.30468,-1.21485 -1.99218,-1.78125 -4.22657,-3.53516 -8.52344,-6.98047 -12.71485,-10.54688 -0.39453,-0.33594 -0.61719,-1.47656 -0.35937,-1.89844 3.90234,-6.34375 7.54687,-12.66015 7.6289,-20.53125 0.0664,-6.29297 -1.92578,-11.61328 -5.875,-16.28906 -6.41406,-7.59375 -15.07812,-11.66406 -24.09765,-15.12109 -7.48047,-2.86719 -15.00782,-5.61328 -22.46485,-8.53125 -5.75781,-2.24219 -11.51562,-4.4961 -17.1289,-7.04688 -5.50782,-2.49219 -10.64453,-5.67969 -14.99219,-9.97656 -1.94141,-1.92188 -3.90234,-3.82422 -6.38281,-6.25391 0.23437,1.65235 0.26562,2.55469 0.49218,3.40235 2.0586,7.77734 4.22266,15.53125 6.21875,23.32422 2.0586,8.03515 4.01563,16.09375 5.91407,24.16796 2.05078,8.76172 5.5039,16.82813 10.80468,24.16797 6.39063,8.84766 14.49219,14.5 25.57813,15.77344 9.44922,1.08203 18.48437,-0.54687 27.51953,-2.93359 1.41406,-0.375 3.81641,-0.42188 4.48828,0.41015 4.42188,5.46485 8.75,11.05469 12.60938,16.92188 0.45312,0.6875 0.86328,1.39453 1.27734,2.10937"
       id="path914"
       inkscape:connector-curvature="0" />
    <path
       style="fill:#000000;fill-opacity:1;fill-rule:nonzero;stroke:none"
       d="m 359.02734,439.42187 c 2.78125,2.9375 5.16797,6.21094 7.35157,9.60938 -2.53125,-3.50781 -5.08594,-6.78125 -7.35157,-9.60938 m -4.61328,-4.40625 c -0.84375,0.11719 -1.64844,0.37891 -2.42969,0.63282 -0.39453,0.1289 -0.77734,0.2539 -1.15234,0.35156 -4.04297,1.05469 -7.61719,1.79687 -10.92578,2.26172 h -0.004 c -4.92968,0.69531 -9.46484,0.8125 -13.86718,0.36328 -9.51954,-0.97656 -17.32813,-5.41016 -23.875,-13.55469 -4.95313,-6.16406 -8.53516,-13.3125 -10.64844,-21.23828 -1.21485,-4.56641 -2.33985,-9.24219 -3.42578,-13.76562 -0.80078,-3.33985 -1.62891,-6.78907 -2.49219,-10.17969 -1.34766,-5.28125 -2.77734,-10.63672 -4.15625,-15.81641 -0.59766,-2.23047 -1.19141,-4.46094 -1.78125,-6.6914 0.39453,0.32031 0.78516,0.64062 1.16797,0.95703 2.34765,1.93359 4.77734,3.92968 7.40625,5.57031 7.72656,4.80859 16.0664,8.67578 24.78906,11.5 6.02344,1.95312 12.04688,4.31641 17.87109,6.60156 1.5625,0.61328 3.125,1.22656 4.6875,1.83594 6.59766,2.55859 14.15235,5.75391 20.25391,11.33203 5.42578,4.95703 8.12891,9.53906 8.75391,14.85547 0.5664,4.80469 -0.58203,9.74219 -3.60938,15.54297 -0.5039,0.96484 -1.12109,1.91797 -1.71875,2.83984 -0.875,1.34766 -1.77734,2.7461 -2.41015,4.27735 -0.28516,0.70312 -0.23829,1.63671 0.008,2.51953 -0.73047,-0.25782 -1.53906,-0.32032 -2.44141,-0.19532 m -77.17969,-81.94921 c 0,0 0,-0.004 0,-0.004 -0.0508,-0.19141 -0.0898,-0.39063 -0.1289,-0.60938 l 0.22265,0.21485 c 0.85157,0.83594 1.64844,1.61328 2.42188,2.37109 -0.32813,-0.26172 -0.65625,-0.52344 -0.98438,-0.78125 z m 92.52344,104.34375 c 1.13281,-0.22266 2.3125,-0.375 3.5,-0.46485 -2.76562,-4.87109 -5.61719,-9.82812 -9.08984,-14.35937 0.25,0.20312 0.5,0.40625 0.74609,0.60547 2.23047,1.80859 4.53906,3.68359 6.70703,5.61328 0.57032,0.50781 1.125,1.04687 1.65235,1.59765 l 1.36718,1.42969 0.23829,-1.96484 c 0.0781,-0.60938 0.16406,-1.22266 0.26562,-1.83594 l 0.0781,-0.49219 -0.36329,-0.33984 c -0.73828,-0.69531 -1.36718,-1.26953 -2.03515,-1.82031 -1.76172,-1.47657 -3.53516,-2.9336 -5.3125,-4.39454 -2.4375,-2.0039 -4.95703,-4.07421 -7.36328,-6.11328 -0.10547,-0.13672 -0.19922,-0.58593 -0.17188,-0.78125 4.1875,-6.80468 7.65625,-13.08203 7.73438,-20.95703 0.0703,-6.4414 -1.92188,-11.96875 -6.09375,-16.90625 -6.59766,-7.8164 -15.66407,-12.01562 -24.47266,-15.39062 -3.08984,-1.17969 -6.1875,-2.34375 -9.28125,-3.50782 -4.32812,-1.625 -8.80469,-3.30859 -13.18359,-5.01953 -5.60938,-2.1875 -11.40625,-4.45312 -17.08203,-7.02734 -5.98438,-2.71094 -10.80079,-5.91406 -14.71875,-9.79297 -1.34766,-1.33594 -2.70704,-2.66016 -4.24219,-4.16016 l -4.10938,-4.02343 0.38282,2.72656 c 0.082,0.58984 0.13671,1.07812 0.1875,1.50781 0.0898,0.78125 0.16015,1.39844 0.32421,2.00391 0.79688,3.00781 1.60547,6.01172 2.41797,9.01562 1.26563,4.6836 2.57422,9.52735 3.80078,14.30078 1.91016,7.47266 3.84375,15.3711 5.90625,24.14844 2.17969,9.30078 5.76563,17.31641 10.96094,24.50391 6.96094,9.64453 15.53906,14.92969 26.23047,16.16015 4.82422,0.55079 9.82422,0.44532 15.29297,-0.32031 3.76562,-0.53125 7.76172,-1.37109 12.57422,-2.64062 0.21875,-0.0586 0.47656,-0.10938 0.74609,-0.14844 1.52344,-0.21094 2.59766,0.0391 2.77344,0.24219 3.65625,4.51953 8.39062,10.51953 12.55469,16.84765 0.3789,0.57422 0.73047,1.16407 1.07812,1.75782"
       id="path916"
       inkscape:connector-curvature="0" />
    <path
       style="fill:#a8d157;fill-opacity:1;fill-rule:nonzero;stroke:none"
       d="m 373.5,456.93359 c -0.0469,-1.39062 -0.0156,-2.80859 0.11719,-4.26172 0.0859,-0.97656 0.19922,-1.94531 0.33203,-2.91796 -0.54688,-0.57422 -1.11719,-1.125 -1.70313,-1.64844 -4.35547,-3.87891 -9.07422,-7.36328 -13.4375,-11.2461 l -0.49218,0.50782 c 5.85546,5.6875 9.93359,12.66406 13.91796,19.67968 0.42188,-0.043 0.83985,-0.0859 1.26563,-0.11328"
       id="path918"
       inkscape:connector-curvature="0" />
    <path
       style="fill:#a9d259;fill-opacity:1;fill-rule:nonzero;stroke:none"
       d="m 357.71484,433.04687 c -0.40234,0.98829 0.22657,3.04688 1.09375,3.8125 l -0.49218,0.50782 c -0.15235,-0.14844 -0.3086,-0.30469 -0.46485,-0.45313 -2.09765,-1.98437 -4.625,-0.57422 -6.78125,-0.008 -8.26172,2.16016 -16.5,3.53125 -25.13281,2.64844 -10.31641,-1.05469 -18.28125,-6.15235 -24.50781,-13.89844 -5.08985,-6.33203 -8.71485,-13.66797 -10.82032,-21.58203 -2.12109,-7.94531 -3.89453,-15.98438 -5.92578,-23.95313 -2.04687,-8.02343 -4.22656,-16.02343 -6.33593,-24.03515 -0.10547,-0.39453 -0.1211,-0.8086 -0.16016,-1.08594 3.48828,2.71484 6.78906,5.77344 10.53906,8.10937 7.70313,4.79688 15.89453,8.59375 24.58203,11.40235 7.64453,2.48047 15.10547,5.54687 22.60938,8.45703 7.38281,2.86328 14.57812,6.0625 20.54297,11.51172 4.64453,4.24219 8.30468,9.03906 9.05859,15.4414 0.67188,5.73829 -1.08984,11.06641 -3.71094,16.08594 -1.25781,2.40625 -3.0664,4.55078 -4.09375,7.03906"
       id="path920"
       inkscape:connector-curvature="0" />
    <path
       style="fill:#000000;fill-opacity:1;fill-rule:nonzero;stroke:none"
       d="m 370.73828,457.24609 c 0.49219,-0.0781 0.99219,-0.14843 1.49609,-0.19922 -3.98437,-7.01562 -8.0625,-13.99218 -13.91796,-19.67968 -0.15235,-0.14844 -0.3086,-0.30469 -0.46485,-0.45313 -2.09765,-1.98437 -4.625,-0.57422 -6.78125,-0.008 -8.26172,2.16016 -16.5,3.53125 -25.1289,2.64844 -10.31641,-1.05469 -18.28516,-6.15235 -24.51172,-13.89844 -5.08985,-6.33203 -8.71485,-13.66797 -10.82032,-21.58203 -2.12109,-7.94531 -3.89453,-15.98438 -5.92578,-23.95313 -2.04687,-8.02343 -4.22656,-16.02343 -6.33593,-24.03515 -0.10547,-0.39453 -0.1211,-0.8086 -0.16016,-1.08594 3.48828,2.71484 6.78906,5.77344 10.53906,8.11328 7.70313,4.79297 15.89453,8.58984 24.58203,11.39844 7.64453,2.48047 15.10547,5.54687 22.60938,8.45703 7.38281,2.86328 14.57812,6.05859 20.54297,11.51562 4.64062,4.23829 8.30078,9.03907 9.05859,15.4375 0.67188,5.73829 -1.08984,11.06641 -3.71094,16.08594 -1.25781,2.40625 -3.0664,4.55078 -4.09375,7.03906 -0.40234,0.98829 0.23047,3.04688 1.09375,3.81641 4.36328,3.87891 9.08203,7.36328 13.4375,11.24219 0.58594,0.52344 1.15625,1.07422 1.70313,1.64844 0.0781,-0.6211 0.16797,-1.2461 0.26562,-1.875 -0.65234,-0.61329 -1.30468,-1.21485 -1.99218,-1.78125 -4.22657,-3.53516 -8.52344,-6.98047 -12.71485,-10.54688 -0.39453,-0.33594 -0.61719,-1.47656 -0.35937,-1.89844 3.90234,-6.34375 7.54687,-12.66015 7.6289,-20.53125 0.0664,-6.29297 -1.92578,-11.61328 -5.875,-16.28906 -6.41406,-7.59375 -15.07812,-11.66406 -24.09765,-15.12109 -7.48047,-2.86719 -15.00782,-5.61328 -22.46485,-8.53125 -5.75781,-2.24219 -11.51562,-4.4961 -17.1289,-7.04688 -5.50782,-2.49219 -10.64453,-5.67969 -14.99219,-9.97656 -1.94141,-1.92188 -3.90234,-3.82422 -6.38281,-6.25391 0.23437,1.65235 0.26562,2.55469 0.49218,3.40235 2.0586,7.77734 4.22266,15.53125 6.21875,23.32422 2.0586,8.03515 4.01563,16.09375 5.91407,24.16796 2.05078,8.76172 5.5039,16.82813 10.80468,24.16797 6.39063,8.84766 14.49219,14.5 25.57813,15.77344 9.44922,1.08203 18.48437,-0.54687 27.51953,-2.93359 1.41406,-0.375 3.81641,-0.42188 4.48828,0.41015 4.42188,5.46485 8.75,11.05469 12.60938,16.92188 0.45312,0.6875 0.86328,1.39453 1.27734,2.10937"
       id="path922"
       inkscape:connector-curvature="0" />
    <path
       style="fill:#000000;fill-opacity:1;fill-rule:nonzero;stroke:none"
       d="m 324.93353,405.82474 c 5.73047,-0.80468 5.15234,-4.89843 4.92187,-6.53125 -0.5,-3.58203 -2.70312,-4.78515 -7.46094,-4.11718 l -6.08593,0.85547 1.51562,10.79296 z m -4.35547,20.58594 -7.67188,1.07813 -5.16015,-36.71875 16.77343,-2.35938 c 7.10938,-1 12.04688,2.94922 13.0586,10.16016 0.46875,3.32422 -0.19531,11.97265 -10.06641,13.35937 l -8.79687,1.23438 z m 0,0"
       id="path924"
       inkscape:connector-curvature="0" />
    <g
       style="fill:#000000;fill-opacity:1"
       id="g936">
      <flowRoot
         xml:space="preserve"
         id="flowRoot1020"
         style="font-style:normal;font-variant:normal;font-weight:normal;font-stretch:normal;font-size:146.66667175px;line-height:1.25;font-family:sans-serif;-inkscape-font-specification:sans-serif;letter-spacing:0px;word-spacing:0px;fill:#000000;fill-opacity:1;stroke:none"
         transform="matrix(0.75000002,0,0,0.75000002,-9.4741456,160.66572)"><flowRegion
           id="flowRegion1022"
           style="font-style:normal;font-variant:normal;font-weight:normal;font-stretch:normal;font-size:146.66667175px;font-family:sans-serif;-inkscape-font-specification:sans-serif"><rect
             id="rect1024"
             width="549.50043"
             height="193.69363"
             x="663.71649"
             y="197.15067"
             style="font-style:normal;font-variant:normal;font-weight:normal;font-stretch:normal;font-size:146.66667175px;font-family:sans-serif;-inkscape-font-specification:sans-serif" /></flowRegion><flowPara
           id="flowPara1026">SPRIG</flowPara></flowRoot>    </g>
    <path
       style="fill:#b5def0;fill-opacity:1;fill-rule:nonzero;stroke:none"
       d="m 352.06641,332.26562 c 0.375,0.55469 0.75,1.11329 1.11328,1.67579 -2.70703,-1.375 -5.82422,0.2539 -7.10547,2.75 -0.84375,-2.39454 -1.70703,-4.77735 -2.61719,-7.13672 -2.44531,-6.33985 -5.26953,-12.51563 -9.42187,-17.91797 l 0.70312,-0.60938 c 3.47266,4.07813 7.32422,7.83985 10.76563,11.9375 2.4375,2.89453 4.44531,6.15235 6.5625,9.30078"
       id="path938"
       inkscape:connector-curvature="0" />
    <path
       style="fill:#000000;fill-opacity:1;fill-rule:nonzero;stroke:none"
       d="m 346.35547,334.67969 c -0.73438,-2.04688 -1.38672,-3.8125 -2.02735,-5.46485 -1.52343,-3.95703 -3.37109,-8.35937 -5.8789,-12.66015 0.26172,0.28125 0.52344,0.5625 0.78125,0.83984 1.85937,1.99609 3.78125,4.0625 5.55859,6.17578 1.87891,2.23047 3.53906,4.7461 5.14453,7.17969 0.38672,0.58594 0.77344,1.16797 1.16407,1.75391 -1.74219,0 -3.48829,0.83203 -4.74219,2.17578 m 7.61328,-1.2461 c -0.36719,-0.5664 -0.74609,-1.1289 -1.125,-1.6914 -0.44922,-0.67188 -0.89844,-1.34766 -1.34375,-2.02735 -1.63672,-2.47656 -3.32813,-5.03906 -5.27734,-7.35156 -1.80469,-2.14844 -3.7461,-4.23047 -5.6211,-6.24609 -1.71875,-1.84766 -3.49609,-3.75391 -5.15234,-5.69532 l -0.61328,-0.71875 -2.08203,1.80079 0.53906,0.70312 c 4.37109,5.69141 7.14844,12.13281 9.28906,17.68359 0.80078,2.07032 1.62891,4.33204 2.60938,7.11329 l 0.47265,1.34375 c 0.10547,0.19531 0.21094,0.38671 0.3125,0.58203 l 0.92969,-1.8086 c 0.83203,-1.61718 2.55469,-2.74218 4.19141,-2.74218 0.57812,0 1.13671,0.13281 1.65625,0.39843 l 3.09375,1.57032 z m 0,0"
       id="path940"
       inkscape:connector-curvature="0" />
    <path
       style="fill:#b5def0;fill-opacity:1;fill-rule:nonzero;stroke:none"
       d="m 334.03516,311.63672 c -0.27344,-0.35938 -0.55469,-0.71485 -0.84375,-1.07031 -1.69141,-2.07422 -4.35547,-1.10157 -6.5,-0.84375 -8.54688,1.03125 -16.98438,1.32421 -25.45313,-0.90625 -4.75,-1.24219 -9.08203,-3.23829 -12.84375,-6.1875 -4.16406,-3.26172 -7.33203,-7.48047 -9.9375,-12.16016 -3.30859,-5.92578 -5.38281,-12.25 -6.72656,-18.83203 -0.67969,-3.34375 -1.08594,-6.7461 -1.47266,-10.14063 -0.71484,-6.29687 -1.33984,-12.60937 -1.96875,-18.91797 -0.52734,-5.1875 -0.98828,-10.3789 -1.51953,-15.55859 -0.3125,-2.98437 -0.70703,-5.95312 -1.13672,-9.54687 1.85938,2.22656 3.29297,4.00781 4.80469,5.72656 4.32422,4.91797 9.50781,8.83594 15.08203,12.15625 6.85938,4.07422 13.89844,7.85547 20.91016,11.66797 4.62109,2.51172 9.53125,4.52343 13.94922,7.33203 8.18359,5.19922 16.53906,10.39844 21.41796,19.2539 3.59375,6.52735 4.48829,13.45704 0.70704,20.19532 -2.5,4.45703 -5.80469,8.44922 -8.46875,12.82422 -0.56641,0.9375 -0.44141,3.0625 0.25781,3.88671 0.14453,0.17579 0.29297,0.34375 0.44531,0.51172 z m 0,0"
       id="path942"
       inkscape:connector-curvature="0" />
    <path
       style="fill:#000000;fill-opacity:1;fill-rule:nonzero;stroke:none"
       d="m 266.94922,220.52734 c 0.008,0.0508 0.0117,0.10157 0.0195,0.15235 0.26562,2.16797 0.51953,4.21875 0.73047,6.24218 0.28125,2.72266 0.53906,5.44922 0.80078,8.17579 0.23437,2.46093 0.47266,4.92578 0.71875,7.38671 l 0.13281,1.33204 c 0.57813,5.76562 1.17578,11.72656 1.83594,17.57812 0.41016,3.58203 0.80078,6.8125 1.46094,10.05469 1.44922,7.09765 3.61718,13.16797 6.625,18.5625 2.84765,5.10937 6.01953,8.99609 9.69922,11.8789 3.48828,2.73438 7.69531,4.75782 12.5,6.01954 4.23437,1.11328 8.71093,1.65625 13.6875,1.65625 3.41015,0 7.03906,-0.2461 11.42187,-0.77344 0.36719,-0.0469 0.75391,-0.11328 1.14453,-0.17969 0.80469,-0.13672 1.63672,-0.28125 2.48047,-0.28125 1,0 1.85156,0.21094 2.57031,0.64063 -0.11718,-1.02344 0.0234,-2.11719 0.45703,-2.82813 1.20313,-1.98047 2.55079,-3.90234 3.85547,-5.75781 1.58985,-2.26953 3.23438,-4.61328 4.59766,-7.04297 3.32031,-5.91406 3.08203,-12.39844 -0.71094,-19.28125 -4.67187,-8.48047 -12.78906,-13.63672 -20.64062,-18.625 l -0.45703,-0.29297 c -2.6836,-1.70312 -5.6211,-3.14062 -8.46485,-4.53906 -1.78906,-0.875 -3.64453,-1.78516 -5.42969,-2.75781 l -2.17968,-1.1836 c -6.19532,-3.36328 -12.59766,-6.83984 -18.76563,-10.5039 -6.28906,-3.74219 -11.29297,-7.78125 -15.30469,-12.34375 -0.92578,-1.04688 -1.80078,-2.10157 -2.78515,-3.28907 m 66.94922,92.46485 -0.60547,-0.78516 c -0.26953,-0.35156 -0.54688,-0.69922 -0.82813,-1.05078 -0.53515,-0.65625 -1.23437,-0.94922 -2.25781,-0.94922 -0.68359,0 -1.4375,0.12891 -2.16016,0.25391 -0.42578,0.0742 -0.84375,0.14453 -1.24218,0.1914 -4.45703,0.53907 -8.15625,0.78907 -11.64453,0.78907 -5.14063,0 -9.77344,-0.5625 -14.16016,-1.71875 -5.05859,-1.32422 -9.49609,-3.46094 -13.18359,-6.35547 -3.88282,-3.04297 -7.21094,-7.11328 -10.17969,-12.44532 -3.10547,-5.5625 -5.33594,-11.80859 -6.82422,-19.09765 -0.67578,-3.31641 -1.07422,-6.58985 -1.48828,-10.21875 -0.66406,-5.86719 -1.25781,-11.83203 -1.83594,-17.60156 l -0.13281,-1.33204 c -0.25,-2.46484 -0.48438,-4.92968 -0.72266,-7.39843 -0.25781,-2.71875 -0.51953,-5.44141 -0.79687,-8.16016 -0.21094,-2.00391 -0.46094,-4.04297 -0.73047,-6.20312 -0.12891,-1.0586 -0.26563,-2.15625 -0.40625,-3.32422 l -0.375,-3.13282 2.02734,2.41797 c 0.60547,0.72657 1.16406,1.40235 1.69922,2.04297 1.11328,1.35156 2.07813,2.51563 3.08984,3.66406 3.88282,4.41407 8.74219,8.32813 14.85938,11.97266 6.13281,3.64063 12.51953,7.10938 18.69922,10.46484 l 2.17969,1.1836 c 1.7539,0.95312 3.58593,1.85547 5.36328,2.72656 2.88672,1.41406 5.87109,2.87891 8.64062,4.63672 l 0.45703,0.29297 c 8.05078,5.11328 16.375,10.40234 21.28125,19.30078 4.1211,7.48828 4.35938,14.58984 0.70313,21.10547 -1.41016,2.51172 -3.08203,4.89453 -4.69922,7.20312 -1.28516,1.83203 -2.61719,3.72657 -3.78906,5.65235 -0.36719,0.60547 -0.26563,2.27734 0.17187,2.79297 0.14063,0.17187 0.28125,0.32812 0.41797,0.48437 l 0.62891,0.70703 z m 0,0"
       id="path944"
       inkscape:connector-curvature="0" />
    <path
       style="fill:#000000;fill-opacity:1;fill-rule:nonzero;stroke:none"
       d="m 355.51953,334.73828 c -0.73437,-1.11719 -1.60547,-2.20312 -2.33984,-3.27734 -2.41797,-3.53125 -4.8125,-7.10547 -7.53516,-10.40235 -3.24609,-3.91797 -6.85156,-7.54297 -10.22656,-11.35547 -0.42969,-0.48828 -0.82031,-1.63671 -0.5625,-2 1.42969,-2.01953 3.11719,-3.84765 4.63672,-5.80468 8.38281,-10.79297 8.85547,-23.88282 -0.49219,-34.65235 -5.34375,-6.15234 -11.98828,-10.42187 -18.92578,-14.35547 -6.96875,-3.94921 -14.09375,-7.62109 -21.08594,-11.54296 -5.45703,-3.05469 -10.94531,-6.08594 -16.18359,-9.5 -4.91016,-3.20313 -9.48438,-6.91797 -13.03516,-11.72266 -1.625,-2.20703 -3.37109,-4.33203 -5.48047,-7.03125 0,1.72266 -0.10937,2.76953 0.0156,3.79297 1.12109,9.52344 2.32812,19.03515 3.40234,28.5625 0.90625,8.0039 1.51172,16.04297 2.52344,24.03125 1.13672,8.99219 4.04297,17.4414 9.01172,25.0664 5.00781,7.6836 11.78125,12.88282 20.85547,15.23047 9.21484,2.38282 18.38281,2.05078 27.65625,0.9336 1.36328,-0.16407 3.21875,-0.13672 4.12109,0.64453 1.54297,1.32422 2.67969,3.21875 3.67187,5.04687 2.32813,4.29688 4.73438,8.58203 6.58985,13.08985 0.70703,1.71875 1.17969,3.53906 1.60937,5.3789 0.625,1.09766 1.23828,2.20313 1.83203,3.31641 0.0937,-0.51953 0.25391,-1.02344 0.4961,-1.49609 -0.84375,-2.39454 -1.70703,-4.77735 -2.6211,-7.13672 -2.4414,-6.33985 -5.26562,-12.51563 -9.41796,-17.91797 -0.27344,-0.35938 -0.55469,-0.71485 -0.84375,-1.07031 -1.69141,-2.07422 -4.35547,-1.10157 -6.5,-0.84375 -8.54688,1.03125 -16.98438,1.32421 -25.45313,-0.90625 -4.75,-1.24219 -9.08203,-3.23829 -12.84375,-6.1875 -4.16406,-3.26172 -7.33203,-7.48047 -9.9375,-12.16016 -3.30859,-5.92578 -5.38281,-12.25 -6.72656,-18.83203 -0.67969,-3.34375 -1.08594,-6.7461 -1.47266,-10.14063 -0.71484,-6.29687 -1.33984,-12.60937 -1.96875,-18.91797 -0.52734,-5.18359 -0.98828,-10.3789 -1.51953,-15.55859 -0.3125,-2.98437 -0.70703,-5.95312 -1.13672,-9.54687 1.85938,2.22656 3.29297,4.00781 4.80469,5.72656 4.32422,4.91797 9.50781,8.83594 15.08203,12.15625 6.85938,4.07422 13.89844,7.85547 20.91016,11.66797 4.62109,2.51172 9.53125,4.52343 13.94922,7.33203 8.18359,5.19922 16.53906,10.39844 21.41796,19.2539 3.59766,6.52735 4.48829,13.45704 0.70704,20.19532 -2.5,4.45703 -5.80469,8.44922 -8.46875,12.82422 -0.56641,0.9375 -0.44141,3.0625 0.25781,3.88671 0.14453,0.17579 0.29297,0.34375 0.44531,0.51172 3.47266,4.07813 7.32422,7.83985 10.76563,11.9375 2.4375,2.89453 4.44531,6.15235 6.5625,9.30078 0.375,0.55469 0.75,1.11329 1.11328,1.67579 0.54297,0.27343 1.07422,0.67578 1.57031,1.21093 0.70312,0.76953 1.41016,1.54297 2.11719,2.3125 -0.20703,-0.73437 -0.5625,-1.45312 -0.98828,-2.15625 -0.125,-0.1875 -0.24219,-0.3789 -0.35938,-0.57031"
       id="path946"
       inkscape:connector-curvature="0" />
    <path
       style="fill:#000000;fill-opacity:1;fill-rule:nonzero;stroke:none"
       d="m 333.23437,306.14063 c -0.43359,0.71484 -0.57421,1.80859 -0.45703,2.83203 -0.71875,-0.42969 -1.57031,-0.64063 -2.57031,-0.64063 -0.84375,0 -1.67578,0.14063 -2.48047,0.28125 -0.39062,0.0664 -0.77734,0.13281 -1.14453,0.17969 -4.38281,0.52734 -8.01172,0.77344 -11.42187,0.77344 -4.97657,0 -9.45313,-0.54297 -13.6875,-1.65625 -4.8086,-1.25782 -9.01172,-3.28516 -12.5,-6.01954 -3.67969,-2.88281 -6.85157,-6.76953 -9.69922,-11.88281 -3.00782,-5.39062 -5.17578,-11.46093 -6.625,-18.55859 -0.66016,-3.24219 -1.05078,-6.47266 -1.46094,-10.05859 -0.66016,-5.85157 -1.25781,-11.81251 -1.83594,-17.58204 l -0.13281,-1.32421 c -0.24609,-2.45313 -0.48047,-4.91016 -0.71484,-7.36719 -0.26172,-2.73438 -0.52344,-5.46485 -0.80469,-8.19922 -0.21094,-2.01953 -0.46485,-4.07031 -0.73047,-6.23828 -0.008,-0.0508 -0.0117,-0.10157 -0.0195,-0.15235 0.98437,1.1875 1.85937,2.23828 2.78515,3.29297 4.01172,4.5586 9.01563,8.59766 15.30469,12.33985 6.16797,3.66406 12.57422,7.14062 18.76563,10.5039 l 2.17968,1.1836 c 1.78516,0.97265 3.64063,1.8789 5.42969,2.76171 2.84375,1.39063 5.78125,2.83594 8.46485,4.53516 l 0.45703,0.29297 c 7.85156,4.98828 15.96875,10.14453 20.64062,18.625 3.79297,6.88281 4.03125,13.36719 0.71094,19.28125 -1.36328,2.42969 -3.00781,4.77344 -4.59766,7.04297 -1.30468,1.85547 -2.64843,3.77734 -3.85547,5.75391 m 5.51563,-4.81641 c -0.0898,0.11719 -0.18359,0.23437 -0.27734,0.35547 0.0508,-0.0703 0.10156,-0.14453 0.15234,-0.21485 0.875,-1.25 1.76562,-2.51953 2.625,-3.82421 -0.72656,1.24218 -1.55859,2.47265 -2.5,3.68359 m 17.85937,35.34375 c -0.14453,-0.30078 -0.27734,-0.60938 -0.41406,-0.91406 -1.1972,-2.09933 -1.88522,-3.88628 -2.92969,-5.82813 -2.16796,-3.17187 -4.40625,-6.44922 -6.90234,-9.46484 -1.99609,-2.41016 -4.15625,-4.74219 -6.24609,-6.9961 -1.32032,-1.42968 -2.69141,-2.90625 -3.9961,-4.38281 -0.19531,-0.21875 -0.3789,-0.72656 -0.40625,-0.96875 0.81641,-1.13672 1.73828,-2.24609 2.62891,-3.32031 0.62891,-0.75 1.27344,-1.52734 1.89062,-2.32031 9.04297,-11.64453 8.84375,-25.04297 -0.52734,-35.83985 -5.54687,-6.38672 -12.49219,-10.76953 -19.17187,-14.55469 -3.72266,-2.11328 -7.55079,-4.17578 -11.25,-6.17187 -3.23438,-1.74609 -6.58204,-3.55078 -9.83985,-5.375 l -1.23828,-0.69531 c -4.95312,-2.76953 -10.07422,-5.63672 -14.88672,-8.77344 -5.67187,-3.69922 -9.73828,-7.35156 -12.79687,-11.49609 -1.10938,-1.50782 -2.25,-2.94141 -3.56641,-4.60157 -0.60937,-0.77343 -1.25,-1.58203 -1.92969,-2.44922 l -1.67578,-2.14062 v 2.71875 c 0,0.58984 -0.0156,1.10156 -0.0273,1.55859 -0.0195,0.89844 -0.0391,1.60938 0.0508,2.34375 0.44922,3.82032 0.91016,7.64063 1.375,11.46094 0.67969,5.60156 1.38281,11.39453 2.02344,17.09766 0.38672,3.39062 0.71875,6.84765 1.04687,10.1875 0.44141,4.54687 0.89453,9.24609 1.48047,13.85547 1.1875,9.39453 4.26953,17.96093 9.15625,25.46093 5.32031,8.16407 12.32422,13.27344 21.40625,15.62891 4.73438,1.22266 9.72266,1.81641 15.25391,1.81641 3.8164,0 7.86718,-0.27344 12.75,-0.86328 0.40234,-0.0469 0.82031,-0.0742 1.20312,-0.0742 1.02735,0 1.82813,0.17968 2.19141,0.5 1.42578,1.21875 2.50781,3.01953 3.46094,4.78515 l 0.78906,1.45313 c 2.03125,3.73047 4.1289,7.59375 5.75781,11.54297 0.27344,0.66406 3.5503,8.90596 3.76514,9.60517 0.5824,1.37763 4.93779,5.05755 5.98782,5.98612 0.53186,1.01846 -3.82278,-5.58063 -4.53114,-6.99589 0.0298,-0.0876 0.0867,-0.67739 0.41879,-1.32583 l 0.17968,-0.35938 -0.13281,-0.3789 c -0.98828,-2.80078 -1.82031,-5.07813 -2.62891,-7.16407 -1.52343,-3.95703 -3.37109,-8.36328 -5.8789,-12.66015 0.26172,0.28125 0.51953,0.5625 0.78125,0.83984 1.85937,1.9961 3.78125,4.0625 5.55859,6.17578 1.87891,2.23438 3.54297,4.75 5.14844,7.1836 0.44922,0.67968 0.89844,1.35937 1.35156,2.03515 0.3711,0.55078 0.74219,1.10157 1.10156,1.66016 l 0.14063,0.21484 0.22656,0.11328 c 0.46094,0.23438 0.89844,0.57422 1.30078,1.01172 l 4.77344,5.19922 -0.1904,0.0722 c -0.97265,-1.20703 -1.52836,-2.89639 -2.03227,-4.39248"
       id="path948"
       inkscape:connector-curvature="0"
       sodipodi:nodetypes="ccsccsccccccccccccccccccccccccccccccccccccccccccccccsccccccccscsccccccccccccccccccccccc" />
    <path
       style="fill:#b5d8f1;fill-opacity:1;fill-rule:nonzero;stroke:none;stroke-width:1.03361106"
       d="m 352.60683,333.05703 c 0.38624,0.57536 0.77248,1.15477 1.14665,1.73823 -2.78816,-1.42624 -5.99878,0.26337 -7.31843,2.85247 -0.86904,-2.48376 -1.75819,-4.95536 -2.69563,-7.40265 -2.5186,-6.57609 -5.42747,-12.982 -9.70426,-18.58565 l 0.72419,-0.63209 c 3.57674,4.23009 7.54374,8.13199 11.08829,12.38233 2.51056,3.00239 4.57855,6.3816 6.75919,9.64736"
       id="path950"
       inkscape:connector-curvature="0" />
    <path
       style="fill:#b5d8f1;fill-opacity:1;fill-rule:nonzero;stroke:none"
       d="m 334.03516,311.63672 c -0.27344,-0.35938 -0.55469,-0.71485 -0.84375,-1.07031 -1.69141,-2.07422 -4.35547,-1.10157 -6.5,-0.84375 -8.54688,1.03125 -16.98438,1.32421 -25.45313,-0.90625 -4.75,-1.24219 -9.08203,-3.23829 -12.84375,-6.1875 -4.16406,-3.26172 -7.33203,-7.48047 -9.9375,-12.16016 -3.30859,-5.92578 -5.38281,-12.25 -6.72656,-18.83203 -0.67969,-3.34375 -1.08594,-6.7461 -1.47266,-10.14063 -0.71484,-6.29687 -1.33984,-12.60937 -1.96875,-18.91797 -0.52734,-5.1875 -0.98828,-10.3789 -1.51953,-15.55859 -0.3125,-2.98437 -0.70703,-5.95312 -1.13672,-9.54687 1.85938,2.22656 3.29297,4.00781 4.80469,5.72656 4.32422,4.91797 9.50781,8.83594 15.08203,12.15625 6.85938,4.07422 13.89844,7.85547 20.91016,11.66797 4.62109,2.51172 9.53125,4.52343 13.94922,7.33203 8.18359,5.19922 16.53906,10.39844 21.41796,19.2539 3.59375,6.52735 4.48829,13.45704 0.70704,20.19532 -2.5,4.45703 -5.80469,8.44922 -8.46875,12.82422 -0.56641,0.9375 -0.44141,3.0625 0.25781,3.88671 0.14453,0.17579 0.29297,0.34375 0.44531,0.51172 z m 0,0"
       id="path952"
       inkscape:connector-curvature="0" />
    <path
       style="fill:#000000;fill-opacity:1;fill-rule:nonzero;stroke:none"
       d="m 355.51953,334.73828 c -0.73437,-1.11719 -1.60547,-2.20312 -2.33984,-3.27734 -2.41797,-3.53125 -4.8125,-7.10547 -7.53516,-10.40235 -3.24609,-3.91797 -6.85156,-7.54297 -10.22656,-11.35547 -0.42969,-0.48828 -0.82031,-1.63671 -0.5625,-2 1.42969,-2.01953 3.11719,-3.84765 4.63672,-5.80468 8.38281,-10.79297 8.85547,-23.88282 -0.49219,-34.65235 -5.34375,-6.15234 -11.98828,-10.42187 -18.92578,-14.35547 -6.96875,-3.94921 -14.09375,-7.62109 -21.08594,-11.54296 -5.45703,-3.05469 -10.94531,-6.08594 -16.18359,-9.5 -4.91016,-3.20313 -9.48438,-6.91797 -13.03516,-11.72266 -1.625,-2.20703 -3.37109,-4.33203 -5.48047,-7.03125 0,1.72266 -0.10937,2.76953 0.0156,3.79297 1.12109,9.52344 2.32812,19.03515 3.40234,28.5625 0.90625,8.0039 1.51172,16.04297 2.52344,24.03125 1.13672,8.99219 4.04297,17.4414 9.01172,25.0664 5.00781,7.6836 11.78125,12.88282 20.85547,15.23047 9.21484,2.38282 18.38281,2.05078 27.65625,0.9336 1.36328,-0.16407 3.21875,-0.13672 4.12109,0.64453 1.54297,1.32422 2.67969,3.21875 3.67187,5.04687 2.32813,4.29688 4.73438,8.58203 6.58985,13.08985 0.70703,1.71875 1.17969,3.53906 1.60937,5.3789 0.625,1.09766 1.23828,2.20313 1.83203,3.31641 0.0937,-0.51953 0.25391,-1.02344 0.4961,-1.49609 -0.84375,-2.39454 -1.70703,-4.77735 -2.6211,-7.13672 -2.4414,-6.33985 -5.26562,-12.51563 -9.41796,-17.91797 -0.27344,-0.35938 -0.55469,-0.71485 -0.84375,-1.07031 -1.69141,-2.07422 -4.35547,-1.10157 -6.5,-0.84375 -8.54688,1.03125 -16.98438,1.32421 -25.45313,-0.90625 -4.75,-1.24219 -9.08203,-3.23829 -12.84375,-6.1875 -4.16406,-3.26172 -7.33203,-7.48047 -9.9375,-12.16016 -3.30859,-5.92578 -5.38281,-12.25 -6.72656,-18.83203 -0.67969,-3.34375 -1.08594,-6.7461 -1.47266,-10.14063 -0.71484,-6.29687 -1.33984,-12.60937 -1.96875,-18.91797 -0.52734,-5.18359 -0.98828,-10.3789 -1.51953,-15.55859 -0.3125,-2.98437 -0.70703,-5.95312 -1.13672,-9.54687 1.85938,2.22656 3.29297,4.00781 4.80469,5.72656 4.32422,4.91797 9.50781,8.83594 15.08203,12.15625 6.85938,4.07422 13.89844,7.85547 20.91016,11.66797 4.62109,2.51172 9.53125,4.52343 13.94922,7.33203 8.18359,5.19922 16.53906,10.39844 21.41796,19.2539 3.59766,6.52735 4.48829,13.45704 0.70704,20.19532 -2.5,4.45703 -5.80469,8.44922 -8.46875,12.82422 -0.56641,0.9375 -0.44141,3.0625 0.25781,3.88671 0.14453,0.17579 0.29297,0.34375 0.44531,0.51172 3.47266,4.07813 7.32422,7.83985 10.76563,11.9375 2.4375,2.89453 4.44531,6.15235 6.5625,9.30078 0.375,0.55469 0.75,1.11329 1.11328,1.67579 0.54297,0.27343 1.07422,0.67578 1.57031,1.21093 0.70312,0.76953 1.41016,1.54297 2.11719,2.3125 -0.20703,-0.73437 -0.5625,-1.45312 -0.98828,-2.15625 -0.125,-0.1875 -0.24219,-0.3789 -0.35938,-0.57031"
       id="path954"
       inkscape:connector-curvature="0" />
    <path
       style="fill:#000000;fill-opacity:1;fill-rule:nonzero;stroke:none"
       d="m 306.45312,273.91406 c 4.02735,0 5.99219,-1.39453 5.99219,-5.0625 0,-1.96094 -0.8789,-4.85547 -5.42578,-4.85547 h -9.65625 v 9.91797 z m -16.68359,-16.32031 h 18.75 c 9.86328,0 11.67188,7.28125 11.67188,10.48437 0,4.07813 -2.06641,7.58985 -5.73438,8.82813 3.04688,1.34375 4.69922,2.48047 4.69922,9.40234 0,5.42188 0,6.76563 1.65234,7.38672 v 0.98047 h -8.57031 c -0.51953,-1.75781 -0.82812,-3.66797 -0.82812,-7.48828 0,-5.0625 -0.3086,-7.02734 -6.04297,-7.02734 h -8.00391 v 14.51562 h -7.59375 z m 0,0"
       id="path956"
       inkscape:connector-curvature="0" />
    <path
       style="fill:#825e57;fill-opacity:1;fill-rule:nonzero;stroke:none"
       d="m 365.30078,349.48828 c 3.42969,3.69141 6.96875,7.5 10.09766,11.45313 0.40234,0.5 0.80078,1.00781 1.1914,1.52734 0.58985,0.78125 1.17188,1.57031 1.71094,2.35156 0.39063,0.5586 0.76953,1.1211 1.17969,1.75 0.14844,0.21875 0.30078,0.44922 0.44922,0.69141 1.33203,2.10937 2.5,4.26953 3.48047,6.42969 0.23828,0.53906 0.48046,1.07812 0.69921,1.60937 2.25,5.41797 3.49219,11.07031 3.71094,16.80078 0.30078,8.11719 -0.9414,16.8086 -3.80859,26.57031 -1.3125,4.47657 -2.83203,8.76954 -4.53125,13.51954 L 379.01172,433.5 c -1.39063,3.82031 -2.83203,7.78125 -3.1211,11.87891 -0.0625,0.6914 -0.0898,1.38281 -0.0898,2.05078 0,4.35156 1.10938,8.01953 3.46875,11.55078 1.92188,2.87109 4.14063,5.53906 6.28125,8.12109 0.57813,0.6875 1.16016,1.37891 1.73047,2.07813 2.37891,2.89843 4.71875,5.80859 6.95703,8.67187 0.19141,0.22656 0.37109,0.46875 0.57031,0.72656 l 0.14063,0.1836 c 1.28125,1.6289 2.55078,3.26953 3.80078,4.91015 l 0.98828,1.29688 c 1.58203,2.08203 3.27344,4.35937 5.17188,6.96094 11.25,15.42968 21.73046,31.60156 31.14062,48.08203 0.58984,1.02734 0.60938,2.00781 0.0781,2.92969 -0.6875,1.17968 -2.19922,2.03906 -3.60938,2.03906 -1.16016,0 -2.05859,-0.55078 -2.67969,-1.6211 -1.89843,-3.32812 -3.60937,-6.25781 -5.21875,-8.96093 -10.05078,-16.77735 -20.94922,-32.87891 -32.39062,-47.83985 -2.60938,-3.41797 -5.39063,-6.77734 -8.10938,-10.07812 -3.1914,-3.8711 -6.48047,-7.8711 -9.48047,-11.92969 -2.73046,-3.69922 -4.53906,-7.60937 -5.39062,-11.62109 l -0.0703,-0.32813 c -0.37891,-1.90234 -0.55078,-3.86328 -0.50782,-5.85156 0.0391,-2.10938 0.31641,-4.30078 0.83985,-6.51953 0.21875,-0.96094 0.45703,-1.85938 0.71875,-2.78906 0.16015,-0.58204 0.32812,-1.16016 0.50781,-1.76172 0.92188,-3.0586 2.01172,-6.14063 3.10156,-9.19141 1.32032,-3.70703 2.67969,-7.55859 3.75,-11.44922 0.1211,-0.42969 0.23047,-0.85937 0.35157,-1.32812 1.9375,-7.58203 3.92968,-17.5 2.1289,-27 -1.58203,-8.40235 -5.58984,-16.26953 -12.26172,-24.0625 -4.57812,-5.34766 -9.42968,-10.57813 -14.1289,-15.63672 l -2.82032,-3.05078 c -1.1289,-1.69141 -2.26953,-3.47266 -3.41015,-5.30078 0.0508,-0.35938 0.17187,-0.73829 0.35156,-1.08204 0.64844,-1.27734 2.03906,-2.19921 3.30078,-2.19921 0.41797,0 0.82031,0.10156 1.20703,0.29296 0.35157,0.17969 0.69141,0.44922 1.01172,0.78907 l 2.1211,2.30859 c 2.23828,2.46094 4.48828,4.90234 6.73046,7.33984 1.01954,1.10938 2.04688,2.21875 3.12891,3.37891"
       id="path962"
       inkscape:connector-curvature="0" />
    <path
       style="fill:none;stroke:#000000;stroke-width:2;stroke-linecap:butt;stroke-linejoin:miter;stroke-miterlimit:10;stroke-opacity:1"
       d="M 7.8125e-4,0.00171875 C 3.430469,-3.689687 6.969531,-7.498281 10.098437,-11.451406 c 0.402344,-0.5 0.800782,-1.007813 1.191407,-1.527344 0.589843,-0.78125 1.171875,-1.570312 1.710937,-2.351562 0.390625,-0.558594 0.769531,-1.121094 1.179688,-1.75 0.148437,-0.21875 0.300781,-0.449219 0.449218,-0.691407 1.332032,-2.109375 2.5,-4.269531 3.480469,-6.429687 0.238281,-0.539063 0.480469,-1.078125 0.699219,-1.609375 2.25,-5.417969 3.492187,-11.070313 3.710937,-16.800781 0.300782,-8.117188 -0.941406,-16.808594 -3.808593,-26.570313 -1.3125,-4.476562 -2.832032,-8.769531 -4.53125,-13.519531 L 13.711719,-84.01 c -1.390625,-3.820312 -2.832032,-7.78125 -3.121094,-11.878906 -0.0625,-0.691406 -0.08984,-1.382813 -0.08984,-2.050781 0,-4.351563 1.109375,-8.019533 3.46875,-11.550783 1.921875,-2.87109 4.140625,-5.53906 6.28125,-8.12109 0.578125,-0.6875 1.160156,-1.37891 1.730469,-2.07813 2.378906,-2.89844 4.71875,-5.80859 6.957031,-8.67187 0.191406,-0.22656 0.371094,-0.46875 0.570313,-0.72656 l 0.140625,-0.1836 c 1.28125,-1.6289 2.550781,-3.26953 3.800781,-4.91015 l 0.988281,-1.29688 c 1.582031,-2.08203 3.273438,-4.35937 5.171875,-6.96094 11.25,-15.42968 21.730469,-31.60156 31.140625,-48.08203 0.589844,-1.02734 0.609375,-2.00781 0.07813,-2.92969 -0.6875,-1.17968 -2.199219,-2.03906 -3.609375,-2.03906 -1.160156,0 -2.058594,0.55078 -2.679687,1.6211 -1.898438,3.32812 -3.609375,6.25781 -5.21875,8.96093 -10.050782,16.77735 -20.949219,32.87891 -32.390625,47.83985 -2.609375,3.41797 -5.390625,6.77734 -8.109375,10.07812 -3.191407,3.87109 -6.480469,7.87109 -9.480469,11.92969 -2.730469,3.69922 -4.539063,7.60937 -5.390625,11.62109 l -0.070313,0.32813 c -0.378906,1.90234 -0.550781,3.863279 -0.507812,5.85156 0.039062,2.109375 0.316406,4.300781 0.839844,6.519531 0.21875,0.960938 0.457031,1.859375 0.71875,2.789063 0.160156,0.582031 0.328125,1.160156 0.507812,1.761719 0.921875,3.058593 2.011719,6.140625 3.101563,9.191406 1.320312,3.707031 2.679687,7.558594 3.75,11.449219 0.121093,0.429687 0.230468,0.859375 0.351562,1.328125 1.9375,7.582031 3.929688,17.5 2.128906,27 -1.582031,8.402343 -5.589843,16.269531 -12.261718,24.0625 -4.578125,5.347656 -9.429688,10.578125 -14.128907,15.636718 l -2.820312,3.050782 c -1.128906,1.691406 -2.269531,3.472656 -3.410156,5.300781 0.05078,0.359375 0.171875,0.738281 0.351562,1.082031 0.648438,1.277344 2.039063,2.199219 3.300781,2.199219 0.417969,0 0.820313,-0.101563 1.207032,-0.292969 0.351562,-0.179687 0.691406,-0.449219 1.011718,-0.789062 l 2.121094,-2.308594 C -7.620313,8.259531 -5.370313,5.818125 -3.128125,3.380625 -2.108594,2.27125 -1.08125,1.161875 7.8125e-4,0.00171875 Z m 0,0"
       transform="matrix(1,0,0,-1,365.3,349.49)"
       id="path964"
       inkscape:connector-curvature="0" />
    <flowRoot
       xml:space="preserve"
       id="flowRoot973"
       style="font-style:normal;font-variant:normal;font-weight:bold;font-stretch:normal;font-size:40px;line-height:1.25;font-family:sans-serif;-inkscape-font-specification:'sans-serif Bold';letter-spacing:0px;word-spacing:0px;fill:#000000;fill-opacity:1;stroke:none"><flowRegion
         id="flowRegion975"
         style="font-style:normal;font-variant:normal;font-weight:bold;font-stretch:normal;font-family:sans-serif;-inkscape-font-specification:'sans-serif Bold'"><rect
           id="rect977"
           width="97.511047"
           height="44.661549"
           x="700.44196"
           y="505.41986"
           style="font-style:normal;font-variant:normal;font-weight:bold;font-stretch:normal;font-family:sans-serif;-inkscape-font-specification:'sans-serif Bold'" /></flowRegion><flowPara
         id="flowPara979" /></flowRoot>  </g>
</svg>
