<?xml version="1.0" encoding="UTF-8" standalone="no"?>
<!-- Created with Inkscape (http://www.inkscape.org/) -->

<svg
   xmlns:dc="http://purl.org/dc/elements/1.1/"
   xmlns:cc="http://creativecommons.org/ns#"
   xmlns:rdf="http://www.w3.org/1999/02/22-rdf-syntax-ns#"
   xmlns:svg="http://www.w3.org/2000/svg"
   xmlns="http://www.w3.org/2000/svg"
   xmlns:sodipodi="http://sodipodi.sourceforge.net/DTD/sodipodi-0.dtd"
   xmlns:inkscape="http://www.inkscape.org/namespaces/inkscape"
   width="30.717802mm"
   height="43.676109mm"
   viewBox="0 0 30.717802 43.676109"
   version="1.1"
   id="svg3167"
   inkscape:version="0.92.2 (5c3e80d, 2017-08-06)"
   sodipodi:docname="technology.svg">
  <defs
     id="defs3161" />
  <sodipodi:namedview
     id="base"
     pagecolor="#ffffff"
     bordercolor="#666666"
     borderopacity="1.0"
     inkscape:pageopacity="0.0"
     inkscape:pageshadow="2"
     inkscape:zoom="0.98994949"
     inkscape:cx="269.2521"
     inkscape:cy="85.26479"
     inkscape:document-units="mm"
     inkscape:current-layer="g991"
     showgrid="false"
     fit-margin-top="0"
     fit-margin-left="0"
     fit-margin-right="0"
     fit-margin-bottom="0"
     inkscape:window-width="1920"
     inkscape:window-height="1052"
     inkscape:window-x="1920"
     inkscape:window-y="0"
     inkscape:window-maximized="1" />
  <metadata
     id="metadata3164">
    <rdf:RDF>
      <cc:Work
         rdf:about="">
        <dc:format>image/svg+xml</dc:format>
        <dc:type
           rdf:resource="http://purl.org/dc/dcmitype/StillImage" />
        <dc:title></dc:title>
      </cc:Work>
    </rdf:RDF>
  </metadata>
  <g
     inkscape:label="Layer 1"
     inkscape:groupmode="layer"
     id="layer1"
     transform="translate(-79.06471,-114.79628)">
    <g
       transform="matrix(0.35277777,0,0,0.35277777,-59.514644,-13.193147)"
       id="g991">
      <path
         inkscape:connector-curvature="0"
         id="path856"
         d="m 409.41016,463.65234 c -4.76172,6.14454 -7.77344,13.21094 -10.61329,20.34766 -1.26171,-1.64844 -2.53515,-3.29687 -3.8164,-4.9375 0.66797,-0.98047 1.375,-1.9375 2.13672,-2.83594 3.77343,-4.45703 7.96093,-8.5625 11.74218,-13.00781 z m 0,0"
         style="fill:#f05742;fill-opacity:1;fill-rule:nonzero;stroke:none" />
      <path
         inkscape:connector-curvature="0"
         id="path858"
         d="m 396.14453,479.03125 c 0.80078,1.02734 1.59766,2.05859 2.39453,3.09375 1.72656,-4.28906 3.53516,-8.48437 5.78516,-12.46875 -0.19141,0.20703 -0.38672,0.41406 -0.57813,0.62109 -1.97656,2.1211 -4.01562,4.31641 -5.91406,6.55469 -0.55469,0.65625 -1.11328,1.37891 -1.6875,2.19922 m 2.91406,6.85156 -1.0039,-1.3125 c -1.26172,-1.64843 -2.53516,-3.29297 -3.8125,-4.92968 l -0.42188,-0.53907 0.38281,-0.5664 c 0.75782,-1.10938 1.47657,-2.0625 2.19922,-2.91407 1.92578,-2.27343 3.98047,-4.48437 5.97266,-6.62109 1.92578,-2.07031 3.91797,-4.21094 5.76953,-6.38672 l 0.58594,-0.6875 1.99219,1.5625 -0.57032,0.73828 c -4.70703,6.07032 -7.64453,12.98047 -10.48437,20.1211 z m 0,0"
         style="fill:#000000;fill-opacity:1;fill-rule:nonzero;stroke:none" />
      <path
         inkscape:connector-curvature="0"
         id="path860"
         d="m 409.81641,463.13281 c -0.13672,0.17578 -0.27344,0.34375 -0.40625,0.51953 l -0.55079,-0.43359 c 0.75,-0.88672 1.08985,-3.00391 0.55079,-3.92969 -1.35547,-2.32031 -3.44922,-4.19531 -5.02344,-6.40234 -3.30078,-4.60938 -5.78125,-9.64063 -5.92188,-15.41797 -0.14062,-6.44141 2.81641,-11.70312 6.82032,-16.54687 5.14843,-6.22657 11.83203,-10.39454 18.74218,-14.26172 7.02735,-3.92578 13.98828,-8 21.21485,-11.51953 8.21093,-3.99219 15.79297,-8.88672 22.7539,-14.71485 3.38672,-2.82812 6.23047,-6.32422 9.30469,-9.5 0,0.28906 0.0469,0.70313 -0.004,1.10156 -0.97656,8.23047 -2.01953,16.44922 -2.92968,24.6875 -0.90235,8.17579 -1.53907,16.37891 -2.53125,24.54297 -0.98828,8.13282 -3.5586,15.89844 -7.71485,22.875 -5.08593,8.54297 -12.26953,14.69532 -22.33593,17.17578 -8.41797,2.07813 -16.77344,1.86329 -25.25782,0.875 -2.21093,-0.25781 -4.91015,-1.30859 -6.71093,0.94922"
         style="fill:#f05742;fill-opacity:1;fill-rule:nonzero;stroke:none" />
      <path
         inkscape:connector-curvature="0"
         id="path862"
         d="m 412.94922,460.77734 c 0.84765,0 1.67578,0.14454 2.48047,0.28516 0.41406,0.0742 0.8164,0.14453 1.20703,0.1875 4.16406,0.48438 7.8125,0.72266 11.15625,0.72266 4.97656,0 9.48047,-0.51563 13.76562,-1.57422 9.29688,-2.29297 16.41407,-7.76953 21.75782,-16.7461 4.04687,-6.78906 6.59765,-14.35937 7.58593,-22.50781 0.57422,-4.6875 1.03516,-9.47656 1.48047,-14.10547 0.32813,-3.41797 0.66797,-6.95312 1.05078,-10.42578 0.59766,-5.40625 1.26563,-10.89062 1.91016,-16.19531 0.27734,-2.30859 0.55859,-4.62109 0.83594,-6.92969 -0.34766,0.375 -0.6875,0.7461 -1.02735,1.11719 -2.05468,2.23828 -4.17968,4.55469 -6.55468,6.54297 -6.96485,5.82422 -14.6836,10.8164 -22.94532,14.83594 -5.69531,2.77343 -11.33203,5.95312 -16.78125,9.02343 -1.46093,0.82813 -2.92187,1.65235 -4.38672,2.46875 -6.17968,3.46094 -13.21875,7.6836 -18.47656,14.04297 -4.6875,5.66406 -6.72265,10.57813 -6.60547,15.92969 0.11719,4.84375 1.94141,9.57812 5.7461,14.89453 0.63281,0.88672 1.3789,1.74609 2.10156,2.58203 1.05078,1.21094 2.13672,2.46485 2.96875,3.89063 0.38281,0.65234 0.46484,1.58203 0.34375,2.49218 0.6875,-0.35546 1.47656,-0.53125 2.38672,-0.53125 m -3.36328,4.20313 -2.07032,-1.62109 0.62891,-0.7461 c 0.55078,-0.65234 0.75781,-2.33203 0.45703,-2.85156 -0.74609,-1.27344 -1.73047,-2.40625 -2.76953,-3.60938 -0.75,-0.86718 -1.52734,-1.76171 -2.21094,-2.71875 -4.03125,-5.63671 -5.96875,-10.69921 -6.08984,-15.9414 -0.13281,-5.83594 2.03906,-11.12891 7.03125,-17.16797 5.46484,-6.60938 12.67578,-10.94141 19.00781,-14.48438 1.46094,-0.8164 2.92188,-1.64062 4.38281,-2.46484 5.47266,-3.08594 11.12891,-6.28125 16.87891,-9.07812 8.125,-3.95313 15.71484,-8.85938 22.5625,-14.58985 2.28125,-1.90625 4.36328,-4.17578 6.375,-6.37109 0.92969,-1.01172 1.89063,-2.0586 2.85938,-3.0586 l 1.61328,-1.66406 v 2.3125 c 0,0.0742 0,0.15625 0.004,0.2461 0.0117,0.27343 0.0274,0.61328 -0.0195,0.97265 -0.33594,2.83203 -0.67969,5.66797 -1.02344,8.50391 -0.64453,5.29687 -1.30859,10.77344 -1.90625,16.16797 -0.38281,3.46093 -0.71875,6.98828 -1.05078,10.40234 -0.44531,4.64063 -0.90625,9.44141 -1.48047,14.15234 -1.02343,8.40625 -3.66015,16.22657 -7.83984,23.24219 -5.53516,9.29688 -13.24609,15.22266 -22.91797,17.60547 -4.43359,1.09375 -9.08203,1.62891 -14.21484,1.62891 -3.41797,0 -7.13672,-0.23828 -11.3711,-0.73438 -0.42578,-0.0469 -0.86328,-0.125 -1.3125,-0.20312 -0.72656,-0.125 -1.47656,-0.25782 -2.16015,-0.25782 -1.08594,0 -1.80469,0.31641 -2.39844,1.0625 L 410.422,463.875 c -0.0898,0.11328 -0.17578,0.22656 -0.26171,0.33984 z m 0,0"
         style="fill:#000000;fill-opacity:1;fill-rule:nonzero;stroke:none" />
      <path
         inkscape:connector-curvature="0"
         id="path864"
         d="m 398.79687,484 c 2.83985,-7.13672 5.85157,-14.20312 10.61329,-20.34766 0.13281,-0.17578 0.26953,-0.34375 0.40625,-0.51953 1.80078,-2.25781 4.5,-1.20703 6.71093,-0.94922 8.48438,0.98829 16.83985,1.20704 25.25782,-0.875 10.0664,-2.48437 17.25,-8.63281 22.33593,-17.17578 4.15625,-6.97656 6.72657,-14.74218 7.71094,-22.875 0.99609,-8.16015 1.63281,-16.36718 2.53516,-24.54297 0.91015,-8.23828 1.95312,-16.45703 2.92968,-24.6875 0.0508,-0.39843 0.008,-0.8125 0.008,-1.09765 -3.07813,3.17187 -5.92188,6.66797 -9.3086,9.5 -6.96093,5.82422 -14.54297,10.71484 -22.7539,14.71094 -7.22657,3.51953 -14.1875,7.59375 -21.21485,11.51562 -6.91015,3.87109 -13.59375,8.03906 -18.74218,14.26563 -4.00782,4.84375 -6.96094,10.10546 -6.81641,16.54687 0.13672,5.77734 2.61719,10.80859 5.91797,15.42188 1.57422,2.20312 3.66797,4.07812 5.02344,6.39843 0.53906,0.92578 0.19921,3.04297 -0.55079,3.92969 -3.78125,4.44531 -7.96875,8.55078 -11.74218,13.00781 -0.76172,0.89844 -1.46875,1.85547 -2.13672,2.83594 -0.2461,-0.3125 -0.48438,-0.61719 -0.72656,-0.92187 0.10156,-0.36329 0.1875,-0.72657 0.26953,-1.09375 0.76172,-0.97266 1.52343,-1.92188 2.33593,-2.82032 3.69532,-4.08593 7.46875,-8.09375 11.125,-12.21093 0.34375,-0.39063 0.41407,-1.55079 0.0937,-1.9336 -4.75,-5.73047 -9.23437,-11.48047 -10.41015,-19.26172 -0.94531,-6.23047 0.28515,-11.76953 3.55078,-16.95703 5.29297,-8.40625 13.30469,-13.64844 21.75391,-18.32422 7.01171,-3.875 14.08203,-7.64843 21.0625,-11.57422 5.38671,-3.01953 10.77343,-6.05468 15.98046,-9.36328 5.11329,-3.23828 9.75,-7.09765 13.45704,-11.96875 1.65625,-2.16797 3.33593,-4.32812 5.44921,-7.07422 0,1.66797 0.0937,2.5625 -0.0117,3.4375 -0.95704,7.98829 -2.01954,15.96485 -2.91407,23.96485 -0.91797,8.23437 -1.73828,16.49219 -2.49218,24.7539 -0.8125,8.96094 -3.10547,17.42969 -7.33985,25.4375 -5.09375,9.64454 -12.32812,16.36719 -23.1289,19.17188 -9.20704,2.39453 -18.38282,2.03906 -27.66407,0.92578 -1.44922,-0.16797 -3.83593,0.11328 -4.38672,1.03125 -3.61718,6.03125 -7.125,12.16406 -10.1289,18.51563 -0.38672,0.8164 -0.7461,1.64843 -1.07813,2.5 -0.32422,-0.4336 -0.65625,-0.86329 -0.98047,-1.29688"
         style="fill:#000000;fill-opacity:1;fill-rule:nonzero;stroke:none" />
      <path
         inkscape:connector-curvature="0"
         id="path866"
         d="m 478.01953,368.26172 -0.57031,0.74219 c -0.57813,0.75 -1.12891,1.46484 -1.66797,2.16015 0.28125,-0.30078 0.5625,-0.59765 0.84766,-0.89062 l 1.35156,-1.39063 c 0.0234,-0.19531 0.0351,-0.39843 0.0391,-0.62109 m -65.07031,92.51562 c 0.84765,0 1.67578,0.14454 2.48047,0.28516 0.41406,0.0742 0.8164,0.14453 1.20703,0.1875 4.16406,0.48438 7.8125,0.72266 11.15625,0.72266 4.98047,0 9.48047,-0.51563 13.76562,-1.57422 9.29688,-2.29297 16.41407,-7.76953 21.75782,-16.7461 4.04687,-6.78906 6.59765,-14.35937 7.58593,-22.50781 0.57032,-4.6875 1.03516,-9.47656 1.48047,-14.10547 0.32813,-3.41797 0.66797,-6.95312 1.05078,-10.42578 0.59766,-5.40625 1.26563,-10.89062 1.90625,-16.19531 0.28125,-2.30859 0.5625,-4.61719 0.83985,-6.92969 -0.34766,0.3711 -0.6875,0.7461 -1.02735,1.11719 -2.05468,2.23828 -4.17968,4.55469 -6.55468,6.54297 -6.96485,5.82422 -14.6836,10.8164 -22.94532,14.83594 -5.69531,2.77343 -11.33203,5.94921 -16.78125,9.02734 -1.46093,0.82422 -2.92187,1.64844 -4.38672,2.46484 -6.17968,3.46094 -13.21484,7.6836 -18.47656,14.04297 -4.6875,5.66406 -6.72265,10.57813 -6.60547,15.92969 0.11719,4.84375 1.94141,9.57812 5.7461,14.89453 0.63281,0.88672 1.3789,1.75 2.10156,2.58203 1.05078,1.21094 2.13672,2.46485 2.96875,3.89063 0.37891,0.65234 0.46484,1.58203 0.34375,2.49218 0.6875,-0.35546 1.47656,-0.53125 2.38672,-0.53125 m -3.9375,4.98047 c -2.38281,3.34766 -4.29297,6.91797 -5.99219,10.625 2,-3.78906 4.0625,-7.37109 5.99219,-10.625 m -9.00224,20.83873 c -1.01238,-0.3225 -2.27901,-2.45201 -2.27901,-2.45201 l 0.19531,-0.48828 c 1.91797,-4.82031 3.87891,-9.54297 6.40234,-14.00391 -0.19531,0.21094 -0.39062,0.41797 -0.58203,0.625 -1.97656,2.1211 -4.01562,4.31641 -5.91406,6.55469 -0.67969,0.80078 -1.35937,1.70703 -2.07812,2.75781 l -0.72266,1.0625 -0.93359,-1.1914 c -0.35668,-0.48658 -0.72385,-0.92764 -1.10603,-1.33593 -0.14905,-0.18025 -0.23047,-0.33539 -0.1105,-0.5028 l 0.77124,-0.9894 0.13282,-0.16797 c 0.85937,-1.08984 1.58984,-1.99218 2.3789,-2.86718 1.52735,-1.6875 3.06641,-3.36328 4.60547,-5.03907 2.14844,-2.33593 4.37109,-4.7539 6.51563,-7.16796 0.0586,-0.11329 0.0898,-0.57032 0.0351,-0.75391 -5.09765,-6.15234 -9.40234,-11.88281 -10.58203,-19.67578 -0.96094,-6.36719 0.24219,-12.1211 3.68359,-17.59766 5.45704,-8.66015 13.84375,-14.07812 22.09766,-18.64453 2.79297,-1.54297 5.59766,-3.07031 8.39844,-4.59766 4.16015,-2.26953 8.46094,-4.61328 12.65625,-6.97265 5.75,-3.22266 10.91797,-6.14844 15.9375,-9.33594 5.55078,-3.51562 9.87109,-7.35547 13.21484,-11.74609 1.03516,-1.35938 2.08203,-2.71485 3.23828,-4.21094 l 3.89453,-5.05078 v 2.7539 c 0,0.59375 0.0117,1.08594 0.0234,1.51563 0.0195,0.78516 0.0312,1.40625 -0.043,2.03516 -0.37109,3.08593 -0.7539,6.16796 -1.14062,9.2539 -0.60156,4.81641 -1.22266,9.79297 -1.76953,14.69922 -0.85547,7.66406 -1.67188,15.75391 -2.49219,24.73828 -0.86328,9.50781 -3.29688,17.94531 -7.44141,25.78906 -5.55468,10.51172 -13.3164,16.9375 -23.72656,19.64454 -4.69922,1.22265 -9.66797,1.8164 -15.1875,1.8164 -3.80859,0 -7.88281,-0.27734 -12.82031,-0.86719 -0.22266,-0.0273 -0.48047,-0.043 -0.75,-0.043 -1.54688,0 -2.57813,0.40234 -2.72266,0.625 -3.1914,5.3164 -6.88672,11.66796 -10.08594,18.42968 -0.37109,0.78125 -0.72265,1.60547 -1.05078,2.44141 0,0 -0.16252,1.11284 -0.64277,0.95986 z"
         style="fill:#000000;fill-opacity:1;fill-rule:nonzero;stroke:none"
         sodipodi:nodetypes="cccccccccsccccccccccccccccccccccscccccccccccccccccccccccccscccccccscscccs" />
      <path
         inkscape:connector-curvature="0"
         id="path868"
         d="m 409.64454,463.18359 c -4.76172,6.14454 -7.51301,12.71376 -10.35286,19.85048 -1.26171,-1.64844 -2.53515,-3.29687 -3.8164,-4.9375 0.66797,-0.98047 1.11457,-1.44032 1.87629,-2.33876 3.77343,-4.45703 7.72655,-8.09375 11.5078,-12.53906 z"
         style="fill:#f25744;fill-opacity:1;fill-rule:nonzero;stroke:none"
         sodipodi:nodetypes="cccccc" />
      <path
         inkscape:connector-curvature="0"
         id="path870"
         d="m 409.81641,463.13281 c -0.13672,0.17578 -0.27344,0.34375 -0.40625,0.51953 l -0.55079,-0.43359 c 0.75,-0.88672 1.08985,-3.00391 0.55079,-3.92969 -1.35547,-2.32031 -3.44922,-4.19531 -5.02344,-6.40234 -3.30078,-4.60938 -5.78125,-9.64063 -5.92188,-15.41797 -0.14062,-6.44141 2.81641,-11.70312 6.82032,-16.54687 5.14843,-6.22657 11.83203,-10.39454 18.74218,-14.26172 7.02735,-3.92578 13.98828,-8 21.21485,-11.51953 8.21093,-3.99219 15.79297,-8.88672 22.7539,-14.71485 3.38672,-2.82812 6.23047,-6.32422 9.30469,-9.5 0,0.28906 0.0469,0.70313 -0.004,1.10156 -0.97656,8.23047 -2.01953,16.44922 -2.92968,24.6875 -0.90235,8.17579 -1.53907,16.37891 -2.53125,24.54297 -0.98828,8.13282 -3.5586,15.89844 -7.71485,22.875 -5.08593,8.54297 -12.26953,14.69532 -22.33593,17.17578 -8.41797,2.07813 -16.77344,1.86329 -25.25782,0.875 -2.21093,-0.25781 -4.91015,-1.30859 -6.71093,0.94922"
         style="fill:#f25744;fill-opacity:1;fill-rule:nonzero;stroke:none" />
      <path
         inkscape:connector-curvature="0"
         id="path872"
         d="m 398.79687,484 c 2.83985,-7.13672 5.85157,-14.20312 10.61329,-20.34766 0.13281,-0.17578 0.26953,-0.34375 0.40625,-0.51953 1.80078,-2.25781 4.5,-1.20703 6.71093,-0.94922 8.48438,0.98829 16.83985,1.20704 25.25782,-0.875 10.0664,-2.48437 17.25,-8.63281 22.33593,-17.17578 4.15625,-6.97656 6.72657,-14.74218 7.71094,-22.875 0.99609,-8.16015 1.63281,-16.36718 2.53516,-24.54297 0.91015,-8.23828 1.95312,-16.45703 2.92968,-24.6875 0.0508,-0.39843 0.008,-0.8125 0.008,-1.09765 -3.07813,3.17187 -5.92188,6.66797 -9.3086,9.5 -6.96093,5.82422 -14.54297,10.71484 -22.7539,14.71094 -7.22657,3.51953 -14.1875,7.59375 -21.21485,11.51562 -6.91015,3.87109 -13.59375,8.03906 -18.74218,14.26563 -4.00782,4.84375 -6.96094,10.10546 -6.81641,16.54687 0.13672,5.77734 2.61719,10.80859 5.91797,15.42188 1.57422,2.20312 3.66797,4.07812 5.02344,6.39843 0.53906,0.92578 0.19921,3.04297 -0.55079,3.92969 -3.78125,4.44531 -7.96875,8.55078 -11.74218,13.00781 -0.76172,0.89844 -1.46875,1.85547 -2.13672,2.83594 -0.2461,-0.3125 -0.48438,-0.61719 -0.72656,-0.92187 0.10156,-0.36329 0.1875,-0.72657 0.26953,-1.09375 0.76172,-0.97266 1.52343,-1.92188 2.33593,-2.82032 3.69532,-4.08593 7.46875,-8.09375 11.125,-12.21093 0.34375,-0.39063 0.41407,-1.55079 0.0937,-1.9336 -4.75,-5.73047 -9.23437,-11.48047 -10.41015,-19.26172 -0.94531,-6.23047 0.28515,-11.76953 3.55078,-16.95703 5.29297,-8.40625 13.30469,-13.64844 21.75391,-18.32422 7.01171,-3.875 14.08203,-7.64843 21.0625,-11.57422 5.38671,-3.01953 10.77343,-6.05468 15.98046,-9.36328 5.11329,-3.23828 9.75,-7.09765 13.45704,-11.96875 1.65625,-2.16797 3.33593,-4.32812 5.44921,-7.07422 0,1.66797 0.0937,2.5625 -0.0117,3.4375 -0.95704,7.98829 -2.01954,15.96485 -2.91407,23.96485 -0.91797,8.23437 -1.73828,16.49219 -2.49218,24.7539 -0.8125,8.96094 -3.10547,17.42969 -7.33985,25.4375 -5.09375,9.64454 -12.32812,16.36719 -23.1289,19.17188 -9.20704,2.39453 -18.38282,2.03906 -27.66407,0.92578 -1.44922,-0.16797 -3.83593,0.11328 -4.38672,1.03125 -3.61718,6.03125 -7.125,12.16406 -10.1289,18.51563 -0.38672,0.8164 -0.7461,1.64843 -1.07813,2.5 -0.32422,-0.4336 -0.65625,-0.86329 -0.98047,-1.29688"
         style="fill:#000000;fill-opacity:1;fill-rule:nonzero;stroke:none" />
      <path
         inkscape:connector-curvature="0"
         id="path874"
         d="m 441.76562,448.21484 h -7.74609 V 417.69141 H 422.8125 v -6.5586 h 30.16016 v 6.5586 h -11.20704 z m 0,0"
         style="fill:#000000;fill-opacity:1;fill-rule:nonzero;stroke:none" />
    </g>
  </g>
</svg>
